%TF.GenerationSoftware,KiCad,Pcbnew,8.0.7-8.0.7-0~ubuntu22.04.1*%
%TF.CreationDate,2025-01-06T16:11:52+01:00*%
%TF.ProjectId,crack_monitoring_minimal,63726163-6b5f-46d6-9f6e-69746f72696e,rev?*%
%TF.SameCoordinates,Original*%
%TF.FileFunction,Legend,Top*%
%TF.FilePolarity,Positive*%
%FSLAX46Y46*%
G04 Gerber Fmt 4.6, Leading zero omitted, Abs format (unit mm)*
G04 Created by KiCad (PCBNEW 8.0.7-8.0.7-0~ubuntu22.04.1) date 2025-01-06 16:11:52*
%MOMM*%
%LPD*%
G01*
G04 APERTURE LIST*
%ADD10C,0.150000*%
%ADD11C,0.100000*%
%ADD12C,0.120000*%
G04 APERTURE END LIST*
D10*
X165988866Y-84663220D02*
X165988866Y-83901316D01*
X166369819Y-84282268D02*
X165607914Y-84282268D01*
X168322200Y-63210839D02*
X168369819Y-63067982D01*
X168369819Y-63067982D02*
X168369819Y-62829887D01*
X168369819Y-62829887D02*
X168322200Y-62734649D01*
X168322200Y-62734649D02*
X168274580Y-62687030D01*
X168274580Y-62687030D02*
X168179342Y-62639411D01*
X168179342Y-62639411D02*
X168084104Y-62639411D01*
X168084104Y-62639411D02*
X167988866Y-62687030D01*
X167988866Y-62687030D02*
X167941247Y-62734649D01*
X167941247Y-62734649D02*
X167893628Y-62829887D01*
X167893628Y-62829887D02*
X167846009Y-63020363D01*
X167846009Y-63020363D02*
X167798390Y-63115601D01*
X167798390Y-63115601D02*
X167750771Y-63163220D01*
X167750771Y-63163220D02*
X167655533Y-63210839D01*
X167655533Y-63210839D02*
X167560295Y-63210839D01*
X167560295Y-63210839D02*
X167465057Y-63163220D01*
X167465057Y-63163220D02*
X167417438Y-63115601D01*
X167417438Y-63115601D02*
X167369819Y-63020363D01*
X167369819Y-63020363D02*
X167369819Y-62782268D01*
X167369819Y-62782268D02*
X167417438Y-62639411D01*
X168369819Y-62210839D02*
X167369819Y-62210839D01*
X167369819Y-62210839D02*
X167369819Y-61972744D01*
X167369819Y-61972744D02*
X167417438Y-61829887D01*
X167417438Y-61829887D02*
X167512676Y-61734649D01*
X167512676Y-61734649D02*
X167607914Y-61687030D01*
X167607914Y-61687030D02*
X167798390Y-61639411D01*
X167798390Y-61639411D02*
X167941247Y-61639411D01*
X167941247Y-61639411D02*
X168131723Y-61687030D01*
X168131723Y-61687030D02*
X168226961Y-61734649D01*
X168226961Y-61734649D02*
X168322200Y-61829887D01*
X168322200Y-61829887D02*
X168369819Y-61972744D01*
X168369819Y-61972744D02*
X168369819Y-62210839D01*
X168084104Y-61258458D02*
X168084104Y-60782268D01*
X168369819Y-61353696D02*
X167369819Y-61020363D01*
X167369819Y-61020363D02*
X168369819Y-60687030D01*
X147408207Y-68274580D02*
X147360588Y-68322200D01*
X147360588Y-68322200D02*
X147217731Y-68369819D01*
X147217731Y-68369819D02*
X147122493Y-68369819D01*
X147122493Y-68369819D02*
X146979636Y-68322200D01*
X146979636Y-68322200D02*
X146884398Y-68226961D01*
X146884398Y-68226961D02*
X146836779Y-68131723D01*
X146836779Y-68131723D02*
X146789160Y-67941247D01*
X146789160Y-67941247D02*
X146789160Y-67798390D01*
X146789160Y-67798390D02*
X146836779Y-67607914D01*
X146836779Y-67607914D02*
X146884398Y-67512676D01*
X146884398Y-67512676D02*
X146979636Y-67417438D01*
X146979636Y-67417438D02*
X147122493Y-67369819D01*
X147122493Y-67369819D02*
X147217731Y-67369819D01*
X147217731Y-67369819D02*
X147360588Y-67417438D01*
X147360588Y-67417438D02*
X147408207Y-67465057D01*
X148408207Y-68274580D02*
X148360588Y-68322200D01*
X148360588Y-68322200D02*
X148217731Y-68369819D01*
X148217731Y-68369819D02*
X148122493Y-68369819D01*
X148122493Y-68369819D02*
X147979636Y-68322200D01*
X147979636Y-68322200D02*
X147884398Y-68226961D01*
X147884398Y-68226961D02*
X147836779Y-68131723D01*
X147836779Y-68131723D02*
X147789160Y-67941247D01*
X147789160Y-67941247D02*
X147789160Y-67798390D01*
X147789160Y-67798390D02*
X147836779Y-67607914D01*
X147836779Y-67607914D02*
X147884398Y-67512676D01*
X147884398Y-67512676D02*
X147979636Y-67417438D01*
X147979636Y-67417438D02*
X148122493Y-67369819D01*
X148122493Y-67369819D02*
X148217731Y-67369819D01*
X148217731Y-67369819D02*
X148360588Y-67417438D01*
X148360588Y-67417438D02*
X148408207Y-67465057D01*
X148741541Y-67369819D02*
X148979636Y-68369819D01*
X148979636Y-68369819D02*
X149170112Y-67655533D01*
X149170112Y-67655533D02*
X149360588Y-68369819D01*
X149360588Y-68369819D02*
X149598684Y-67369819D01*
X144408207Y-68274580D02*
X144360588Y-68322200D01*
X144360588Y-68322200D02*
X144217731Y-68369819D01*
X144217731Y-68369819D02*
X144122493Y-68369819D01*
X144122493Y-68369819D02*
X143979636Y-68322200D01*
X143979636Y-68322200D02*
X143884398Y-68226961D01*
X143884398Y-68226961D02*
X143836779Y-68131723D01*
X143836779Y-68131723D02*
X143789160Y-67941247D01*
X143789160Y-67941247D02*
X143789160Y-67798390D01*
X143789160Y-67798390D02*
X143836779Y-67607914D01*
X143836779Y-67607914D02*
X143884398Y-67512676D01*
X143884398Y-67512676D02*
X143979636Y-67417438D01*
X143979636Y-67417438D02*
X144122493Y-67369819D01*
X144122493Y-67369819D02*
X144217731Y-67369819D01*
X144217731Y-67369819D02*
X144360588Y-67417438D01*
X144360588Y-67417438D02*
X144408207Y-67465057D01*
X144741541Y-67369819D02*
X144979636Y-68369819D01*
X144979636Y-68369819D02*
X145170112Y-67655533D01*
X145170112Y-67655533D02*
X145360588Y-68369819D01*
X145360588Y-68369819D02*
X145598684Y-67369819D01*
X167369819Y-66258458D02*
X167369819Y-65639411D01*
X167369819Y-65639411D02*
X167750771Y-65972744D01*
X167750771Y-65972744D02*
X167750771Y-65829887D01*
X167750771Y-65829887D02*
X167798390Y-65734649D01*
X167798390Y-65734649D02*
X167846009Y-65687030D01*
X167846009Y-65687030D02*
X167941247Y-65639411D01*
X167941247Y-65639411D02*
X168179342Y-65639411D01*
X168179342Y-65639411D02*
X168274580Y-65687030D01*
X168274580Y-65687030D02*
X168322200Y-65734649D01*
X168322200Y-65734649D02*
X168369819Y-65829887D01*
X168369819Y-65829887D02*
X168369819Y-66115601D01*
X168369819Y-66115601D02*
X168322200Y-66210839D01*
X168322200Y-66210839D02*
X168274580Y-66258458D01*
X167369819Y-65353696D02*
X168369819Y-65020363D01*
X168369819Y-65020363D02*
X167369819Y-64687030D01*
X167369819Y-64448934D02*
X167369819Y-63829887D01*
X167369819Y-63829887D02*
X167750771Y-64163220D01*
X167750771Y-64163220D02*
X167750771Y-64020363D01*
X167750771Y-64020363D02*
X167798390Y-63925125D01*
X167798390Y-63925125D02*
X167846009Y-63877506D01*
X167846009Y-63877506D02*
X167941247Y-63829887D01*
X167941247Y-63829887D02*
X168179342Y-63829887D01*
X168179342Y-63829887D02*
X168274580Y-63877506D01*
X168274580Y-63877506D02*
X168322200Y-63925125D01*
X168322200Y-63925125D02*
X168369819Y-64020363D01*
X168369819Y-64020363D02*
X168369819Y-64306077D01*
X168369819Y-64306077D02*
X168322200Y-64401315D01*
X168322200Y-64401315D02*
X168274580Y-64448934D01*
X168322200Y-59710839D02*
X168369819Y-59567982D01*
X168369819Y-59567982D02*
X168369819Y-59329887D01*
X168369819Y-59329887D02*
X168322200Y-59234649D01*
X168322200Y-59234649D02*
X168274580Y-59187030D01*
X168274580Y-59187030D02*
X168179342Y-59139411D01*
X168179342Y-59139411D02*
X168084104Y-59139411D01*
X168084104Y-59139411D02*
X167988866Y-59187030D01*
X167988866Y-59187030D02*
X167941247Y-59234649D01*
X167941247Y-59234649D02*
X167893628Y-59329887D01*
X167893628Y-59329887D02*
X167846009Y-59520363D01*
X167846009Y-59520363D02*
X167798390Y-59615601D01*
X167798390Y-59615601D02*
X167750771Y-59663220D01*
X167750771Y-59663220D02*
X167655533Y-59710839D01*
X167655533Y-59710839D02*
X167560295Y-59710839D01*
X167560295Y-59710839D02*
X167465057Y-59663220D01*
X167465057Y-59663220D02*
X167417438Y-59615601D01*
X167417438Y-59615601D02*
X167369819Y-59520363D01*
X167369819Y-59520363D02*
X167369819Y-59282268D01*
X167369819Y-59282268D02*
X167417438Y-59139411D01*
X168274580Y-58139411D02*
X168322200Y-58187030D01*
X168322200Y-58187030D02*
X168369819Y-58329887D01*
X168369819Y-58329887D02*
X168369819Y-58425125D01*
X168369819Y-58425125D02*
X168322200Y-58567982D01*
X168322200Y-58567982D02*
X168226961Y-58663220D01*
X168226961Y-58663220D02*
X168131723Y-58710839D01*
X168131723Y-58710839D02*
X167941247Y-58758458D01*
X167941247Y-58758458D02*
X167798390Y-58758458D01*
X167798390Y-58758458D02*
X167607914Y-58710839D01*
X167607914Y-58710839D02*
X167512676Y-58663220D01*
X167512676Y-58663220D02*
X167417438Y-58567982D01*
X167417438Y-58567982D02*
X167369819Y-58425125D01*
X167369819Y-58425125D02*
X167369819Y-58329887D01*
X167369819Y-58329887D02*
X167417438Y-58187030D01*
X167417438Y-58187030D02*
X167465057Y-58139411D01*
X168369819Y-57234649D02*
X168369819Y-57710839D01*
X168369819Y-57710839D02*
X167369819Y-57710839D01*
X167417438Y-69139411D02*
X167369819Y-69234649D01*
X167369819Y-69234649D02*
X167369819Y-69377506D01*
X167369819Y-69377506D02*
X167417438Y-69520363D01*
X167417438Y-69520363D02*
X167512676Y-69615601D01*
X167512676Y-69615601D02*
X167607914Y-69663220D01*
X167607914Y-69663220D02*
X167798390Y-69710839D01*
X167798390Y-69710839D02*
X167941247Y-69710839D01*
X167941247Y-69710839D02*
X168131723Y-69663220D01*
X168131723Y-69663220D02*
X168226961Y-69615601D01*
X168226961Y-69615601D02*
X168322200Y-69520363D01*
X168322200Y-69520363D02*
X168369819Y-69377506D01*
X168369819Y-69377506D02*
X168369819Y-69282268D01*
X168369819Y-69282268D02*
X168322200Y-69139411D01*
X168322200Y-69139411D02*
X168274580Y-69091792D01*
X168274580Y-69091792D02*
X167941247Y-69091792D01*
X167941247Y-69091792D02*
X167941247Y-69282268D01*
X168369819Y-68663220D02*
X167369819Y-68663220D01*
X167369819Y-68663220D02*
X168369819Y-68091792D01*
X168369819Y-68091792D02*
X167369819Y-68091792D01*
X168369819Y-67615601D02*
X167369819Y-67615601D01*
X167369819Y-67615601D02*
X167369819Y-67377506D01*
X167369819Y-67377506D02*
X167417438Y-67234649D01*
X167417438Y-67234649D02*
X167512676Y-67139411D01*
X167512676Y-67139411D02*
X167607914Y-67091792D01*
X167607914Y-67091792D02*
X167798390Y-67044173D01*
X167798390Y-67044173D02*
X167941247Y-67044173D01*
X167941247Y-67044173D02*
X168131723Y-67091792D01*
X168131723Y-67091792D02*
X168226961Y-67139411D01*
X168226961Y-67139411D02*
X168322200Y-67234649D01*
X168322200Y-67234649D02*
X168369819Y-67377506D01*
X168369819Y-67377506D02*
X168369819Y-67615601D01*
X167417438Y-80139411D02*
X167369819Y-80234649D01*
X167369819Y-80234649D02*
X167369819Y-80377506D01*
X167369819Y-80377506D02*
X167417438Y-80520363D01*
X167417438Y-80520363D02*
X167512676Y-80615601D01*
X167512676Y-80615601D02*
X167607914Y-80663220D01*
X167607914Y-80663220D02*
X167798390Y-80710839D01*
X167798390Y-80710839D02*
X167941247Y-80710839D01*
X167941247Y-80710839D02*
X168131723Y-80663220D01*
X168131723Y-80663220D02*
X168226961Y-80615601D01*
X168226961Y-80615601D02*
X168322200Y-80520363D01*
X168322200Y-80520363D02*
X168369819Y-80377506D01*
X168369819Y-80377506D02*
X168369819Y-80282268D01*
X168369819Y-80282268D02*
X168322200Y-80139411D01*
X168322200Y-80139411D02*
X168274580Y-80091792D01*
X168274580Y-80091792D02*
X167941247Y-80091792D01*
X167941247Y-80091792D02*
X167941247Y-80282268D01*
X168369819Y-79663220D02*
X167369819Y-79663220D01*
X167369819Y-79663220D02*
X168369819Y-79091792D01*
X168369819Y-79091792D02*
X167369819Y-79091792D01*
X168369819Y-78615601D02*
X167369819Y-78615601D01*
X167369819Y-78615601D02*
X167369819Y-78377506D01*
X167369819Y-78377506D02*
X167417438Y-78234649D01*
X167417438Y-78234649D02*
X167512676Y-78139411D01*
X167512676Y-78139411D02*
X167607914Y-78091792D01*
X167607914Y-78091792D02*
X167798390Y-78044173D01*
X167798390Y-78044173D02*
X167941247Y-78044173D01*
X167941247Y-78044173D02*
X168131723Y-78091792D01*
X168131723Y-78091792D02*
X168226961Y-78139411D01*
X168226961Y-78139411D02*
X168322200Y-78234649D01*
X168322200Y-78234649D02*
X168369819Y-78377506D01*
X168369819Y-78377506D02*
X168369819Y-78615601D01*
X148836779Y-92488866D02*
X149598684Y-92488866D01*
X170988866Y-83663220D02*
X170988866Y-82901316D01*
X171369819Y-83282268D02*
X170607914Y-83282268D01*
X167369819Y-77258458D02*
X167369819Y-76639411D01*
X167369819Y-76639411D02*
X167750771Y-76972744D01*
X167750771Y-76972744D02*
X167750771Y-76829887D01*
X167750771Y-76829887D02*
X167798390Y-76734649D01*
X167798390Y-76734649D02*
X167846009Y-76687030D01*
X167846009Y-76687030D02*
X167941247Y-76639411D01*
X167941247Y-76639411D02*
X168179342Y-76639411D01*
X168179342Y-76639411D02*
X168274580Y-76687030D01*
X168274580Y-76687030D02*
X168322200Y-76734649D01*
X168322200Y-76734649D02*
X168369819Y-76829887D01*
X168369819Y-76829887D02*
X168369819Y-77115601D01*
X168369819Y-77115601D02*
X168322200Y-77210839D01*
X168322200Y-77210839D02*
X168274580Y-77258458D01*
X167369819Y-76353696D02*
X168369819Y-76020363D01*
X168369819Y-76020363D02*
X167369819Y-75687030D01*
X167369819Y-75448934D02*
X167369819Y-74829887D01*
X167369819Y-74829887D02*
X167750771Y-75163220D01*
X167750771Y-75163220D02*
X167750771Y-75020363D01*
X167750771Y-75020363D02*
X167798390Y-74925125D01*
X167798390Y-74925125D02*
X167846009Y-74877506D01*
X167846009Y-74877506D02*
X167941247Y-74829887D01*
X167941247Y-74829887D02*
X168179342Y-74829887D01*
X168179342Y-74829887D02*
X168274580Y-74877506D01*
X168274580Y-74877506D02*
X168322200Y-74925125D01*
X168322200Y-74925125D02*
X168369819Y-75020363D01*
X168369819Y-75020363D02*
X168369819Y-75306077D01*
X168369819Y-75306077D02*
X168322200Y-75401315D01*
X168322200Y-75401315D02*
X168274580Y-75448934D01*
X134360588Y-52917438D02*
X134265350Y-52869819D01*
X134265350Y-52869819D02*
X134122493Y-52869819D01*
X134122493Y-52869819D02*
X133979636Y-52917438D01*
X133979636Y-52917438D02*
X133884398Y-53012676D01*
X133884398Y-53012676D02*
X133836779Y-53107914D01*
X133836779Y-53107914D02*
X133789160Y-53298390D01*
X133789160Y-53298390D02*
X133789160Y-53441247D01*
X133789160Y-53441247D02*
X133836779Y-53631723D01*
X133836779Y-53631723D02*
X133884398Y-53726961D01*
X133884398Y-53726961D02*
X133979636Y-53822200D01*
X133979636Y-53822200D02*
X134122493Y-53869819D01*
X134122493Y-53869819D02*
X134217731Y-53869819D01*
X134217731Y-53869819D02*
X134360588Y-53822200D01*
X134360588Y-53822200D02*
X134408207Y-53774580D01*
X134408207Y-53774580D02*
X134408207Y-53441247D01*
X134408207Y-53441247D02*
X134217731Y-53441247D01*
X134836779Y-53869819D02*
X134836779Y-52869819D01*
X134836779Y-52869819D02*
X135408207Y-53869819D01*
X135408207Y-53869819D02*
X135408207Y-52869819D01*
X135884398Y-53869819D02*
X135884398Y-52869819D01*
X135884398Y-52869819D02*
X136122493Y-52869819D01*
X136122493Y-52869819D02*
X136265350Y-52917438D01*
X136265350Y-52917438D02*
X136360588Y-53012676D01*
X136360588Y-53012676D02*
X136408207Y-53107914D01*
X136408207Y-53107914D02*
X136455826Y-53298390D01*
X136455826Y-53298390D02*
X136455826Y-53441247D01*
X136455826Y-53441247D02*
X136408207Y-53631723D01*
X136408207Y-53631723D02*
X136360588Y-53726961D01*
X136360588Y-53726961D02*
X136265350Y-53822200D01*
X136265350Y-53822200D02*
X136122493Y-53869819D01*
X136122493Y-53869819D02*
X135884398Y-53869819D01*
X168369819Y-73639411D02*
X168369819Y-74210839D01*
X168369819Y-73925125D02*
X167369819Y-73925125D01*
X167369819Y-73925125D02*
X167512676Y-74020363D01*
X167512676Y-74020363D02*
X167607914Y-74115601D01*
X167607914Y-74115601D02*
X167655533Y-74210839D01*
X167369819Y-73306077D02*
X168369819Y-73067982D01*
X168369819Y-73067982D02*
X167655533Y-72877506D01*
X167655533Y-72877506D02*
X168369819Y-72687030D01*
X168369819Y-72687030D02*
X167369819Y-72448935D01*
X168369819Y-72067982D02*
X167703152Y-72067982D01*
X167369819Y-72067982D02*
X167417438Y-72115601D01*
X167417438Y-72115601D02*
X167465057Y-72067982D01*
X167465057Y-72067982D02*
X167417438Y-72020363D01*
X167417438Y-72020363D02*
X167369819Y-72067982D01*
X167369819Y-72067982D02*
X167465057Y-72067982D01*
X168369819Y-71591792D02*
X167703152Y-71591792D01*
X167893628Y-71591792D02*
X167798390Y-71544173D01*
X167798390Y-71544173D02*
X167750771Y-71496554D01*
X167750771Y-71496554D02*
X167703152Y-71401316D01*
X167703152Y-71401316D02*
X167703152Y-71306078D01*
X168322200Y-70591792D02*
X168369819Y-70687030D01*
X168369819Y-70687030D02*
X168369819Y-70877506D01*
X168369819Y-70877506D02*
X168322200Y-70972744D01*
X168322200Y-70972744D02*
X168226961Y-71020363D01*
X168226961Y-71020363D02*
X167846009Y-71020363D01*
X167846009Y-71020363D02*
X167750771Y-70972744D01*
X167750771Y-70972744D02*
X167703152Y-70877506D01*
X167703152Y-70877506D02*
X167703152Y-70687030D01*
X167703152Y-70687030D02*
X167750771Y-70591792D01*
X167750771Y-70591792D02*
X167846009Y-70544173D01*
X167846009Y-70544173D02*
X167941247Y-70544173D01*
X167941247Y-70544173D02*
X168036485Y-71020363D01*
X164360588Y-52917438D02*
X164265350Y-52869819D01*
X164265350Y-52869819D02*
X164122493Y-52869819D01*
X164122493Y-52869819D02*
X163979636Y-52917438D01*
X163979636Y-52917438D02*
X163884398Y-53012676D01*
X163884398Y-53012676D02*
X163836779Y-53107914D01*
X163836779Y-53107914D02*
X163789160Y-53298390D01*
X163789160Y-53298390D02*
X163789160Y-53441247D01*
X163789160Y-53441247D02*
X163836779Y-53631723D01*
X163836779Y-53631723D02*
X163884398Y-53726961D01*
X163884398Y-53726961D02*
X163979636Y-53822200D01*
X163979636Y-53822200D02*
X164122493Y-53869819D01*
X164122493Y-53869819D02*
X164217731Y-53869819D01*
X164217731Y-53869819D02*
X164360588Y-53822200D01*
X164360588Y-53822200D02*
X164408207Y-53774580D01*
X164408207Y-53774580D02*
X164408207Y-53441247D01*
X164408207Y-53441247D02*
X164217731Y-53441247D01*
X164836779Y-53869819D02*
X164836779Y-52869819D01*
X164836779Y-52869819D02*
X165408207Y-53869819D01*
X165408207Y-53869819D02*
X165408207Y-52869819D01*
X165884398Y-53869819D02*
X165884398Y-52869819D01*
X165884398Y-52869819D02*
X166122493Y-52869819D01*
X166122493Y-52869819D02*
X166265350Y-52917438D01*
X166265350Y-52917438D02*
X166360588Y-53012676D01*
X166360588Y-53012676D02*
X166408207Y-53107914D01*
X166408207Y-53107914D02*
X166455826Y-53298390D01*
X166455826Y-53298390D02*
X166455826Y-53441247D01*
X166455826Y-53441247D02*
X166408207Y-53631723D01*
X166408207Y-53631723D02*
X166360588Y-53726961D01*
X166360588Y-53726961D02*
X166265350Y-53822200D01*
X166265350Y-53822200D02*
X166122493Y-53869819D01*
X166122493Y-53869819D02*
X165884398Y-53869819D01*
X146289160Y-79084104D02*
X146765350Y-79084104D01*
X146193922Y-79369819D02*
X146527255Y-78369819D01*
X146527255Y-78369819D02*
X146860588Y-79369819D01*
X147193922Y-79369819D02*
X147193922Y-78369819D01*
X147193922Y-78369819D02*
X147432017Y-78369819D01*
X147432017Y-78369819D02*
X147574874Y-78417438D01*
X147574874Y-78417438D02*
X147670112Y-78512676D01*
X147670112Y-78512676D02*
X147717731Y-78607914D01*
X147717731Y-78607914D02*
X147765350Y-78798390D01*
X147765350Y-78798390D02*
X147765350Y-78941247D01*
X147765350Y-78941247D02*
X147717731Y-79131723D01*
X147717731Y-79131723D02*
X147670112Y-79226961D01*
X147670112Y-79226961D02*
X147574874Y-79322200D01*
X147574874Y-79322200D02*
X147432017Y-79369819D01*
X147432017Y-79369819D02*
X147193922Y-79369819D01*
X148193922Y-79369819D02*
X148193922Y-78369819D01*
X148193922Y-78369819D02*
X148432017Y-78369819D01*
X148432017Y-78369819D02*
X148574874Y-78417438D01*
X148574874Y-78417438D02*
X148670112Y-78512676D01*
X148670112Y-78512676D02*
X148717731Y-78607914D01*
X148717731Y-78607914D02*
X148765350Y-78798390D01*
X148765350Y-78798390D02*
X148765350Y-78941247D01*
X148765350Y-78941247D02*
X148717731Y-79131723D01*
X148717731Y-79131723D02*
X148670112Y-79226961D01*
X148670112Y-79226961D02*
X148574874Y-79322200D01*
X148574874Y-79322200D02*
X148432017Y-79369819D01*
X148432017Y-79369819D02*
X148193922Y-79369819D01*
X149765350Y-79369819D02*
X149432017Y-78893628D01*
X149193922Y-79369819D02*
X149193922Y-78369819D01*
X149193922Y-78369819D02*
X149574874Y-78369819D01*
X149574874Y-78369819D02*
X149670112Y-78417438D01*
X149670112Y-78417438D02*
X149717731Y-78465057D01*
X149717731Y-78465057D02*
X149765350Y-78560295D01*
X149765350Y-78560295D02*
X149765350Y-78703152D01*
X149765350Y-78703152D02*
X149717731Y-78798390D01*
X149717731Y-78798390D02*
X149670112Y-78846009D01*
X149670112Y-78846009D02*
X149574874Y-78893628D01*
X149574874Y-78893628D02*
X149193922Y-78893628D01*
X150193922Y-79274580D02*
X150241541Y-79322200D01*
X150241541Y-79322200D02*
X150193922Y-79369819D01*
X150193922Y-79369819D02*
X150146303Y-79322200D01*
X150146303Y-79322200D02*
X150193922Y-79274580D01*
X150193922Y-79274580D02*
X150193922Y-79369819D01*
X150193922Y-78750771D02*
X150241541Y-78798390D01*
X150241541Y-78798390D02*
X150193922Y-78846009D01*
X150193922Y-78846009D02*
X150146303Y-78798390D01*
X150146303Y-78798390D02*
X150193922Y-78750771D01*
X150193922Y-78750771D02*
X150193922Y-78846009D01*
X151622493Y-78369819D02*
X151717731Y-78369819D01*
X151717731Y-78369819D02*
X151812969Y-78417438D01*
X151812969Y-78417438D02*
X151860588Y-78465057D01*
X151860588Y-78465057D02*
X151908207Y-78560295D01*
X151908207Y-78560295D02*
X151955826Y-78750771D01*
X151955826Y-78750771D02*
X151955826Y-78988866D01*
X151955826Y-78988866D02*
X151908207Y-79179342D01*
X151908207Y-79179342D02*
X151860588Y-79274580D01*
X151860588Y-79274580D02*
X151812969Y-79322200D01*
X151812969Y-79322200D02*
X151717731Y-79369819D01*
X151717731Y-79369819D02*
X151622493Y-79369819D01*
X151622493Y-79369819D02*
X151527255Y-79322200D01*
X151527255Y-79322200D02*
X151479636Y-79274580D01*
X151479636Y-79274580D02*
X151432017Y-79179342D01*
X151432017Y-79179342D02*
X151384398Y-78988866D01*
X151384398Y-78988866D02*
X151384398Y-78750771D01*
X151384398Y-78750771D02*
X151432017Y-78560295D01*
X151432017Y-78560295D02*
X151479636Y-78465057D01*
X151479636Y-78465057D02*
X151527255Y-78417438D01*
X151527255Y-78417438D02*
X151622493Y-78369819D01*
X152289160Y-79369819D02*
X152812969Y-78703152D01*
X152289160Y-78703152D02*
X152812969Y-79369819D01*
X153098684Y-78369819D02*
X153717731Y-78369819D01*
X153717731Y-78369819D02*
X153384398Y-78750771D01*
X153384398Y-78750771D02*
X153527255Y-78750771D01*
X153527255Y-78750771D02*
X153622493Y-78798390D01*
X153622493Y-78798390D02*
X153670112Y-78846009D01*
X153670112Y-78846009D02*
X153717731Y-78941247D01*
X153717731Y-78941247D02*
X153717731Y-79179342D01*
X153717731Y-79179342D02*
X153670112Y-79274580D01*
X153670112Y-79274580D02*
X153622493Y-79322200D01*
X153622493Y-79322200D02*
X153527255Y-79369819D01*
X153527255Y-79369819D02*
X153241541Y-79369819D01*
X153241541Y-79369819D02*
X153146303Y-79322200D01*
X153146303Y-79322200D02*
X153098684Y-79274580D01*
X154574874Y-78369819D02*
X154384398Y-78369819D01*
X154384398Y-78369819D02*
X154289160Y-78417438D01*
X154289160Y-78417438D02*
X154241541Y-78465057D01*
X154241541Y-78465057D02*
X154146303Y-78607914D01*
X154146303Y-78607914D02*
X154098684Y-78798390D01*
X154098684Y-78798390D02*
X154098684Y-79179342D01*
X154098684Y-79179342D02*
X154146303Y-79274580D01*
X154146303Y-79274580D02*
X154193922Y-79322200D01*
X154193922Y-79322200D02*
X154289160Y-79369819D01*
X154289160Y-79369819D02*
X154479636Y-79369819D01*
X154479636Y-79369819D02*
X154574874Y-79322200D01*
X154574874Y-79322200D02*
X154622493Y-79274580D01*
X154622493Y-79274580D02*
X154670112Y-79179342D01*
X154670112Y-79179342D02*
X154670112Y-78941247D01*
X154670112Y-78941247D02*
X154622493Y-78846009D01*
X154622493Y-78846009D02*
X154574874Y-78798390D01*
X154574874Y-78798390D02*
X154479636Y-78750771D01*
X154479636Y-78750771D02*
X154289160Y-78750771D01*
X154289160Y-78750771D02*
X154193922Y-78798390D01*
X154193922Y-78798390D02*
X154146303Y-78846009D01*
X154146303Y-78846009D02*
X154098684Y-78941247D01*
X127789160Y-67584104D02*
X128265350Y-67584104D01*
X127693922Y-67869819D02*
X128027255Y-66869819D01*
X128027255Y-66869819D02*
X128360588Y-67869819D01*
X128693922Y-67869819D02*
X128693922Y-66869819D01*
X128693922Y-66869819D02*
X128932017Y-66869819D01*
X128932017Y-66869819D02*
X129074874Y-66917438D01*
X129074874Y-66917438D02*
X129170112Y-67012676D01*
X129170112Y-67012676D02*
X129217731Y-67107914D01*
X129217731Y-67107914D02*
X129265350Y-67298390D01*
X129265350Y-67298390D02*
X129265350Y-67441247D01*
X129265350Y-67441247D02*
X129217731Y-67631723D01*
X129217731Y-67631723D02*
X129170112Y-67726961D01*
X129170112Y-67726961D02*
X129074874Y-67822200D01*
X129074874Y-67822200D02*
X128932017Y-67869819D01*
X128932017Y-67869819D02*
X128693922Y-67869819D01*
X129693922Y-67869819D02*
X129693922Y-66869819D01*
X129693922Y-66869819D02*
X129932017Y-66869819D01*
X129932017Y-66869819D02*
X130074874Y-66917438D01*
X130074874Y-66917438D02*
X130170112Y-67012676D01*
X130170112Y-67012676D02*
X130217731Y-67107914D01*
X130217731Y-67107914D02*
X130265350Y-67298390D01*
X130265350Y-67298390D02*
X130265350Y-67441247D01*
X130265350Y-67441247D02*
X130217731Y-67631723D01*
X130217731Y-67631723D02*
X130170112Y-67726961D01*
X130170112Y-67726961D02*
X130074874Y-67822200D01*
X130074874Y-67822200D02*
X129932017Y-67869819D01*
X129932017Y-67869819D02*
X129693922Y-67869819D01*
X131265350Y-67869819D02*
X130932017Y-67393628D01*
X130693922Y-67869819D02*
X130693922Y-66869819D01*
X130693922Y-66869819D02*
X131074874Y-66869819D01*
X131074874Y-66869819D02*
X131170112Y-66917438D01*
X131170112Y-66917438D02*
X131217731Y-66965057D01*
X131217731Y-66965057D02*
X131265350Y-67060295D01*
X131265350Y-67060295D02*
X131265350Y-67203152D01*
X131265350Y-67203152D02*
X131217731Y-67298390D01*
X131217731Y-67298390D02*
X131170112Y-67346009D01*
X131170112Y-67346009D02*
X131074874Y-67393628D01*
X131074874Y-67393628D02*
X130693922Y-67393628D01*
X131693922Y-67774580D02*
X131741541Y-67822200D01*
X131741541Y-67822200D02*
X131693922Y-67869819D01*
X131693922Y-67869819D02*
X131646303Y-67822200D01*
X131646303Y-67822200D02*
X131693922Y-67774580D01*
X131693922Y-67774580D02*
X131693922Y-67869819D01*
X131693922Y-67250771D02*
X131741541Y-67298390D01*
X131741541Y-67298390D02*
X131693922Y-67346009D01*
X131693922Y-67346009D02*
X131646303Y-67298390D01*
X131646303Y-67298390D02*
X131693922Y-67250771D01*
X131693922Y-67250771D02*
X131693922Y-67346009D01*
X133122493Y-66869819D02*
X133217731Y-66869819D01*
X133217731Y-66869819D02*
X133312969Y-66917438D01*
X133312969Y-66917438D02*
X133360588Y-66965057D01*
X133360588Y-66965057D02*
X133408207Y-67060295D01*
X133408207Y-67060295D02*
X133455826Y-67250771D01*
X133455826Y-67250771D02*
X133455826Y-67488866D01*
X133455826Y-67488866D02*
X133408207Y-67679342D01*
X133408207Y-67679342D02*
X133360588Y-67774580D01*
X133360588Y-67774580D02*
X133312969Y-67822200D01*
X133312969Y-67822200D02*
X133217731Y-67869819D01*
X133217731Y-67869819D02*
X133122493Y-67869819D01*
X133122493Y-67869819D02*
X133027255Y-67822200D01*
X133027255Y-67822200D02*
X132979636Y-67774580D01*
X132979636Y-67774580D02*
X132932017Y-67679342D01*
X132932017Y-67679342D02*
X132884398Y-67488866D01*
X132884398Y-67488866D02*
X132884398Y-67250771D01*
X132884398Y-67250771D02*
X132932017Y-67060295D01*
X132932017Y-67060295D02*
X132979636Y-66965057D01*
X132979636Y-66965057D02*
X133027255Y-66917438D01*
X133027255Y-66917438D02*
X133122493Y-66869819D01*
X133789160Y-67869819D02*
X134312969Y-67203152D01*
X133789160Y-67203152D02*
X134312969Y-67869819D01*
X135217731Y-67869819D02*
X134646303Y-67869819D01*
X134932017Y-67869819D02*
X134932017Y-66869819D01*
X134932017Y-66869819D02*
X134836779Y-67012676D01*
X134836779Y-67012676D02*
X134741541Y-67107914D01*
X134741541Y-67107914D02*
X134646303Y-67155533D01*
X135979636Y-67346009D02*
X135646303Y-67346009D01*
X135646303Y-67869819D02*
X135646303Y-66869819D01*
X135646303Y-66869819D02*
X136122493Y-66869819D01*
X151336779Y-92488866D02*
X152098684Y-92488866D01*
X151717731Y-92869819D02*
X151717731Y-92107914D01*
X165488866Y-92163220D02*
X165488866Y-91401316D01*
X170988866Y-92163220D02*
X170988866Y-91401316D01*
X157809523Y-70788152D02*
X157809523Y-71454819D01*
X157571428Y-70407200D02*
X157333333Y-71121485D01*
X157333333Y-71121485D02*
X157952380Y-71121485D01*
X158333333Y-71454819D02*
X158333333Y-70454819D01*
X158428571Y-71073866D02*
X158714285Y-71454819D01*
X158714285Y-70788152D02*
X158333333Y-71169104D01*
X159047619Y-70454819D02*
X159714285Y-70454819D01*
X159714285Y-70454819D02*
X159285714Y-71454819D01*
X165359580Y-70166666D02*
X165407200Y-70214285D01*
X165407200Y-70214285D02*
X165454819Y-70357142D01*
X165454819Y-70357142D02*
X165454819Y-70452380D01*
X165454819Y-70452380D02*
X165407200Y-70595237D01*
X165407200Y-70595237D02*
X165311961Y-70690475D01*
X165311961Y-70690475D02*
X165216723Y-70738094D01*
X165216723Y-70738094D02*
X165026247Y-70785713D01*
X165026247Y-70785713D02*
X164883390Y-70785713D01*
X164883390Y-70785713D02*
X164692914Y-70738094D01*
X164692914Y-70738094D02*
X164597676Y-70690475D01*
X164597676Y-70690475D02*
X164502438Y-70595237D01*
X164502438Y-70595237D02*
X164454819Y-70452380D01*
X164454819Y-70452380D02*
X164454819Y-70357142D01*
X164454819Y-70357142D02*
X164502438Y-70214285D01*
X164502438Y-70214285D02*
X164550057Y-70166666D01*
X164550057Y-69785713D02*
X164502438Y-69738094D01*
X164502438Y-69738094D02*
X164454819Y-69642856D01*
X164454819Y-69642856D02*
X164454819Y-69404761D01*
X164454819Y-69404761D02*
X164502438Y-69309523D01*
X164502438Y-69309523D02*
X164550057Y-69261904D01*
X164550057Y-69261904D02*
X164645295Y-69214285D01*
X164645295Y-69214285D02*
X164740533Y-69214285D01*
X164740533Y-69214285D02*
X164883390Y-69261904D01*
X164883390Y-69261904D02*
X165454819Y-69833332D01*
X165454819Y-69833332D02*
X165454819Y-69214285D01*
X158333333Y-76454819D02*
X158000000Y-75978628D01*
X157761905Y-76454819D02*
X157761905Y-75454819D01*
X157761905Y-75454819D02*
X158142857Y-75454819D01*
X158142857Y-75454819D02*
X158238095Y-75502438D01*
X158238095Y-75502438D02*
X158285714Y-75550057D01*
X158285714Y-75550057D02*
X158333333Y-75645295D01*
X158333333Y-75645295D02*
X158333333Y-75788152D01*
X158333333Y-75788152D02*
X158285714Y-75883390D01*
X158285714Y-75883390D02*
X158238095Y-75931009D01*
X158238095Y-75931009D02*
X158142857Y-75978628D01*
X158142857Y-75978628D02*
X157761905Y-75978628D01*
X159285714Y-76454819D02*
X158714286Y-76454819D01*
X159000000Y-76454819D02*
X159000000Y-75454819D01*
X159000000Y-75454819D02*
X158904762Y-75597676D01*
X158904762Y-75597676D02*
X158809524Y-75692914D01*
X158809524Y-75692914D02*
X158714286Y-75740533D01*
X130166667Y-74157200D02*
X130309524Y-74204819D01*
X130309524Y-74204819D02*
X130547619Y-74204819D01*
X130547619Y-74204819D02*
X130642857Y-74157200D01*
X130642857Y-74157200D02*
X130690476Y-74109580D01*
X130690476Y-74109580D02*
X130738095Y-74014342D01*
X130738095Y-74014342D02*
X130738095Y-73919104D01*
X130738095Y-73919104D02*
X130690476Y-73823866D01*
X130690476Y-73823866D02*
X130642857Y-73776247D01*
X130642857Y-73776247D02*
X130547619Y-73728628D01*
X130547619Y-73728628D02*
X130357143Y-73681009D01*
X130357143Y-73681009D02*
X130261905Y-73633390D01*
X130261905Y-73633390D02*
X130214286Y-73585771D01*
X130214286Y-73585771D02*
X130166667Y-73490533D01*
X130166667Y-73490533D02*
X130166667Y-73395295D01*
X130166667Y-73395295D02*
X130214286Y-73300057D01*
X130214286Y-73300057D02*
X130261905Y-73252438D01*
X130261905Y-73252438D02*
X130357143Y-73204819D01*
X130357143Y-73204819D02*
X130595238Y-73204819D01*
X130595238Y-73204819D02*
X130738095Y-73252438D01*
X131071429Y-73204819D02*
X131309524Y-74204819D01*
X131309524Y-74204819D02*
X131500000Y-73490533D01*
X131500000Y-73490533D02*
X131690476Y-74204819D01*
X131690476Y-74204819D02*
X131928572Y-73204819D01*
X132833333Y-74204819D02*
X132261905Y-74204819D01*
X132547619Y-74204819D02*
X132547619Y-73204819D01*
X132547619Y-73204819D02*
X132452381Y-73347676D01*
X132452381Y-73347676D02*
X132357143Y-73442914D01*
X132357143Y-73442914D02*
X132261905Y-73490533D01*
X172954819Y-64793333D02*
X173669104Y-64793333D01*
X173669104Y-64793333D02*
X173811961Y-64840952D01*
X173811961Y-64840952D02*
X173907200Y-64936190D01*
X173907200Y-64936190D02*
X173954819Y-65079047D01*
X173954819Y-65079047D02*
X173954819Y-65174285D01*
X173954819Y-63793333D02*
X173954819Y-64364761D01*
X173954819Y-64079047D02*
X172954819Y-64079047D01*
X172954819Y-64079047D02*
X173097676Y-64174285D01*
X173097676Y-64174285D02*
X173192914Y-64269523D01*
X173192914Y-64269523D02*
X173240533Y-64364761D01*
X172954819Y-74873333D02*
X173669104Y-74873333D01*
X173669104Y-74873333D02*
X173811961Y-74920952D01*
X173811961Y-74920952D02*
X173907200Y-75016190D01*
X173907200Y-75016190D02*
X173954819Y-75159047D01*
X173954819Y-75159047D02*
X173954819Y-75254285D01*
X173050057Y-74444761D02*
X173002438Y-74397142D01*
X173002438Y-74397142D02*
X172954819Y-74301904D01*
X172954819Y-74301904D02*
X172954819Y-74063809D01*
X172954819Y-74063809D02*
X173002438Y-73968571D01*
X173002438Y-73968571D02*
X173050057Y-73920952D01*
X173050057Y-73920952D02*
X173145295Y-73873333D01*
X173145295Y-73873333D02*
X173240533Y-73873333D01*
X173240533Y-73873333D02*
X173383390Y-73920952D01*
X173383390Y-73920952D02*
X173954819Y-74492380D01*
X173954819Y-74492380D02*
X173954819Y-73873333D01*
X172454819Y-92333333D02*
X173169104Y-92333333D01*
X173169104Y-92333333D02*
X173311961Y-92380952D01*
X173311961Y-92380952D02*
X173407200Y-92476190D01*
X173407200Y-92476190D02*
X173454819Y-92619047D01*
X173454819Y-92619047D02*
X173454819Y-92714285D01*
X172788152Y-91428571D02*
X173454819Y-91428571D01*
X172407200Y-91666666D02*
X173121485Y-91904761D01*
X173121485Y-91904761D02*
X173121485Y-91285714D01*
X155333333Y-76359580D02*
X155285714Y-76407200D01*
X155285714Y-76407200D02*
X155142857Y-76454819D01*
X155142857Y-76454819D02*
X155047619Y-76454819D01*
X155047619Y-76454819D02*
X154904762Y-76407200D01*
X154904762Y-76407200D02*
X154809524Y-76311961D01*
X154809524Y-76311961D02*
X154761905Y-76216723D01*
X154761905Y-76216723D02*
X154714286Y-76026247D01*
X154714286Y-76026247D02*
X154714286Y-75883390D01*
X154714286Y-75883390D02*
X154761905Y-75692914D01*
X154761905Y-75692914D02*
X154809524Y-75597676D01*
X154809524Y-75597676D02*
X154904762Y-75502438D01*
X154904762Y-75502438D02*
X155047619Y-75454819D01*
X155047619Y-75454819D02*
X155142857Y-75454819D01*
X155142857Y-75454819D02*
X155285714Y-75502438D01*
X155285714Y-75502438D02*
X155333333Y-75550057D01*
X156285714Y-76454819D02*
X155714286Y-76454819D01*
X156000000Y-76454819D02*
X156000000Y-75454819D01*
X156000000Y-75454819D02*
X155904762Y-75597676D01*
X155904762Y-75597676D02*
X155809524Y-75692914D01*
X155809524Y-75692914D02*
X155714286Y-75740533D01*
X130738095Y-65404819D02*
X130738095Y-66214342D01*
X130738095Y-66214342D02*
X130785714Y-66309580D01*
X130785714Y-66309580D02*
X130833333Y-66357200D01*
X130833333Y-66357200D02*
X130928571Y-66404819D01*
X130928571Y-66404819D02*
X131119047Y-66404819D01*
X131119047Y-66404819D02*
X131214285Y-66357200D01*
X131214285Y-66357200D02*
X131261904Y-66309580D01*
X131261904Y-66309580D02*
X131309523Y-66214342D01*
X131309523Y-66214342D02*
X131309523Y-65404819D01*
X131738095Y-65500057D02*
X131785714Y-65452438D01*
X131785714Y-65452438D02*
X131880952Y-65404819D01*
X131880952Y-65404819D02*
X132119047Y-65404819D01*
X132119047Y-65404819D02*
X132214285Y-65452438D01*
X132214285Y-65452438D02*
X132261904Y-65500057D01*
X132261904Y-65500057D02*
X132309523Y-65595295D01*
X132309523Y-65595295D02*
X132309523Y-65690533D01*
X132309523Y-65690533D02*
X132261904Y-65833390D01*
X132261904Y-65833390D02*
X131690476Y-66404819D01*
X131690476Y-66404819D02*
X132309523Y-66404819D01*
X130066667Y-86157200D02*
X130209524Y-86204819D01*
X130209524Y-86204819D02*
X130447619Y-86204819D01*
X130447619Y-86204819D02*
X130542857Y-86157200D01*
X130542857Y-86157200D02*
X130590476Y-86109580D01*
X130590476Y-86109580D02*
X130638095Y-86014342D01*
X130638095Y-86014342D02*
X130638095Y-85919104D01*
X130638095Y-85919104D02*
X130590476Y-85823866D01*
X130590476Y-85823866D02*
X130542857Y-85776247D01*
X130542857Y-85776247D02*
X130447619Y-85728628D01*
X130447619Y-85728628D02*
X130257143Y-85681009D01*
X130257143Y-85681009D02*
X130161905Y-85633390D01*
X130161905Y-85633390D02*
X130114286Y-85585771D01*
X130114286Y-85585771D02*
X130066667Y-85490533D01*
X130066667Y-85490533D02*
X130066667Y-85395295D01*
X130066667Y-85395295D02*
X130114286Y-85300057D01*
X130114286Y-85300057D02*
X130161905Y-85252438D01*
X130161905Y-85252438D02*
X130257143Y-85204819D01*
X130257143Y-85204819D02*
X130495238Y-85204819D01*
X130495238Y-85204819D02*
X130638095Y-85252438D01*
X130971429Y-85204819D02*
X131209524Y-86204819D01*
X131209524Y-86204819D02*
X131400000Y-85490533D01*
X131400000Y-85490533D02*
X131590476Y-86204819D01*
X131590476Y-86204819D02*
X131828572Y-85204819D01*
X132161905Y-85300057D02*
X132209524Y-85252438D01*
X132209524Y-85252438D02*
X132304762Y-85204819D01*
X132304762Y-85204819D02*
X132542857Y-85204819D01*
X132542857Y-85204819D02*
X132638095Y-85252438D01*
X132638095Y-85252438D02*
X132685714Y-85300057D01*
X132685714Y-85300057D02*
X132733333Y-85395295D01*
X132733333Y-85395295D02*
X132733333Y-85490533D01*
X132733333Y-85490533D02*
X132685714Y-85633390D01*
X132685714Y-85633390D02*
X132114286Y-86204819D01*
X132114286Y-86204819D02*
X132733333Y-86204819D01*
X145666666Y-72454819D02*
X145666666Y-73169104D01*
X145666666Y-73169104D02*
X145619047Y-73311961D01*
X145619047Y-73311961D02*
X145523809Y-73407200D01*
X145523809Y-73407200D02*
X145380952Y-73454819D01*
X145380952Y-73454819D02*
X145285714Y-73454819D01*
X146142857Y-73454819D02*
X146142857Y-72454819D01*
X146142857Y-72454819D02*
X146523809Y-72454819D01*
X146523809Y-72454819D02*
X146619047Y-72502438D01*
X146619047Y-72502438D02*
X146666666Y-72550057D01*
X146666666Y-72550057D02*
X146714285Y-72645295D01*
X146714285Y-72645295D02*
X146714285Y-72788152D01*
X146714285Y-72788152D02*
X146666666Y-72883390D01*
X146666666Y-72883390D02*
X146619047Y-72931009D01*
X146619047Y-72931009D02*
X146523809Y-72978628D01*
X146523809Y-72978628D02*
X146142857Y-72978628D01*
X147666666Y-73454819D02*
X147095238Y-73454819D01*
X147380952Y-73454819D02*
X147380952Y-72454819D01*
X147380952Y-72454819D02*
X147285714Y-72597676D01*
X147285714Y-72597676D02*
X147190476Y-72692914D01*
X147190476Y-72692914D02*
X147095238Y-72740533D01*
X128558333Y-62789580D02*
X128510714Y-62837200D01*
X128510714Y-62837200D02*
X128367857Y-62884819D01*
X128367857Y-62884819D02*
X128272619Y-62884819D01*
X128272619Y-62884819D02*
X128129762Y-62837200D01*
X128129762Y-62837200D02*
X128034524Y-62741961D01*
X128034524Y-62741961D02*
X127986905Y-62646723D01*
X127986905Y-62646723D02*
X127939286Y-62456247D01*
X127939286Y-62456247D02*
X127939286Y-62313390D01*
X127939286Y-62313390D02*
X127986905Y-62122914D01*
X127986905Y-62122914D02*
X128034524Y-62027676D01*
X128034524Y-62027676D02*
X128129762Y-61932438D01*
X128129762Y-61932438D02*
X128272619Y-61884819D01*
X128272619Y-61884819D02*
X128367857Y-61884819D01*
X128367857Y-61884819D02*
X128510714Y-61932438D01*
X128510714Y-61932438D02*
X128558333Y-61980057D01*
X129415476Y-62218152D02*
X129415476Y-62884819D01*
X129177381Y-61837200D02*
X128939286Y-62551485D01*
X128939286Y-62551485D02*
X129558333Y-62551485D01*
D11*
X147803884Y-56872419D02*
X147803884Y-57681942D01*
X147803884Y-57681942D02*
X147851503Y-57777180D01*
X147851503Y-57777180D02*
X147899122Y-57824800D01*
X147899122Y-57824800D02*
X147994360Y-57872419D01*
X147994360Y-57872419D02*
X148184836Y-57872419D01*
X148184836Y-57872419D02*
X148280074Y-57824800D01*
X148280074Y-57824800D02*
X148327693Y-57777180D01*
X148327693Y-57777180D02*
X148375312Y-57681942D01*
X148375312Y-57681942D02*
X148375312Y-56872419D01*
X148803884Y-57824800D02*
X148946741Y-57872419D01*
X148946741Y-57872419D02*
X149184836Y-57872419D01*
X149184836Y-57872419D02*
X149280074Y-57824800D01*
X149280074Y-57824800D02*
X149327693Y-57777180D01*
X149327693Y-57777180D02*
X149375312Y-57681942D01*
X149375312Y-57681942D02*
X149375312Y-57586704D01*
X149375312Y-57586704D02*
X149327693Y-57491466D01*
X149327693Y-57491466D02*
X149280074Y-57443847D01*
X149280074Y-57443847D02*
X149184836Y-57396228D01*
X149184836Y-57396228D02*
X148994360Y-57348609D01*
X148994360Y-57348609D02*
X148899122Y-57300990D01*
X148899122Y-57300990D02*
X148851503Y-57253371D01*
X148851503Y-57253371D02*
X148803884Y-57158133D01*
X148803884Y-57158133D02*
X148803884Y-57062895D01*
X148803884Y-57062895D02*
X148851503Y-56967657D01*
X148851503Y-56967657D02*
X148899122Y-56920038D01*
X148899122Y-56920038D02*
X148994360Y-56872419D01*
X148994360Y-56872419D02*
X149232455Y-56872419D01*
X149232455Y-56872419D02*
X149375312Y-56920038D01*
X150137217Y-57348609D02*
X150280074Y-57396228D01*
X150280074Y-57396228D02*
X150327693Y-57443847D01*
X150327693Y-57443847D02*
X150375312Y-57539085D01*
X150375312Y-57539085D02*
X150375312Y-57681942D01*
X150375312Y-57681942D02*
X150327693Y-57777180D01*
X150327693Y-57777180D02*
X150280074Y-57824800D01*
X150280074Y-57824800D02*
X150184836Y-57872419D01*
X150184836Y-57872419D02*
X149803884Y-57872419D01*
X149803884Y-57872419D02*
X149803884Y-56872419D01*
X149803884Y-56872419D02*
X150137217Y-56872419D01*
X150137217Y-56872419D02*
X150232455Y-56920038D01*
X150232455Y-56920038D02*
X150280074Y-56967657D01*
X150280074Y-56967657D02*
X150327693Y-57062895D01*
X150327693Y-57062895D02*
X150327693Y-57158133D01*
X150327693Y-57158133D02*
X150280074Y-57253371D01*
X150280074Y-57253371D02*
X150232455Y-57300990D01*
X150232455Y-57300990D02*
X150137217Y-57348609D01*
X150137217Y-57348609D02*
X149803884Y-57348609D01*
X150803884Y-57491466D02*
X151565789Y-57491466D01*
X152613407Y-57777180D02*
X152565788Y-57824800D01*
X152565788Y-57824800D02*
X152422931Y-57872419D01*
X152422931Y-57872419D02*
X152327693Y-57872419D01*
X152327693Y-57872419D02*
X152184836Y-57824800D01*
X152184836Y-57824800D02*
X152089598Y-57729561D01*
X152089598Y-57729561D02*
X152041979Y-57634323D01*
X152041979Y-57634323D02*
X151994360Y-57443847D01*
X151994360Y-57443847D02*
X151994360Y-57300990D01*
X151994360Y-57300990D02*
X152041979Y-57110514D01*
X152041979Y-57110514D02*
X152089598Y-57015276D01*
X152089598Y-57015276D02*
X152184836Y-56920038D01*
X152184836Y-56920038D02*
X152327693Y-56872419D01*
X152327693Y-56872419D02*
X152422931Y-56872419D01*
X152422931Y-56872419D02*
X152565788Y-56920038D01*
X152565788Y-56920038D02*
X152613407Y-56967657D01*
D12*
%TO.C,C2*%
X164490000Y-72415580D02*
X164490000Y-72134420D01*
X165510000Y-72415580D02*
X165510000Y-72134420D01*
%TO.C,R1*%
X157977500Y-73262742D02*
X157977500Y-73737258D01*
X159022500Y-73262742D02*
X159022500Y-73737258D01*
%TO.C,SW1*%
X129430000Y-74430000D02*
X133570000Y-74430000D01*
X129430000Y-74730000D02*
X129430000Y-74430000D01*
X129430000Y-77570000D02*
X129430000Y-77270000D01*
X133570000Y-74430000D02*
X133570000Y-74730000D01*
X133570000Y-77270000D02*
X133570000Y-77570000D01*
X133570000Y-77570000D02*
X129430000Y-77570000D01*
%TO.C,J1*%
X169670000Y-59050000D02*
X171000000Y-59050000D01*
X169670000Y-60380000D02*
X169670000Y-59050000D01*
X169670000Y-61650000D02*
X169670000Y-69330000D01*
X169670000Y-61650000D02*
X172330000Y-61650000D01*
X169670000Y-69330000D02*
X172330000Y-69330000D01*
X172330000Y-61650000D02*
X172330000Y-69330000D01*
%TO.C,J5*%
X164450000Y-85350000D02*
X164450000Y-86350000D01*
X164450000Y-85350000D02*
X165450000Y-85350000D01*
X164740000Y-85640000D02*
X164740000Y-90110000D01*
X164740000Y-90110000D02*
X168160000Y-90110000D01*
X165250000Y-86150000D02*
X166000000Y-86150000D01*
X165250000Y-87875000D02*
X165250000Y-86150000D01*
X165250000Y-87875000D02*
X165250000Y-89600000D01*
X165250000Y-89600000D02*
X166000000Y-89600000D01*
X166000000Y-85950000D02*
X166800000Y-85950000D01*
X166000000Y-86150000D02*
X166000000Y-85950000D01*
X166000000Y-89600000D02*
X166000000Y-89800000D01*
X166000000Y-89800000D02*
X166800000Y-89800000D01*
X166800000Y-85950000D02*
X166800000Y-86150000D01*
X166800000Y-86150000D02*
X167650000Y-86150000D01*
X166800000Y-89600000D02*
X167650000Y-89600000D01*
X166800000Y-89800000D02*
X166800000Y-89600000D01*
X167650000Y-86150000D02*
X167650000Y-87875000D01*
X167650000Y-89600000D02*
X167650000Y-87875000D01*
X168160000Y-85640000D02*
X164740000Y-85640000D01*
X168160000Y-90110000D02*
X168160000Y-85640000D01*
%TO.C,J2*%
X169670000Y-70630000D02*
X171000000Y-70630000D01*
X169670000Y-71960000D02*
X169670000Y-70630000D01*
X169670000Y-73230000D02*
X169670000Y-78370000D01*
X169670000Y-73230000D02*
X172330000Y-73230000D01*
X169670000Y-78370000D02*
X172330000Y-78370000D01*
X172330000Y-73230000D02*
X172330000Y-78370000D01*
%TO.C,J3*%
X147140000Y-93340000D02*
X147140000Y-94590000D01*
X147440000Y-93640000D02*
X147440000Y-98360000D01*
X147440000Y-94950000D02*
X148050000Y-94950000D01*
X147440000Y-96250000D02*
X148050000Y-96250000D01*
X147440000Y-98360000D02*
X153560000Y-98360000D01*
X148050000Y-94250000D02*
X148050000Y-97750000D01*
X148050000Y-97750000D02*
X152950000Y-97750000D01*
X148390000Y-93340000D02*
X147140000Y-93340000D01*
X148900000Y-93440000D02*
X148900000Y-93640000D01*
X149200000Y-93440000D02*
X148900000Y-93440000D01*
X149200000Y-93540000D02*
X148900000Y-93540000D01*
X149200000Y-93640000D02*
X149200000Y-93440000D01*
X150000000Y-93640000D02*
X150000000Y-94250000D01*
X150000000Y-94250000D02*
X148050000Y-94250000D01*
X150400000Y-97250000D02*
X150600000Y-97250000D01*
X150400000Y-97750000D02*
X150400000Y-97250000D01*
X150500000Y-97750000D02*
X150500000Y-97250000D01*
X150600000Y-97250000D02*
X150600000Y-97750000D01*
X151000000Y-94250000D02*
X151000000Y-93640000D01*
X152950000Y-94250000D02*
X151000000Y-94250000D01*
X152950000Y-97750000D02*
X152950000Y-94250000D01*
X153560000Y-93640000D02*
X147440000Y-93640000D01*
X153560000Y-94950000D02*
X152950000Y-94950000D01*
X153560000Y-96250000D02*
X152950000Y-96250000D01*
X153560000Y-98360000D02*
X153560000Y-93640000D01*
%TO.C,J4*%
X168890000Y-89610000D02*
X168890000Y-90860000D01*
X168890000Y-90860000D02*
X170140000Y-90860000D01*
X168990000Y-88800000D02*
X168990000Y-89100000D01*
X168990000Y-89100000D02*
X169190000Y-89100000D01*
X169090000Y-88800000D02*
X169090000Y-89100000D01*
X169190000Y-84440000D02*
X169190000Y-90560000D01*
X169190000Y-88000000D02*
X169800000Y-88000000D01*
X169190000Y-88800000D02*
X168990000Y-88800000D01*
X169190000Y-90560000D02*
X173910000Y-90560000D01*
X169800000Y-85050000D02*
X169800000Y-87000000D01*
X169800000Y-87000000D02*
X169190000Y-87000000D01*
X169800000Y-88000000D02*
X169800000Y-89950000D01*
X169800000Y-89950000D02*
X173300000Y-89950000D01*
X170500000Y-84440000D02*
X170500000Y-85050000D01*
X170500000Y-90560000D02*
X170500000Y-89950000D01*
X171800000Y-84440000D02*
X171800000Y-85050000D01*
X171800000Y-90560000D02*
X171800000Y-89950000D01*
X172800000Y-87400000D02*
X173300000Y-87400000D01*
X172800000Y-87600000D02*
X172800000Y-87400000D01*
X173300000Y-85050000D02*
X169800000Y-85050000D01*
X173300000Y-87500000D02*
X172800000Y-87500000D01*
X173300000Y-87600000D02*
X172800000Y-87600000D01*
X173300000Y-89950000D02*
X173300000Y-85050000D01*
X173910000Y-84440000D02*
X169190000Y-84440000D01*
X173910000Y-90560000D02*
X173910000Y-84440000D01*
%TO.C,C1*%
X154990000Y-73640580D02*
X154990000Y-73359420D01*
X156010000Y-73640580D02*
X156010000Y-73359420D01*
%TO.C,U2*%
X131500000Y-61890000D02*
X130000000Y-61890000D01*
X131500000Y-61890000D02*
X133000000Y-61890000D01*
X131500000Y-65110000D02*
X130000000Y-65110000D01*
X131500000Y-65110000D02*
X133000000Y-65110000D01*
X133952500Y-65265000D02*
X133472500Y-65265000D01*
X133712500Y-64935000D01*
X133952500Y-65265000D01*
G36*
X133952500Y-65265000D02*
G01*
X133472500Y-65265000D01*
X133712500Y-64935000D01*
X133952500Y-65265000D01*
G37*
%TO.C,SW2*%
X129330000Y-86430000D02*
X133470000Y-86430000D01*
X129330000Y-86730000D02*
X129330000Y-86430000D01*
X129330000Y-89570000D02*
X129330000Y-89270000D01*
X133470000Y-86430000D02*
X133470000Y-86730000D01*
X133470000Y-89270000D02*
X133470000Y-89570000D01*
X133470000Y-89570000D02*
X129330000Y-89570000D01*
%TO.C,JP1*%
X144450000Y-69500000D02*
X148550000Y-69500000D01*
X144450000Y-71500000D02*
X144450000Y-69500000D01*
X147800000Y-69300000D02*
X147500000Y-69000000D01*
X147800000Y-69300000D02*
X148100000Y-69000000D01*
X148100000Y-69000000D02*
X147500000Y-69000000D01*
X148550000Y-69500000D02*
X148550000Y-71500000D01*
X148550000Y-71500000D02*
X144450000Y-71500000D01*
%TO.C,C4*%
X128865580Y-60490000D02*
X128584420Y-60490000D01*
X128865580Y-61510000D02*
X128584420Y-61510000D01*
D11*
%TO.C,U1*%
X137500000Y-52170000D02*
X137500000Y-97890000D01*
X137500000Y-97890000D02*
X141310000Y-97890000D01*
X140040000Y-49630000D02*
X137500000Y-52170000D01*
X141310000Y-97890000D02*
X145120000Y-100430000D01*
X145120000Y-49630000D02*
X140040000Y-49630000D01*
X145120000Y-100430000D02*
X155280000Y-100430000D01*
X146390000Y-50900000D02*
X145120000Y-49630000D01*
X146390000Y-50900000D02*
X146390000Y-55980000D01*
X146390000Y-55980000D02*
X154010000Y-55980000D01*
X154010000Y-50900000D02*
X146390000Y-50900000D01*
X154010000Y-50900000D02*
X154010000Y-55980000D01*
X155280000Y-49630000D02*
X154010000Y-50900000D01*
X155280000Y-100430000D02*
X159090000Y-97890000D01*
X159090000Y-97890000D02*
X162900000Y-97890000D01*
X160360000Y-49630000D02*
X155280000Y-49630000D01*
X162900000Y-52170000D02*
X160360000Y-49630000D01*
X162900000Y-94080000D02*
X162900000Y-52170000D01*
X162900000Y-97890000D02*
X162900000Y-94080000D01*
%TD*%
M02*
