%TF.GenerationSoftware,KiCad,Pcbnew,8.0.7-8.0.7-0~ubuntu22.04.1*%
%TF.CreationDate,2025-01-06T16:11:52+01:00*%
%TF.ProjectId,crack_monitoring_minimal,63726163-6b5f-46d6-9f6e-69746f72696e,rev?*%
%TF.SameCoordinates,Original*%
%TF.FileFunction,Legend,Bot*%
%TF.FilePolarity,Positive*%
%FSLAX46Y46*%
G04 Gerber Fmt 4.6, Leading zero omitted, Abs format (unit mm)*
G04 Created by KiCad (PCBNEW 8.0.7-8.0.7-0~ubuntu22.04.1) date 2025-01-06 16:11:52*
%MOMM*%
%LPD*%
G01*
G04 APERTURE LIST*
%ADD10C,0.254000*%
%ADD11C,0.200000*%
G04 APERTURE END LIST*
D10*
X151239762Y-75574318D02*
X151239762Y-74304318D01*
X149909285Y-75453365D02*
X149969761Y-75513842D01*
X149969761Y-75513842D02*
X150151190Y-75574318D01*
X150151190Y-75574318D02*
X150272142Y-75574318D01*
X150272142Y-75574318D02*
X150453571Y-75513842D01*
X150453571Y-75513842D02*
X150574523Y-75392889D01*
X150574523Y-75392889D02*
X150635000Y-75271937D01*
X150635000Y-75271937D02*
X150695476Y-75030032D01*
X150695476Y-75030032D02*
X150695476Y-74848603D01*
X150695476Y-74848603D02*
X150635000Y-74606699D01*
X150635000Y-74606699D02*
X150574523Y-74485746D01*
X150574523Y-74485746D02*
X150453571Y-74364794D01*
X150453571Y-74364794D02*
X150272142Y-74304318D01*
X150272142Y-74304318D02*
X150151190Y-74304318D01*
X150151190Y-74304318D02*
X149969761Y-74364794D01*
X149969761Y-74364794D02*
X149909285Y-74425270D01*
X149425476Y-74425270D02*
X149365000Y-74364794D01*
X149365000Y-74364794D02*
X149244047Y-74304318D01*
X149244047Y-74304318D02*
X148941666Y-74304318D01*
X148941666Y-74304318D02*
X148820714Y-74364794D01*
X148820714Y-74364794D02*
X148760238Y-74425270D01*
X148760238Y-74425270D02*
X148699761Y-74546222D01*
X148699761Y-74546222D02*
X148699761Y-74667175D01*
X148699761Y-74667175D02*
X148760238Y-74848603D01*
X148760238Y-74848603D02*
X149485952Y-75574318D01*
X149485952Y-75574318D02*
X148699761Y-75574318D01*
D11*
%TO.C,IC2*%
X148400000Y-72550000D02*
X151600000Y-72550000D01*
X148400000Y-77450000D02*
X148400000Y-72550000D01*
X151600000Y-72550000D02*
X151600000Y-77450000D01*
X151600000Y-77450000D02*
X148400000Y-77450000D01*
X151950000Y-72420000D02*
X153450000Y-72420000D01*
%TD*%
M02*
