%TF.GenerationSoftware,KiCad,Pcbnew,8.0.7-8.0.7-0~ubuntu22.04.1*%
%TF.CreationDate,2025-01-06T16:11:52+01:00*%
%TF.ProjectId,crack_monitoring_minimal,63726163-6b5f-46d6-9f6e-69746f72696e,rev?*%
%TF.SameCoordinates,Original*%
%TF.FileFunction,Copper,L1,Top*%
%TF.FilePolarity,Positive*%
%FSLAX46Y46*%
G04 Gerber Fmt 4.6, Leading zero omitted, Abs format (unit mm)*
G04 Created by KiCad (PCBNEW 8.0.7-8.0.7-0~ubuntu22.04.1) date 2025-01-06 16:11:52*
%MOMM*%
%LPD*%
G01*
G04 APERTURE LIST*
G04 Aperture macros list*
%AMRoundRect*
0 Rectangle with rounded corners*
0 $1 Rounding radius*
0 $2 $3 $4 $5 $6 $7 $8 $9 X,Y pos of 4 corners*
0 Add a 4 corners polygon primitive as box body*
4,1,4,$2,$3,$4,$5,$6,$7,$8,$9,$2,$3,0*
0 Add four circle primitives for the rounded corners*
1,1,$1+$1,$2,$3*
1,1,$1+$1,$4,$5*
1,1,$1+$1,$6,$7*
1,1,$1+$1,$8,$9*
0 Add four rect primitives between the rounded corners*
20,1,$1+$1,$2,$3,$4,$5,0*
20,1,$1+$1,$4,$5,$6,$7,0*
20,1,$1+$1,$6,$7,$8,$9,0*
20,1,$1+$1,$8,$9,$2,$3,0*%
G04 Aperture macros list end*
%ADD10C,0.200000*%
%TA.AperFunction,NonConductor*%
%ADD11C,0.200000*%
%TD*%
%TA.AperFunction,SMDPad,CuDef*%
%ADD12RoundRect,0.225000X0.250000X-0.225000X0.250000X0.225000X-0.250000X0.225000X-0.250000X-0.225000X0*%
%TD*%
%TA.AperFunction,SMDPad,CuDef*%
%ADD13RoundRect,0.200000X-0.275000X0.200000X-0.275000X-0.200000X0.275000X-0.200000X0.275000X0.200000X0*%
%TD*%
%TA.AperFunction,SMDPad,CuDef*%
%ADD14RoundRect,0.200000X-0.200000X-0.800000X0.200000X-0.800000X0.200000X0.800000X-0.200000X0.800000X0*%
%TD*%
%TA.AperFunction,ComponentPad*%
%ADD15R,1.700000X1.700000*%
%TD*%
%TA.AperFunction,ComponentPad*%
%ADD16O,1.700000X1.700000*%
%TD*%
%TA.AperFunction,ComponentPad*%
%ADD17RoundRect,0.200000X-0.450000X0.200000X-0.450000X-0.200000X0.450000X-0.200000X0.450000X0.200000X0*%
%TD*%
%TA.AperFunction,ComponentPad*%
%ADD18O,1.300000X0.800000*%
%TD*%
%TA.AperFunction,ComponentPad*%
%ADD19RoundRect,0.250000X-0.350000X-0.625000X0.350000X-0.625000X0.350000X0.625000X-0.350000X0.625000X0*%
%TD*%
%TA.AperFunction,ComponentPad*%
%ADD20O,1.200000X1.750000*%
%TD*%
%TA.AperFunction,ComponentPad*%
%ADD21RoundRect,0.250000X0.625000X-0.350000X0.625000X0.350000X-0.625000X0.350000X-0.625000X-0.350000X0*%
%TD*%
%TA.AperFunction,ComponentPad*%
%ADD22O,1.750000X1.200000*%
%TD*%
%TA.AperFunction,SMDPad,CuDef*%
%ADD23RoundRect,0.100000X0.712500X0.100000X-0.712500X0.100000X-0.712500X-0.100000X0.712500X-0.100000X0*%
%TD*%
%TA.AperFunction,SMDPad,CuDef*%
%ADD24R,1.000000X1.500000*%
%TD*%
%TA.AperFunction,SMDPad,CuDef*%
%ADD25RoundRect,0.225000X0.225000X0.250000X-0.225000X0.250000X-0.225000X-0.250000X0.225000X-0.250000X0*%
%TD*%
%TA.AperFunction,ComponentPad*%
%ADD26C,1.700000*%
%TD*%
%TA.AperFunction,ViaPad*%
%ADD27C,0.600000*%
%TD*%
%TA.AperFunction,Conductor*%
%ADD28C,0.300000*%
%TD*%
%TA.AperFunction,Conductor*%
%ADD29C,0.400000*%
%TD*%
%TA.AperFunction,Conductor*%
%ADD30C,0.200000*%
%TD*%
G04 APERTURE END LIST*
D10*
D11*
X147341101Y-52088804D02*
X147393482Y-52036423D01*
X147393482Y-52036423D02*
X147498244Y-51984042D01*
X147498244Y-51984042D02*
X147760149Y-51984042D01*
X147760149Y-51984042D02*
X147864911Y-52036423D01*
X147864911Y-52036423D02*
X147917292Y-52088804D01*
X147917292Y-52088804D02*
X147969673Y-52193566D01*
X147969673Y-52193566D02*
X147969673Y-52298328D01*
X147969673Y-52298328D02*
X147917292Y-52455471D01*
X147917292Y-52455471D02*
X147288720Y-53084042D01*
X147288720Y-53084042D02*
X147969673Y-53084042D01*
X148650625Y-51984042D02*
X148755387Y-51984042D01*
X148755387Y-51984042D02*
X148860149Y-52036423D01*
X148860149Y-52036423D02*
X148912530Y-52088804D01*
X148912530Y-52088804D02*
X148964911Y-52193566D01*
X148964911Y-52193566D02*
X149017292Y-52403090D01*
X149017292Y-52403090D02*
X149017292Y-52664995D01*
X149017292Y-52664995D02*
X148964911Y-52874519D01*
X148964911Y-52874519D02*
X148912530Y-52979281D01*
X148912530Y-52979281D02*
X148860149Y-53031662D01*
X148860149Y-53031662D02*
X148755387Y-53084042D01*
X148755387Y-53084042D02*
X148650625Y-53084042D01*
X148650625Y-53084042D02*
X148545863Y-53031662D01*
X148545863Y-53031662D02*
X148493482Y-52979281D01*
X148493482Y-52979281D02*
X148441101Y-52874519D01*
X148441101Y-52874519D02*
X148388720Y-52664995D01*
X148388720Y-52664995D02*
X148388720Y-52403090D01*
X148388720Y-52403090D02*
X148441101Y-52193566D01*
X148441101Y-52193566D02*
X148493482Y-52088804D01*
X148493482Y-52088804D02*
X148545863Y-52036423D01*
X148545863Y-52036423D02*
X148650625Y-51984042D01*
X149436339Y-52088804D02*
X149488720Y-52036423D01*
X149488720Y-52036423D02*
X149593482Y-51984042D01*
X149593482Y-51984042D02*
X149855387Y-51984042D01*
X149855387Y-51984042D02*
X149960149Y-52036423D01*
X149960149Y-52036423D02*
X150012530Y-52088804D01*
X150012530Y-52088804D02*
X150064911Y-52193566D01*
X150064911Y-52193566D02*
X150064911Y-52298328D01*
X150064911Y-52298328D02*
X150012530Y-52455471D01*
X150012530Y-52455471D02*
X149383958Y-53084042D01*
X149383958Y-53084042D02*
X150064911Y-53084042D01*
X151007768Y-52350709D02*
X151007768Y-53084042D01*
X150745863Y-51931662D02*
X150483958Y-52717376D01*
X150483958Y-52717376D02*
X151164911Y-52717376D01*
X152160149Y-53084042D02*
X151531577Y-53084042D01*
X151845863Y-53084042D02*
X151845863Y-51984042D01*
X151845863Y-51984042D02*
X151741101Y-52141185D01*
X151741101Y-52141185D02*
X151636339Y-52245947D01*
X151636339Y-52245947D02*
X151531577Y-52298328D01*
X153207768Y-53084042D02*
X152579196Y-53084042D01*
X152893482Y-53084042D02*
X152893482Y-51984042D01*
X152893482Y-51984042D02*
X152788720Y-52141185D01*
X152788720Y-52141185D02*
X152683958Y-52245947D01*
X152683958Y-52245947D02*
X152579196Y-52298328D01*
X147288720Y-54121647D02*
X147550625Y-54854980D01*
X147550625Y-54854980D02*
X147812530Y-54121647D01*
X148807768Y-54854980D02*
X148179196Y-54854980D01*
X148493482Y-54854980D02*
X148493482Y-53754980D01*
X148493482Y-53754980D02*
X148388720Y-53912123D01*
X148388720Y-53912123D02*
X148283958Y-54016885D01*
X148283958Y-54016885D02*
X148179196Y-54069266D01*
X150117291Y-54854980D02*
X150117291Y-53754980D01*
X150117291Y-53754980D02*
X150536339Y-53754980D01*
X150536339Y-53754980D02*
X150641101Y-53807361D01*
X150641101Y-53807361D02*
X150693482Y-53859742D01*
X150693482Y-53859742D02*
X150745863Y-53964504D01*
X150745863Y-53964504D02*
X150745863Y-54121647D01*
X150745863Y-54121647D02*
X150693482Y-54226409D01*
X150693482Y-54226409D02*
X150641101Y-54278790D01*
X150641101Y-54278790D02*
X150536339Y-54331171D01*
X150536339Y-54331171D02*
X150117291Y-54331171D01*
X151217291Y-54854980D02*
X151217291Y-53754980D01*
X151845863Y-54854980D02*
X151374434Y-54226409D01*
X151845863Y-53754980D02*
X151217291Y-54383552D01*
D12*
%TO.P,C2,1*%
%TO.N,GND*%
X165000000Y-73050000D03*
%TO.P,C2,2*%
%TO.N,+3V3*%
X165000000Y-71500000D03*
%TD*%
D13*
%TO.P,R1,1*%
%TO.N,+3V3*%
X158500000Y-72675000D03*
%TO.P,R1,2*%
%TO.N,1_Wire*%
X158500000Y-74325000D03*
%TD*%
D14*
%TO.P,SW1,1,1*%
%TO.N,GND*%
X129400000Y-76000000D03*
%TO.P,SW1,2,2*%
%TO.N,KEY1*%
X133600000Y-76000000D03*
%TD*%
D15*
%TO.P,J1,1,Pin_1*%
%TO.N,SCL*%
X171000000Y-60380000D03*
D16*
%TO.P,J1,2,Pin_2*%
%TO.N,SDA*%
X171000000Y-62920000D03*
%TO.P,J1,3,Pin_3*%
%TO.N,+3V3*%
X171000000Y-65460000D03*
%TO.P,J1,4,Pin_4*%
%TO.N,GND*%
X171000000Y-68000000D03*
%TD*%
D17*
%TO.P,J5,1,Pin_1*%
%TO.N,BAT+*%
X166000000Y-87250000D03*
D18*
%TO.P,J5,2,Pin_2*%
%TO.N,BAT-*%
X166000000Y-88500000D03*
%TD*%
D15*
%TO.P,J2,1,Pin_1*%
%TO.N,1_Wire*%
X171000000Y-71960000D03*
D16*
%TO.P,J2,2,Pin_2*%
%TO.N,+3V3*%
X171000000Y-74500000D03*
%TO.P,J2,3,Pin_3*%
%TO.N,GND*%
X171000000Y-77040000D03*
%TD*%
D19*
%TO.P,J3,1,Pin_1*%
%TO.N,BAT-*%
X149500000Y-95450000D03*
D20*
%TO.P,J3,2,Pin_2*%
%TO.N,BAT+*%
X151500000Y-95450000D03*
%TD*%
D21*
%TO.P,J4,1,Pin_1*%
%TO.N,BAT-*%
X171000000Y-88500000D03*
D22*
%TO.P,J4,2,Pin_2*%
%TO.N,BAT+*%
X171000000Y-86500000D03*
%TD*%
D12*
%TO.P,C1,1*%
%TO.N,GND*%
X155500000Y-74275000D03*
%TO.P,C1,2*%
%TO.N,+3V3*%
X155500000Y-72725000D03*
%TD*%
D23*
%TO.P,U2,1,SDA*%
%TO.N,SDA*%
X133612500Y-64475000D03*
%TO.P,U2,2,SCL*%
%TO.N,SCL*%
X133612500Y-63825000D03*
%TO.P,U2,3,Alert*%
%TO.N,unconnected-(U2-Alert-Pad3)*%
X133612500Y-63175000D03*
%TO.P,U2,4,GND*%
%TO.N,GND*%
X133612500Y-62525000D03*
%TO.P,U2,5,A2*%
%TO.N,+3V3*%
X129387500Y-62525000D03*
%TO.P,U2,6,A1*%
X129387500Y-63175000D03*
%TO.P,U2,7,A0*%
X129387500Y-63825000D03*
%TO.P,U2,8,V_{DD}*%
X129387500Y-64475000D03*
%TD*%
D14*
%TO.P,SW2,1,1*%
%TO.N,GND*%
X129300000Y-88000000D03*
%TO.P,SW2,2,2*%
%TO.N,KEY2*%
X133500000Y-88000000D03*
%TD*%
D24*
%TO.P,JP1,1,A*%
%TO.N,+3V3*%
X147800000Y-70500000D03*
%TO.P,JP1,2,C*%
%TO.N,Net-(IC2-DIR)*%
X146500000Y-70500000D03*
%TO.P,JP1,3,B*%
%TO.N,GND*%
X145200000Y-70500000D03*
%TD*%
D25*
%TO.P,C4,1*%
%TO.N,+3V3*%
X129500000Y-61000000D03*
%TO.P,C4,2*%
%TO.N,GND*%
X127950000Y-61000000D03*
%TD*%
D15*
%TO.P,U1,1,GND*%
%TO.N,GND*%
X138770000Y-53440000D03*
D26*
%TO.P,U1,2,5V*%
%TO.N,unconnected-(U1-5V-Pad2)*%
X138770000Y-55980000D03*
%TO.P,U1,3,Ve*%
%TO.N,+3V3*%
X138770000Y-58520000D03*
%TO.P,U1,4,Ve*%
X138770000Y-61060000D03*
%TO.P,U1,5,RX*%
%TO.N,unconnected-(U1-RX-Pad5)*%
X138770000Y-63600000D03*
%TO.P,U1,6,TX*%
%TO.N,unconnected-(U1-TX-Pad6)*%
X138770000Y-66140000D03*
%TO.P,U1,7,RST*%
%TO.N,unconnected-(U1-RST-Pad7)*%
X138770000Y-68680000D03*
%TO.P,U1,8,GPIO0_PRG_KEY*%
%TO.N,unconnected-(U1-GPIO0_PRG_KEY-Pad8)*%
X138770000Y-71220000D03*
%TO.P,U1,9,GPIO36_Vext_Ctrl*%
%TO.N,unconnected-(U1-GPIO36_Vext_Ctrl-Pad9)*%
X138770000Y-73760000D03*
%TO.P,U1,10,GPIO35_LED*%
%TO.N,unconnected-(U1-GPIO35_LED-Pad10)*%
X138770000Y-76300000D03*
%TO.P,U1,11,GPIO34*%
%TO.N,unconnected-(U1-GPIO34-Pad11)*%
X138770000Y-78840000D03*
%TO.P,U1,12,GPIO33*%
%TO.N,unconnected-(U1-GPIO33-Pad12)*%
X138770000Y-81380000D03*
%TO.P,U1,13,GPIO47*%
%TO.N,unconnected-(U1-GPIO47-Pad13)*%
X138770000Y-83920000D03*
%TO.P,U1,14,GPIO48*%
%TO.N,unconnected-(U1-GPIO48-Pad14)*%
X138770000Y-86460000D03*
%TO.P,U1,15,GPIO26*%
%TO.N,unconnected-(U1-GPIO26-Pad15)*%
X138770000Y-89000000D03*
%TO.P,U1,16,GPIO21_RST_OLED*%
%TO.N,unconnected-(U1-GPIO21_RST_OLED-Pad16)*%
X138770000Y-91540000D03*
%TO.P,U1,17,GPIO20_ADC2_CH9*%
%TO.N,KEY1*%
X138770000Y-94080000D03*
%TO.P,U1,18,GPIO19_ADC2_CH9*%
%TO.N,KEY2*%
X138770000Y-96620000D03*
%TO.P,U1,19,GND*%
%TO.N,GND*%
X161630000Y-53440000D03*
%TO.P,U1,20,3V3*%
%TO.N,unconnected-(U1-3V3-Pad20)*%
X161630000Y-55980000D03*
%TO.P,U1,21,3V3*%
%TO.N,unconnected-(U1-3V3-Pad21)*%
X161630000Y-58520000D03*
%TO.P,U1,22,GPIO37_ADC_Ctrl*%
%TO.N,unconnected-(U1-GPIO37_ADC_Ctrl-Pad22)*%
X161630000Y-61060000D03*
%TO.P,U1,23,GPIO46*%
%TO.N,unconnected-(U1-GPIO46-Pad23)*%
X161630000Y-63600000D03*
%TO.P,U1,24,GPIO45*%
%TO.N,unconnected-(U1-GPIO45-Pad24)*%
X161630000Y-66140000D03*
%TO.P,U1,25,GPIO42*%
%TO.N,SCL*%
X161630000Y-68680000D03*
%TO.P,U1,26,GPIO41*%
%TO.N,SDA*%
X161630000Y-71220000D03*
%TO.P,U1,27,GPIO40*%
%TO.N,1_Wire*%
X161630000Y-73760000D03*
%TO.P,U1,28,GPIO39*%
%TO.N,unconnected-(U1-GPIO39-Pad28)*%
X161630000Y-76300000D03*
%TO.P,U1,29,GPIO38*%
%TO.N,unconnected-(U1-GPIO38-Pad29)*%
X161630000Y-78840000D03*
%TO.P,U1,30,GPIO1_ADC1_CH0_Bat*%
%TO.N,unconnected-(U1-GPIO1_ADC1_CH0_Bat-Pad30)*%
X161630000Y-81380000D03*
%TO.P,U1,31,GPIO2_ADC1_CH1*%
%TO.N,unconnected-(U1-GPIO2_ADC1_CH1-Pad31)*%
X161630000Y-83920000D03*
%TO.P,U1,32,GPIO3_ADC1_CH2*%
%TO.N,unconnected-(U1-GPIO3_ADC1_CH2-Pad32)*%
X161630000Y-86460000D03*
%TO.P,U1,33,GPIO4_ADC1_CH3*%
%TO.N,unconnected-(U1-GPIO4_ADC1_CH3-Pad33)*%
X161630000Y-89000000D03*
%TO.P,U1,34,GPIO5_ADC1_CH4*%
%TO.N,unconnected-(U1-GPIO5_ADC1_CH4-Pad34)*%
X161630000Y-91540000D03*
%TO.P,U1,35,GPIO6_ADC1_CH5*%
%TO.N,unconnected-(U1-GPIO6_ADC1_CH5-Pad35)*%
X161630000Y-94080000D03*
%TO.P,U1,36,GPIO7_ADC1_CH6*%
%TO.N,unconnected-(U1-GPIO7_ADC1_CH6-Pad36)*%
X161630000Y-96620000D03*
%TD*%
D27*
%TO.N,+3V3*%
X154000000Y-72500000D03*
%TO.N,GND*%
X153500000Y-95500000D03*
X165500000Y-52250000D03*
X163500000Y-74000000D03*
X173500000Y-57000000D03*
X134750000Y-85750000D03*
X159500000Y-89500000D03*
X135500000Y-81500000D03*
X166500000Y-65000000D03*
X145250000Y-94000000D03*
X163500000Y-89000000D03*
X167000000Y-79000000D03*
X134750000Y-97000000D03*
X153500000Y-62500000D03*
X132000000Y-80500000D03*
X174000000Y-67670000D03*
X126500000Y-94000000D03*
X135750000Y-51750000D03*
X157000000Y-53500000D03*
X135500000Y-62500000D03*
X127000000Y-71000000D03*
X129250000Y-88000000D03*
X142500000Y-74500000D03*
X146250000Y-61500000D03*
X140500000Y-87500000D03*
X136000000Y-59500000D03*
X129500000Y-80000000D03*
X150000000Y-71500000D03*
X169000000Y-92000000D03*
X151000000Y-76000000D03*
X166000000Y-79500000D03*
X135500000Y-69500000D03*
X164000000Y-63000000D03*
X164750000Y-97750000D03*
X159500000Y-75500000D03*
X173000000Y-65170000D03*
X144000000Y-81250000D03*
X143000000Y-72000000D03*
X157500000Y-58000000D03*
X150750000Y-82000000D03*
X143000000Y-87500000D03*
X154500000Y-76500000D03*
X173000000Y-83500000D03*
X156750000Y-69750000D03*
X169000000Y-74500000D03*
X157000000Y-73500000D03*
X143750000Y-53250000D03*
X173500000Y-76670000D03*
X166500000Y-69500000D03*
X152750000Y-87750000D03*
X156750000Y-78500000D03*
X126500000Y-63250000D03*
X169000000Y-66500000D03*
X173500000Y-97000000D03*
%TO.N,SCL*%
X135500000Y-64000000D03*
%TO.N,SDA*%
X135500000Y-65000000D03*
%TO.N,Net-(IC2-DIR)*%
X146500000Y-72000000D03*
%TD*%
D28*
%TO.N,+3V3*%
X129500000Y-61537500D02*
X129937500Y-61975000D01*
X165500000Y-71500000D02*
X168000000Y-71500000D01*
X154000000Y-72500000D02*
X162067057Y-72500000D01*
X152000000Y-70500000D02*
X154000000Y-72500000D01*
X171000000Y-65460000D02*
X171000000Y-66000000D01*
X147800000Y-68887919D02*
X147800000Y-70500000D01*
X138770000Y-61060000D02*
X139972081Y-61060000D01*
X171000000Y-66000000D02*
X165500000Y-71500000D01*
X129500000Y-61000000D02*
X129500000Y-61537500D01*
X165500000Y-71500000D02*
X163067057Y-71500000D01*
X138770000Y-58520000D02*
X138770000Y-61060000D01*
X162067057Y-72500000D02*
X163067057Y-71500000D01*
X135105761Y-61975000D02*
X136020761Y-61060000D01*
D29*
X138770000Y-61060000D02*
X138770000Y-61165000D01*
D28*
X168000000Y-71500000D02*
X171000000Y-74500000D01*
X139972081Y-61060000D02*
X147800000Y-68887919D01*
X129937500Y-61975000D02*
X135105761Y-61975000D01*
X136020761Y-61060000D02*
X138770000Y-61060000D01*
X129387500Y-62525000D02*
X129937500Y-61975000D01*
X147800000Y-70500000D02*
X152000000Y-70500000D01*
X129387500Y-64475000D02*
X129387500Y-62525000D01*
D29*
%TO.N,GND*%
X133612500Y-62525000D02*
X135475000Y-62525000D01*
X135475000Y-62525000D02*
X135500000Y-62500000D01*
D28*
%TO.N,SCL*%
X169930000Y-60380000D02*
X161630000Y-68680000D01*
X135325000Y-63825000D02*
X135500000Y-64000000D01*
X171000000Y-60380000D02*
X169930000Y-60380000D01*
X133612500Y-63825000D02*
X135325000Y-63825000D01*
%TO.N,SDA*%
X133612500Y-64475000D02*
X134975000Y-64475000D01*
X165420000Y-68500000D02*
X164350000Y-68500000D01*
X134975000Y-64475000D02*
X135500000Y-65000000D01*
X171000000Y-62920000D02*
X165420000Y-68500000D01*
X164350000Y-68500000D02*
X161630000Y-71220000D01*
D30*
%TO.N,Net-(IC2-DIR)*%
X146500000Y-70500000D02*
X146500000Y-72000000D01*
D28*
%TO.N,1_Wire*%
X163570000Y-75700000D02*
X161630000Y-73760000D01*
X172200000Y-74997057D02*
X171497057Y-75700000D01*
X161630000Y-73760000D02*
X159065000Y-73760000D01*
X171497057Y-75700000D02*
X163570000Y-75700000D01*
X161760000Y-73760000D02*
X162150000Y-74150000D01*
X161630000Y-73760000D02*
X161760000Y-73760000D01*
X172200000Y-73160000D02*
X172200000Y-74997057D01*
X159065000Y-73760000D02*
X158500000Y-74325000D01*
X171000000Y-71960000D02*
X172200000Y-73160000D01*
D29*
%TO.N,BAT+*%
X151500000Y-95450000D02*
X159240000Y-87710000D01*
X159240000Y-87710000D02*
X165540000Y-87710000D01*
X170250000Y-87250000D02*
X171000000Y-86500000D01*
X165540000Y-87710000D02*
X166000000Y-87250000D01*
X166000000Y-87250000D02*
X170250000Y-87250000D01*
%TO.N,BAT-*%
X151250000Y-97200000D02*
X154202233Y-97200000D01*
X166000000Y-88500000D02*
X171000000Y-88500000D01*
X164210000Y-90290000D02*
X166000000Y-88500000D01*
X161112233Y-90290000D02*
X164210000Y-90290000D01*
X154202233Y-97200000D02*
X161112233Y-90290000D01*
X149500000Y-95450000D02*
X151250000Y-97200000D01*
D28*
%TO.N,KEY1*%
X138770000Y-94080000D02*
X136500000Y-91810000D01*
X136500000Y-91810000D02*
X136500000Y-80500000D01*
X136500000Y-80500000D02*
X133600000Y-77600000D01*
X133600000Y-77600000D02*
X133600000Y-76000000D01*
%TO.N,KEY2*%
X138770000Y-96620000D02*
X133500000Y-91350000D01*
X133500000Y-91350000D02*
X133500000Y-88000000D01*
%TD*%
%TA.AperFunction,Conductor*%
%TO.N,GND*%
G36*
X160295254Y-88430185D02*
G01*
X160341009Y-88482989D01*
X160350953Y-88552147D01*
X160347990Y-88566593D01*
X160294938Y-88764586D01*
X160294936Y-88764596D01*
X160274341Y-88999999D01*
X160274341Y-89000000D01*
X160294936Y-89235403D01*
X160294938Y-89235413D01*
X160356094Y-89463655D01*
X160356096Y-89463659D01*
X160356097Y-89463663D01*
X160455965Y-89677830D01*
X160455967Y-89677834D01*
X160510685Y-89755979D01*
X160533012Y-89822185D01*
X160516002Y-89889952D01*
X160496791Y-89914783D01*
X153948395Y-96463181D01*
X153887072Y-96496666D01*
X153860714Y-96499500D01*
X152540950Y-96499500D01*
X152473911Y-96479815D01*
X152428156Y-96427011D01*
X152418212Y-96357853D01*
X152439161Y-96306235D01*
X152438686Y-96305944D01*
X152440444Y-96303074D01*
X152440630Y-96302617D01*
X152440845Y-96302320D01*
X152441232Y-96301788D01*
X152519873Y-96147445D01*
X152573402Y-95982701D01*
X152600500Y-95811611D01*
X152600500Y-95391519D01*
X152620185Y-95324480D01*
X152636819Y-95303838D01*
X159493838Y-88446819D01*
X159555161Y-88413334D01*
X159581519Y-88410500D01*
X160228215Y-88410500D01*
X160295254Y-88430185D01*
G37*
%TD.AperFunction*%
%TA.AperFunction,Conductor*%
G36*
X164792539Y-88430185D02*
G01*
X164838294Y-88482989D01*
X164849500Y-88534500D01*
X164849500Y-88588691D01*
X164850097Y-88594753D01*
X164847304Y-88595028D01*
X164842139Y-88652643D01*
X164814438Y-88694904D01*
X163956162Y-89553181D01*
X163894839Y-89586666D01*
X163868481Y-89589500D01*
X163031785Y-89589500D01*
X162964746Y-89569815D01*
X162918991Y-89517011D01*
X162909047Y-89447853D01*
X162912010Y-89433407D01*
X162920827Y-89400500D01*
X162965063Y-89235408D01*
X162985659Y-89000000D01*
X162965063Y-88764592D01*
X162912010Y-88566593D01*
X162913673Y-88496743D01*
X162952836Y-88438881D01*
X163017064Y-88411377D01*
X163031785Y-88410500D01*
X164725500Y-88410500D01*
X164792539Y-88430185D01*
G37*
%TD.AperFunction*%
%TA.AperFunction,Conductor*%
G36*
X164165165Y-72170185D02*
G01*
X164185807Y-72186819D01*
X164186660Y-72187672D01*
X164220145Y-72248995D01*
X164215161Y-72318687D01*
X164186663Y-72363031D01*
X164177428Y-72372265D01*
X164177424Y-72372271D01*
X164088457Y-72516507D01*
X164088452Y-72516518D01*
X164035144Y-72677393D01*
X164025000Y-72776677D01*
X164025000Y-72800000D01*
X165974999Y-72800000D01*
X165974999Y-72776692D01*
X165974998Y-72776677D01*
X165964855Y-72677392D01*
X165911547Y-72516518D01*
X165911542Y-72516507D01*
X165822575Y-72372271D01*
X165822572Y-72372267D01*
X165813339Y-72363034D01*
X165779854Y-72301711D01*
X165784838Y-72232019D01*
X165813437Y-72187574D01*
X165814296Y-72186716D01*
X165875659Y-72153303D01*
X165901875Y-72150500D01*
X167679192Y-72150500D01*
X167746231Y-72170185D01*
X167766873Y-72186819D01*
X169652290Y-74072236D01*
X169685775Y-74133559D01*
X169684384Y-74192008D01*
X169664937Y-74264589D01*
X169664937Y-74264590D01*
X169644341Y-74499999D01*
X169644341Y-74500000D01*
X169664936Y-74735403D01*
X169664938Y-74735413D01*
X169707272Y-74893407D01*
X169705609Y-74963257D01*
X169666446Y-75021119D01*
X169602218Y-75048623D01*
X169587497Y-75049500D01*
X163890808Y-75049500D01*
X163823769Y-75029815D01*
X163803127Y-75013181D01*
X162977709Y-74187763D01*
X162944224Y-74126440D01*
X162945615Y-74067989D01*
X162946545Y-74064517D01*
X162965063Y-73995408D01*
X162985659Y-73760000D01*
X162965063Y-73524592D01*
X162911134Y-73323322D01*
X164025001Y-73323322D01*
X164035144Y-73422607D01*
X164088452Y-73583481D01*
X164088457Y-73583492D01*
X164177424Y-73727728D01*
X164177427Y-73727732D01*
X164297267Y-73847572D01*
X164297271Y-73847575D01*
X164441507Y-73936542D01*
X164441518Y-73936547D01*
X164602393Y-73989855D01*
X164701683Y-73999999D01*
X165250000Y-73999999D01*
X165298308Y-73999999D01*
X165298322Y-73999998D01*
X165397607Y-73989855D01*
X165558481Y-73936547D01*
X165558492Y-73936542D01*
X165702728Y-73847575D01*
X165702732Y-73847572D01*
X165822572Y-73727732D01*
X165822575Y-73727728D01*
X165911542Y-73583492D01*
X165911547Y-73583481D01*
X165964855Y-73422606D01*
X165974999Y-73323322D01*
X165975000Y-73323309D01*
X165975000Y-73300000D01*
X165250000Y-73300000D01*
X165250000Y-73999999D01*
X164701683Y-73999999D01*
X164749999Y-73999998D01*
X164750000Y-73999998D01*
X164750000Y-73300000D01*
X164025001Y-73300000D01*
X164025001Y-73323322D01*
X162911134Y-73323322D01*
X162906376Y-73305565D01*
X162903905Y-73296344D01*
X162903904Y-73296343D01*
X162903903Y-73296337D01*
X162804035Y-73082171D01*
X162699305Y-72932601D01*
X162676980Y-72866399D01*
X162693990Y-72798631D01*
X162713197Y-72773804D01*
X163300184Y-72186819D01*
X163361507Y-72153334D01*
X163387865Y-72150500D01*
X164098126Y-72150500D01*
X164165165Y-72170185D01*
G37*
%TD.AperFunction*%
%TA.AperFunction,Conductor*%
G36*
X169566052Y-65376406D02*
G01*
X169621985Y-65418278D01*
X169646246Y-65481780D01*
X169664936Y-65695403D01*
X169664938Y-65695413D01*
X169726094Y-65923655D01*
X169726096Y-65923659D01*
X169726097Y-65923663D01*
X169761694Y-66000000D01*
X169826242Y-66138425D01*
X169836734Y-66207503D01*
X169808214Y-66271287D01*
X169801541Y-66278511D01*
X165543947Y-70536105D01*
X165482624Y-70569590D01*
X165417263Y-70566130D01*
X165397711Y-70559651D01*
X165298346Y-70549500D01*
X164701662Y-70549500D01*
X164701644Y-70549501D01*
X164602292Y-70559650D01*
X164602289Y-70559651D01*
X164441305Y-70612996D01*
X164441294Y-70613001D01*
X164296959Y-70702029D01*
X164296955Y-70702032D01*
X164185807Y-70813181D01*
X164124484Y-70846666D01*
X164098126Y-70849500D01*
X163219807Y-70849500D01*
X163152768Y-70829815D01*
X163107013Y-70777011D01*
X163097069Y-70707853D01*
X163126094Y-70644297D01*
X163132126Y-70637819D01*
X163775219Y-69994727D01*
X164583127Y-69186819D01*
X164644450Y-69153334D01*
X164670808Y-69150500D01*
X165484071Y-69150500D01*
X165568615Y-69133682D01*
X165609744Y-69125501D01*
X165728127Y-69076465D01*
X165834669Y-69005277D01*
X169435039Y-65404905D01*
X169496360Y-65371422D01*
X169566052Y-65376406D01*
G37*
%TD.AperFunction*%
%TA.AperFunction,Conductor*%
G36*
X169761678Y-61570780D02*
G01*
X169792649Y-61587692D01*
X169907665Y-61673793D01*
X169907668Y-61673795D01*
X169907671Y-61673797D01*
X170039081Y-61722810D01*
X170095015Y-61764681D01*
X170119432Y-61830145D01*
X170104580Y-61898418D01*
X170083430Y-61926673D01*
X169961503Y-62048600D01*
X169825965Y-62242169D01*
X169825964Y-62242171D01*
X169726098Y-62456335D01*
X169726094Y-62456344D01*
X169664938Y-62684586D01*
X169664936Y-62684596D01*
X169644341Y-62919999D01*
X169644341Y-62920000D01*
X169664936Y-63155403D01*
X169664939Y-63155416D01*
X169684384Y-63227989D01*
X169682721Y-63297839D01*
X169652290Y-63347762D01*
X165186873Y-67813181D01*
X165125550Y-67846666D01*
X165099192Y-67849500D01*
X164285929Y-67849500D01*
X164160261Y-67874497D01*
X164160255Y-67874499D01*
X164041874Y-67923534D01*
X163935326Y-67994726D01*
X163194962Y-68735090D01*
X163133639Y-68768575D01*
X163063947Y-68763591D01*
X163008014Y-68721719D01*
X162983753Y-68658217D01*
X162976892Y-68579794D01*
X162965063Y-68444592D01*
X162945614Y-68372007D01*
X162947277Y-68302162D01*
X162977706Y-68252238D01*
X169630665Y-61599279D01*
X169691986Y-61565796D01*
X169761678Y-61570780D01*
G37*
%TD.AperFunction*%
%TA.AperFunction,Conductor*%
G36*
X170002702Y-50500617D02*
G01*
X170386771Y-50517386D01*
X170397506Y-50518326D01*
X170775971Y-50568152D01*
X170786597Y-50570025D01*
X171159284Y-50652648D01*
X171169710Y-50655442D01*
X171533765Y-50770227D01*
X171543911Y-50773920D01*
X171896578Y-50920000D01*
X171906369Y-50924566D01*
X172244942Y-51100816D01*
X172254310Y-51106224D01*
X172576244Y-51311318D01*
X172585105Y-51317523D01*
X172887930Y-51549889D01*
X172896217Y-51556843D01*
X173177635Y-51814715D01*
X173185284Y-51822364D01*
X173443156Y-52103782D01*
X173450110Y-52112069D01*
X173682476Y-52414894D01*
X173688681Y-52423755D01*
X173893775Y-52745689D01*
X173899183Y-52755057D01*
X174075430Y-53093623D01*
X174080002Y-53103427D01*
X174226075Y-53456078D01*
X174229775Y-53466244D01*
X174344554Y-53830278D01*
X174347354Y-53840727D01*
X174429971Y-54213389D01*
X174431849Y-54224042D01*
X174481671Y-54602473D01*
X174482614Y-54613249D01*
X174499382Y-54997297D01*
X174499500Y-55002706D01*
X174499500Y-94997293D01*
X174499382Y-95002702D01*
X174482614Y-95386750D01*
X174481671Y-95397526D01*
X174431849Y-95775957D01*
X174429971Y-95786610D01*
X174347354Y-96159272D01*
X174344554Y-96169721D01*
X174229775Y-96533755D01*
X174226075Y-96543921D01*
X174080002Y-96896572D01*
X174075430Y-96906376D01*
X173899183Y-97244942D01*
X173893775Y-97254310D01*
X173688681Y-97576244D01*
X173682476Y-97585105D01*
X173450110Y-97887930D01*
X173443156Y-97896217D01*
X173185284Y-98177635D01*
X173177635Y-98185284D01*
X172896217Y-98443156D01*
X172887930Y-98450110D01*
X172585105Y-98682476D01*
X172576244Y-98688681D01*
X172254310Y-98893775D01*
X172244942Y-98899183D01*
X171906376Y-99075430D01*
X171896572Y-99080002D01*
X171543921Y-99226075D01*
X171533755Y-99229775D01*
X171169721Y-99344554D01*
X171159272Y-99347354D01*
X170786610Y-99429971D01*
X170775957Y-99431849D01*
X170397526Y-99481671D01*
X170386750Y-99482614D01*
X170002703Y-99499382D01*
X169997294Y-99499500D01*
X130002706Y-99499500D01*
X129997297Y-99499382D01*
X129613249Y-99482614D01*
X129602473Y-99481671D01*
X129224042Y-99431849D01*
X129213389Y-99429971D01*
X128840727Y-99347354D01*
X128830278Y-99344554D01*
X128466244Y-99229775D01*
X128456078Y-99226075D01*
X128103427Y-99080002D01*
X128093623Y-99075430D01*
X127755057Y-98899183D01*
X127745689Y-98893775D01*
X127423755Y-98688681D01*
X127414894Y-98682476D01*
X127112069Y-98450110D01*
X127103782Y-98443156D01*
X126822364Y-98185284D01*
X126814715Y-98177635D01*
X126556843Y-97896217D01*
X126549889Y-97887930D01*
X126317523Y-97585105D01*
X126311318Y-97576244D01*
X126114306Y-97266997D01*
X126106223Y-97254309D01*
X126100816Y-97244942D01*
X125924569Y-96906376D01*
X125919997Y-96896572D01*
X125773920Y-96543911D01*
X125770224Y-96533755D01*
X125655442Y-96169710D01*
X125652648Y-96159284D01*
X125570025Y-95786597D01*
X125568152Y-95775971D01*
X125518326Y-95397506D01*
X125517386Y-95386771D01*
X125500618Y-95002702D01*
X125500559Y-94999994D01*
X127494556Y-94999994D01*
X127494556Y-95000005D01*
X127514310Y-95314004D01*
X127514311Y-95314011D01*
X127537363Y-95434855D01*
X127565338Y-95581505D01*
X127573270Y-95623083D01*
X127670497Y-95922316D01*
X127670499Y-95922321D01*
X127804461Y-96207003D01*
X127804464Y-96207009D01*
X127973051Y-96472661D01*
X127973054Y-96472665D01*
X128173606Y-96715090D01*
X128173608Y-96715092D01*
X128173610Y-96715094D01*
X128323024Y-96855403D01*
X128402968Y-96930476D01*
X128402978Y-96930484D01*
X128657504Y-97115408D01*
X128657509Y-97115410D01*
X128657516Y-97115416D01*
X128933234Y-97266994D01*
X128933239Y-97266996D01*
X128933241Y-97266997D01*
X128933242Y-97266998D01*
X129225771Y-97382818D01*
X129225774Y-97382819D01*
X129530523Y-97461065D01*
X129530527Y-97461066D01*
X129596010Y-97469338D01*
X129842670Y-97500499D01*
X129842679Y-97500499D01*
X129842682Y-97500500D01*
X129842684Y-97500500D01*
X130157316Y-97500500D01*
X130157318Y-97500500D01*
X130157321Y-97500499D01*
X130157329Y-97500499D01*
X130343593Y-97476968D01*
X130469473Y-97461066D01*
X130774225Y-97382819D01*
X130774228Y-97382818D01*
X131066757Y-97266998D01*
X131066758Y-97266997D01*
X131066756Y-97266997D01*
X131066766Y-97266994D01*
X131342484Y-97115416D01*
X131597030Y-96930478D01*
X131826390Y-96715094D01*
X132026947Y-96472663D01*
X132195537Y-96207007D01*
X132329503Y-95922315D01*
X132426731Y-95623079D01*
X132485688Y-95314015D01*
X132485689Y-95314004D01*
X132505444Y-95000005D01*
X132505444Y-94999994D01*
X132485689Y-94685995D01*
X132485688Y-94685988D01*
X132485688Y-94685985D01*
X132426731Y-94376921D01*
X132329503Y-94077685D01*
X132328004Y-94074500D01*
X132244376Y-93896782D01*
X132195537Y-93792993D01*
X132090067Y-93626798D01*
X132026948Y-93527338D01*
X132026945Y-93527334D01*
X131826393Y-93284909D01*
X131826391Y-93284907D01*
X131745132Y-93208599D01*
X131597030Y-93069522D01*
X131597027Y-93069520D01*
X131597021Y-93069515D01*
X131342495Y-92884591D01*
X131342488Y-92884586D01*
X131342484Y-92884584D01*
X131066766Y-92733006D01*
X131066763Y-92733004D01*
X131066758Y-92733002D01*
X131066757Y-92733001D01*
X130774228Y-92617181D01*
X130774225Y-92617180D01*
X130469476Y-92538934D01*
X130469463Y-92538932D01*
X130157329Y-92499500D01*
X130157318Y-92499500D01*
X129842682Y-92499500D01*
X129842670Y-92499500D01*
X129530536Y-92538932D01*
X129530523Y-92538934D01*
X129225774Y-92617180D01*
X129225771Y-92617181D01*
X128933242Y-92733001D01*
X128933241Y-92733002D01*
X128657516Y-92884584D01*
X128657504Y-92884591D01*
X128402978Y-93069515D01*
X128402968Y-93069523D01*
X128173608Y-93284907D01*
X128173606Y-93284909D01*
X127973054Y-93527334D01*
X127973051Y-93527338D01*
X127804464Y-93792990D01*
X127804461Y-93792996D01*
X127670499Y-94077678D01*
X127670497Y-94077683D01*
X127573270Y-94376916D01*
X127514311Y-94685988D01*
X127514310Y-94685995D01*
X127494556Y-94999994D01*
X125500559Y-94999994D01*
X125500500Y-94997293D01*
X125500500Y-88856582D01*
X128400001Y-88856582D01*
X128406408Y-88927102D01*
X128406409Y-88927107D01*
X128456981Y-89089396D01*
X128544927Y-89234877D01*
X128665122Y-89355072D01*
X128810604Y-89443019D01*
X128810603Y-89443019D01*
X128972894Y-89493590D01*
X128972893Y-89493590D01*
X129043408Y-89499998D01*
X129043426Y-89499999D01*
X129550000Y-89499999D01*
X129556581Y-89499999D01*
X129627102Y-89493591D01*
X129627107Y-89493590D01*
X129789396Y-89443018D01*
X129934877Y-89355072D01*
X130055072Y-89234877D01*
X130143019Y-89089395D01*
X130193590Y-88927106D01*
X130200000Y-88856572D01*
X130200000Y-88250000D01*
X129550000Y-88250000D01*
X129550000Y-89499999D01*
X129043426Y-89499999D01*
X129049999Y-89499998D01*
X129050000Y-89499998D01*
X129050000Y-88250000D01*
X128400001Y-88250000D01*
X128400001Y-88856582D01*
X125500500Y-88856582D01*
X125500500Y-87143427D01*
X128400000Y-87143427D01*
X128400000Y-87750000D01*
X129050000Y-87750000D01*
X129550000Y-87750000D01*
X130199999Y-87750000D01*
X130199999Y-87143417D01*
X130193591Y-87072897D01*
X130193590Y-87072892D01*
X130143018Y-86910603D01*
X130055072Y-86765122D01*
X129934877Y-86644927D01*
X129789395Y-86556980D01*
X129789396Y-86556980D01*
X129627105Y-86506409D01*
X129627106Y-86506409D01*
X129556572Y-86500000D01*
X129550000Y-86500000D01*
X129550000Y-87750000D01*
X129050000Y-87750000D01*
X129050000Y-86500000D01*
X129049999Y-86499999D01*
X129043436Y-86500000D01*
X129043417Y-86500001D01*
X128972897Y-86506408D01*
X128972892Y-86506409D01*
X128810603Y-86556981D01*
X128665122Y-86644927D01*
X128544927Y-86765122D01*
X128456980Y-86910604D01*
X128406409Y-87072893D01*
X128400000Y-87143427D01*
X125500500Y-87143427D01*
X125500500Y-76856582D01*
X128500001Y-76856582D01*
X128506408Y-76927102D01*
X128506409Y-76927107D01*
X128556981Y-77089396D01*
X128644927Y-77234877D01*
X128765122Y-77355072D01*
X128910604Y-77443019D01*
X128910603Y-77443019D01*
X129072894Y-77493590D01*
X129072893Y-77493590D01*
X129143408Y-77499998D01*
X129143426Y-77499999D01*
X129650000Y-77499999D01*
X129656581Y-77499999D01*
X129727102Y-77493591D01*
X129727107Y-77493590D01*
X129889396Y-77443018D01*
X130034877Y-77355072D01*
X130155072Y-77234877D01*
X130243019Y-77089395D01*
X130293590Y-76927106D01*
X130300000Y-76856572D01*
X130300000Y-76250000D01*
X129650000Y-76250000D01*
X129650000Y-77499999D01*
X129143426Y-77499999D01*
X129149999Y-77499998D01*
X129150000Y-77499998D01*
X129150000Y-76250000D01*
X128500001Y-76250000D01*
X128500001Y-76856582D01*
X125500500Y-76856582D01*
X125500500Y-75143427D01*
X128500000Y-75143427D01*
X128500000Y-75750000D01*
X129150000Y-75750000D01*
X129650000Y-75750000D01*
X130299999Y-75750000D01*
X130299999Y-75143417D01*
X130293591Y-75072897D01*
X130293590Y-75072892D01*
X130243018Y-74910603D01*
X130155072Y-74765122D01*
X130034877Y-74644927D01*
X129889395Y-74556980D01*
X129889396Y-74556980D01*
X129727105Y-74506409D01*
X129727106Y-74506409D01*
X129656572Y-74500000D01*
X129650000Y-74500000D01*
X129650000Y-75750000D01*
X129150000Y-75750000D01*
X129150000Y-74500000D01*
X129149999Y-74499999D01*
X129143436Y-74500000D01*
X129143417Y-74500001D01*
X129072897Y-74506408D01*
X129072892Y-74506409D01*
X128910603Y-74556981D01*
X128765122Y-74644927D01*
X128644927Y-74765122D01*
X128556980Y-74910604D01*
X128506409Y-75072893D01*
X128500000Y-75143427D01*
X125500500Y-75143427D01*
X125500500Y-61298322D01*
X127000001Y-61298322D01*
X127010144Y-61397607D01*
X127063452Y-61558481D01*
X127063457Y-61558492D01*
X127152424Y-61702728D01*
X127152427Y-61702732D01*
X127272267Y-61822572D01*
X127272271Y-61822575D01*
X127416507Y-61911542D01*
X127416518Y-61911547D01*
X127577393Y-61964855D01*
X127676683Y-61974999D01*
X127700000Y-61974998D01*
X127700000Y-61500000D01*
X128000000Y-61500000D01*
X128000000Y-66000000D01*
X135000000Y-66000000D01*
X135000000Y-65847896D01*
X135019685Y-65780857D01*
X135072489Y-65735102D01*
X135141647Y-65725158D01*
X135164955Y-65730855D01*
X135320737Y-65785366D01*
X135320743Y-65785367D01*
X135320745Y-65785368D01*
X135320746Y-65785368D01*
X135320750Y-65785369D01*
X135499996Y-65805565D01*
X135500000Y-65805565D01*
X135500004Y-65805565D01*
X135679249Y-65785369D01*
X135679252Y-65785368D01*
X135679255Y-65785368D01*
X135849522Y-65725789D01*
X136002262Y-65629816D01*
X136129816Y-65502262D01*
X136225789Y-65349522D01*
X136285368Y-65179255D01*
X136285369Y-65179249D01*
X136305565Y-65000003D01*
X136305565Y-64999996D01*
X136285369Y-64820750D01*
X136285368Y-64820745D01*
X136225788Y-64650475D01*
X136172691Y-64565973D01*
X136153690Y-64498736D01*
X136172691Y-64434027D01*
X136225788Y-64349524D01*
X136225789Y-64349522D01*
X136285368Y-64179255D01*
X136285369Y-64179249D01*
X136305565Y-64000003D01*
X136305565Y-63999996D01*
X136285369Y-63820750D01*
X136285368Y-63820745D01*
X136225788Y-63650476D01*
X136129815Y-63497737D01*
X136002262Y-63370184D01*
X135849523Y-63274211D01*
X135679254Y-63214631D01*
X135679250Y-63214630D01*
X135493083Y-63193655D01*
X135493088Y-63193606D01*
X135477309Y-63192052D01*
X135451909Y-63186999D01*
X135389071Y-63174500D01*
X135389069Y-63174500D01*
X135124000Y-63174500D01*
X135056961Y-63154815D01*
X135011206Y-63102011D01*
X135000000Y-63050500D01*
X135000000Y-62749500D01*
X135019685Y-62682461D01*
X135072489Y-62636706D01*
X135124000Y-62625500D01*
X135169832Y-62625500D01*
X135254376Y-62608682D01*
X135295505Y-62600501D01*
X135413888Y-62551465D01*
X135414882Y-62550800D01*
X135415388Y-62550463D01*
X135467908Y-62515370D01*
X135520430Y-62480277D01*
X136253888Y-61746819D01*
X136315211Y-61713334D01*
X136341569Y-61710500D01*
X137512278Y-61710500D01*
X137579317Y-61730185D01*
X137613853Y-61763377D01*
X137731501Y-61931396D01*
X137731506Y-61931402D01*
X137898597Y-62098493D01*
X137898603Y-62098498D01*
X138084158Y-62228425D01*
X138127783Y-62283002D01*
X138134977Y-62352500D01*
X138103454Y-62414855D01*
X138084158Y-62431575D01*
X137898597Y-62561505D01*
X137731505Y-62728597D01*
X137595965Y-62922169D01*
X137595964Y-62922171D01*
X137496098Y-63136335D01*
X137496094Y-63136344D01*
X137434938Y-63364586D01*
X137434936Y-63364596D01*
X137414341Y-63599999D01*
X137414341Y-63600000D01*
X137434936Y-63835403D01*
X137434938Y-63835413D01*
X137496094Y-64063655D01*
X137496096Y-64063659D01*
X137496097Y-64063663D01*
X137544517Y-64167500D01*
X137595965Y-64277830D01*
X137595967Y-64277834D01*
X137731501Y-64471395D01*
X137731506Y-64471402D01*
X137898597Y-64638493D01*
X137898603Y-64638498D01*
X138084158Y-64768425D01*
X138127783Y-64823002D01*
X138134977Y-64892500D01*
X138103454Y-64954855D01*
X138084158Y-64971575D01*
X137898597Y-65101505D01*
X137731505Y-65268597D01*
X137595965Y-65462169D01*
X137595964Y-65462171D01*
X137496098Y-65676335D01*
X137496094Y-65676344D01*
X137434938Y-65904586D01*
X137434936Y-65904596D01*
X137414341Y-66139999D01*
X137414341Y-66140000D01*
X137434936Y-66375403D01*
X137434938Y-66375413D01*
X137496094Y-66603655D01*
X137496096Y-66603659D01*
X137496097Y-66603663D01*
X137585349Y-66795063D01*
X137595965Y-66817830D01*
X137595967Y-66817834D01*
X137731501Y-67011395D01*
X137731506Y-67011402D01*
X137898597Y-67178493D01*
X137898603Y-67178498D01*
X138084158Y-67308425D01*
X138127783Y-67363002D01*
X138134977Y-67432500D01*
X138103454Y-67494855D01*
X138084158Y-67511575D01*
X137898597Y-67641505D01*
X137731505Y-67808597D01*
X137595965Y-68002169D01*
X137595964Y-68002171D01*
X137496098Y-68216335D01*
X137496094Y-68216344D01*
X137434938Y-68444586D01*
X137434936Y-68444596D01*
X137414341Y-68679999D01*
X137414341Y-68680000D01*
X137434936Y-68915403D01*
X137434938Y-68915413D01*
X137496094Y-69143655D01*
X137496096Y-69143659D01*
X137496097Y-69143663D01*
X137550745Y-69260855D01*
X137595965Y-69357830D01*
X137595967Y-69357834D01*
X137731501Y-69551395D01*
X137731506Y-69551402D01*
X137898597Y-69718493D01*
X137898603Y-69718498D01*
X138084158Y-69848425D01*
X138127783Y-69903002D01*
X138134977Y-69972500D01*
X138103454Y-70034855D01*
X138084158Y-70051575D01*
X137898597Y-70181505D01*
X137731505Y-70348597D01*
X137595965Y-70542169D01*
X137595964Y-70542171D01*
X137496098Y-70756335D01*
X137496094Y-70756344D01*
X137434938Y-70984586D01*
X137434936Y-70984596D01*
X137414341Y-71219999D01*
X137414341Y-71220000D01*
X137434936Y-71455403D01*
X137434938Y-71455413D01*
X137496094Y-71683655D01*
X137496096Y-71683659D01*
X137496097Y-71683663D01*
X137565090Y-71831619D01*
X137595965Y-71897830D01*
X137595967Y-71897834D01*
X137731501Y-72091395D01*
X137731506Y-72091402D01*
X137898597Y-72258493D01*
X137898603Y-72258498D01*
X138084158Y-72388425D01*
X138127783Y-72443002D01*
X138134977Y-72512500D01*
X138103454Y-72574855D01*
X138084158Y-72591575D01*
X137898597Y-72721505D01*
X137731505Y-72888597D01*
X137595965Y-73082169D01*
X137595964Y-73082171D01*
X137496098Y-73296335D01*
X137496094Y-73296344D01*
X137434938Y-73524586D01*
X137434936Y-73524596D01*
X137414341Y-73759999D01*
X137414341Y-73760000D01*
X137434936Y-73995403D01*
X137434938Y-73995413D01*
X137496094Y-74223655D01*
X137496096Y-74223659D01*
X137496097Y-74223663D01*
X137515182Y-74264590D01*
X137595965Y-74437830D01*
X137595967Y-74437834D01*
X137696643Y-74581613D01*
X137731501Y-74631396D01*
X137731506Y-74631402D01*
X137898597Y-74798493D01*
X137898603Y-74798498D01*
X138084158Y-74928425D01*
X138127783Y-74983002D01*
X138134977Y-75052500D01*
X138103454Y-75114855D01*
X138084158Y-75131575D01*
X137898597Y-75261505D01*
X137731505Y-75428597D01*
X137595965Y-75622169D01*
X137595964Y-75622171D01*
X137496098Y-75836335D01*
X137496094Y-75836344D01*
X137434938Y-76064586D01*
X137434936Y-76064596D01*
X137414341Y-76299999D01*
X137414341Y-76300000D01*
X137434936Y-76535403D01*
X137434938Y-76535413D01*
X137496094Y-76763655D01*
X137496096Y-76763659D01*
X137496097Y-76763663D01*
X137572352Y-76927192D01*
X137595965Y-76977830D01*
X137595967Y-76977834D01*
X137731501Y-77171395D01*
X137731506Y-77171402D01*
X137898597Y-77338493D01*
X137898603Y-77338498D01*
X138084158Y-77468425D01*
X138127783Y-77523002D01*
X138134977Y-77592500D01*
X138103454Y-77654855D01*
X138084158Y-77671575D01*
X137898597Y-77801505D01*
X137731505Y-77968597D01*
X137595965Y-78162169D01*
X137595964Y-78162171D01*
X137496098Y-78376335D01*
X137496094Y-78376344D01*
X137434938Y-78604586D01*
X137434936Y-78604596D01*
X137414341Y-78839999D01*
X137414341Y-78840000D01*
X137434936Y-79075403D01*
X137434938Y-79075413D01*
X137496094Y-79303655D01*
X137496096Y-79303659D01*
X137496097Y-79303663D01*
X137595965Y-79517830D01*
X137595967Y-79517834D01*
X137731501Y-79711395D01*
X137731506Y-79711402D01*
X137898597Y-79878493D01*
X137898603Y-79878498D01*
X138084158Y-80008425D01*
X138127783Y-80063002D01*
X138134977Y-80132500D01*
X138103454Y-80194855D01*
X138084158Y-80211575D01*
X137898597Y-80341505D01*
X137731505Y-80508597D01*
X137595965Y-80702169D01*
X137595964Y-80702171D01*
X137496098Y-80916335D01*
X137496094Y-80916344D01*
X137434938Y-81144586D01*
X137434936Y-81144596D01*
X137414341Y-81379999D01*
X137414341Y-81380000D01*
X137434936Y-81615403D01*
X137434938Y-81615413D01*
X137496094Y-81843655D01*
X137496096Y-81843659D01*
X137496097Y-81843663D01*
X137595965Y-82057830D01*
X137595967Y-82057834D01*
X137731501Y-82251395D01*
X137731506Y-82251402D01*
X137898597Y-82418493D01*
X137898603Y-82418498D01*
X138084158Y-82548425D01*
X138127783Y-82603002D01*
X138134977Y-82672500D01*
X138103454Y-82734855D01*
X138084158Y-82751575D01*
X137898597Y-82881505D01*
X137731505Y-83048597D01*
X137595965Y-83242169D01*
X137595964Y-83242171D01*
X137496098Y-83456335D01*
X137496094Y-83456344D01*
X137434938Y-83684586D01*
X137434936Y-83684596D01*
X137414341Y-83919999D01*
X137414341Y-83920000D01*
X137434936Y-84155403D01*
X137434938Y-84155413D01*
X137496094Y-84383655D01*
X137496096Y-84383659D01*
X137496097Y-84383663D01*
X137595965Y-84597830D01*
X137595967Y-84597834D01*
X137731501Y-84791395D01*
X137731506Y-84791402D01*
X137898597Y-84958493D01*
X137898603Y-84958498D01*
X138084158Y-85088425D01*
X138127783Y-85143002D01*
X138134977Y-85212500D01*
X138103454Y-85274855D01*
X138084158Y-85291575D01*
X137898597Y-85421505D01*
X137731505Y-85588597D01*
X137595965Y-85782169D01*
X137595964Y-85782171D01*
X137496098Y-85996335D01*
X137496094Y-85996344D01*
X137434938Y-86224586D01*
X137434936Y-86224596D01*
X137414341Y-86459999D01*
X137414341Y-86460000D01*
X137434936Y-86695403D01*
X137434938Y-86695413D01*
X137496094Y-86923655D01*
X137496096Y-86923659D01*
X137496097Y-86923663D01*
X137528609Y-86993384D01*
X137595965Y-87137830D01*
X137595967Y-87137834D01*
X137651350Y-87216928D01*
X137726650Y-87324468D01*
X137731501Y-87331395D01*
X137731506Y-87331402D01*
X137898597Y-87498493D01*
X137898603Y-87498498D01*
X138084158Y-87628425D01*
X138127783Y-87683002D01*
X138134977Y-87752500D01*
X138103454Y-87814855D01*
X138084158Y-87831575D01*
X137898597Y-87961505D01*
X137731505Y-88128597D01*
X137595965Y-88322169D01*
X137595964Y-88322171D01*
X137496098Y-88536335D01*
X137496094Y-88536344D01*
X137434938Y-88764586D01*
X137434936Y-88764596D01*
X137414341Y-88999999D01*
X137414341Y-89000000D01*
X137434936Y-89235403D01*
X137434938Y-89235413D01*
X137496094Y-89463655D01*
X137496096Y-89463659D01*
X137496097Y-89463663D01*
X137595965Y-89677830D01*
X137595967Y-89677834D01*
X137731501Y-89871395D01*
X137731506Y-89871402D01*
X137898597Y-90038493D01*
X137898603Y-90038498D01*
X138084158Y-90168425D01*
X138127783Y-90223002D01*
X138134977Y-90292500D01*
X138103454Y-90354855D01*
X138084158Y-90371575D01*
X137898597Y-90501505D01*
X137731505Y-90668597D01*
X137595965Y-90862169D01*
X137595964Y-90862171D01*
X137496098Y-91076335D01*
X137496094Y-91076344D01*
X137434938Y-91304586D01*
X137434936Y-91304596D01*
X137416246Y-91518218D01*
X137390793Y-91583287D01*
X137334202Y-91624265D01*
X137264440Y-91628143D01*
X137205037Y-91595091D01*
X137186819Y-91576873D01*
X137153334Y-91515550D01*
X137150500Y-91489192D01*
X137150500Y-80435928D01*
X137125502Y-80310261D01*
X137125501Y-80310260D01*
X137125501Y-80310256D01*
X137076465Y-80191873D01*
X137065233Y-80175063D01*
X137005276Y-80085330D01*
X137005274Y-80085327D01*
X137005271Y-80085324D01*
X134342982Y-77423036D01*
X134309497Y-77361713D01*
X134314481Y-77292021D01*
X134342985Y-77247671D01*
X134355472Y-77235185D01*
X134443478Y-77089606D01*
X134494086Y-76927196D01*
X134500500Y-76856616D01*
X134500500Y-75143384D01*
X134494086Y-75072804D01*
X134443478Y-74910394D01*
X134355472Y-74764815D01*
X134355470Y-74764813D01*
X134355469Y-74764811D01*
X134235188Y-74644530D01*
X134089606Y-74556522D01*
X134063249Y-74548309D01*
X133927196Y-74505914D01*
X133927194Y-74505913D01*
X133927192Y-74505913D01*
X133877778Y-74501423D01*
X133856616Y-74499500D01*
X133343384Y-74499500D01*
X133324145Y-74501248D01*
X133272807Y-74505913D01*
X133110393Y-74556522D01*
X132964811Y-74644530D01*
X132844530Y-74764811D01*
X132756522Y-74910393D01*
X132705913Y-75072807D01*
X132699500Y-75143386D01*
X132699500Y-76856613D01*
X132705913Y-76927192D01*
X132705913Y-76927194D01*
X132705914Y-76927196D01*
X132756522Y-77089606D01*
X132844528Y-77235185D01*
X132913182Y-77303839D01*
X132946666Y-77365160D01*
X132949500Y-77391519D01*
X132949500Y-77664069D01*
X132949500Y-77664071D01*
X132949499Y-77664071D01*
X132974497Y-77789738D01*
X132974499Y-77789744D01*
X133023535Y-77908127D01*
X133094723Y-78014669D01*
X133094726Y-78014673D01*
X133094727Y-78014674D01*
X135813181Y-80733127D01*
X135846666Y-80794450D01*
X135849500Y-80820808D01*
X135849500Y-91874071D01*
X135869676Y-91975498D01*
X135869676Y-91975499D01*
X135874497Y-91999737D01*
X135874498Y-91999741D01*
X135874499Y-91999744D01*
X135923535Y-92118127D01*
X135990154Y-92217831D01*
X135994726Y-92224673D01*
X135994727Y-92224674D01*
X137422290Y-93652236D01*
X137455775Y-93713559D01*
X137454384Y-93772008D01*
X137434937Y-93844589D01*
X137434937Y-93844590D01*
X137416246Y-94058218D01*
X137390793Y-94123287D01*
X137334202Y-94164265D01*
X137264440Y-94168143D01*
X137205037Y-94135091D01*
X134186819Y-91116873D01*
X134153334Y-91055550D01*
X134150500Y-91029192D01*
X134150500Y-89391519D01*
X134170185Y-89324480D01*
X134186814Y-89303842D01*
X134255472Y-89235185D01*
X134343478Y-89089606D01*
X134394086Y-88927196D01*
X134400500Y-88856616D01*
X134400500Y-87143384D01*
X134394086Y-87072804D01*
X134343478Y-86910394D01*
X134255472Y-86764815D01*
X134255470Y-86764813D01*
X134255469Y-86764811D01*
X134135188Y-86644530D01*
X133989606Y-86556522D01*
X133931109Y-86538294D01*
X133827196Y-86505914D01*
X133827194Y-86505913D01*
X133827192Y-86505913D01*
X133777778Y-86501423D01*
X133756616Y-86499500D01*
X133243384Y-86499500D01*
X133224145Y-86501248D01*
X133172807Y-86505913D01*
X133010393Y-86556522D01*
X132864811Y-86644530D01*
X132744530Y-86764811D01*
X132656522Y-86910393D01*
X132605913Y-87072807D01*
X132599500Y-87143386D01*
X132599500Y-88856613D01*
X132605913Y-88927192D01*
X132605913Y-88927194D01*
X132605914Y-88927196D01*
X132656522Y-89089606D01*
X132744528Y-89235185D01*
X132813182Y-89303839D01*
X132846666Y-89365160D01*
X132849500Y-89391519D01*
X132849500Y-91414069D01*
X132866966Y-91501873D01*
X132874499Y-91539744D01*
X132923534Y-91658125D01*
X132994726Y-91764673D01*
X132994727Y-91764674D01*
X137422290Y-96192236D01*
X137455775Y-96253559D01*
X137454384Y-96312008D01*
X137434937Y-96384589D01*
X137434937Y-96384590D01*
X137414341Y-96619999D01*
X137414341Y-96620000D01*
X137434936Y-96855403D01*
X137434938Y-96855413D01*
X137496094Y-97083655D01*
X137496096Y-97083659D01*
X137496097Y-97083663D01*
X137510904Y-97115416D01*
X137595965Y-97297830D01*
X137595967Y-97297834D01*
X137655474Y-97382818D01*
X137731505Y-97491401D01*
X137898599Y-97658495D01*
X137995384Y-97726265D01*
X138092165Y-97794032D01*
X138092167Y-97794033D01*
X138092170Y-97794035D01*
X138306337Y-97893903D01*
X138306343Y-97893904D01*
X138306344Y-97893905D01*
X138361285Y-97908626D01*
X138534592Y-97955063D01*
X138722918Y-97971539D01*
X138769999Y-97975659D01*
X138770000Y-97975659D01*
X138770001Y-97975659D01*
X138809234Y-97972226D01*
X139005408Y-97955063D01*
X139233663Y-97893903D01*
X139447830Y-97794035D01*
X139641401Y-97658495D01*
X139808495Y-97491401D01*
X139944035Y-97297830D01*
X140043903Y-97083663D01*
X140105063Y-96855408D01*
X140125659Y-96620000D01*
X140105063Y-96384592D01*
X140046105Y-96164556D01*
X140043905Y-96156344D01*
X140043904Y-96156343D01*
X140043903Y-96156337D01*
X139944035Y-95942171D01*
X139930133Y-95922316D01*
X139808494Y-95748597D01*
X139641402Y-95581506D01*
X139641396Y-95581501D01*
X139455842Y-95451575D01*
X139412217Y-95396998D01*
X139405023Y-95327500D01*
X139436546Y-95265145D01*
X139455842Y-95248425D01*
X139485723Y-95227502D01*
X139641401Y-95118495D01*
X139808495Y-94951401D01*
X139944035Y-94757830D01*
X140043903Y-94543663D01*
X140105063Y-94315408D01*
X140125659Y-94080000D01*
X140125570Y-94078988D01*
X140105063Y-93844596D01*
X140105063Y-93844592D01*
X140043903Y-93616337D01*
X139944035Y-93402171D01*
X139861927Y-93284907D01*
X139808494Y-93208597D01*
X139641402Y-93041506D01*
X139641396Y-93041501D01*
X139455842Y-92911575D01*
X139412217Y-92856998D01*
X139405023Y-92787500D01*
X139436546Y-92725145D01*
X139455842Y-92708425D01*
X139478026Y-92692891D01*
X139641401Y-92578495D01*
X139808495Y-92411401D01*
X139944035Y-92217830D01*
X140043903Y-92003663D01*
X140105063Y-91775408D01*
X140125659Y-91540000D01*
X140105063Y-91304592D01*
X140043903Y-91076337D01*
X139944035Y-90862171D01*
X139924390Y-90834114D01*
X139808494Y-90668597D01*
X139641402Y-90501506D01*
X139641396Y-90501501D01*
X139455842Y-90371575D01*
X139412217Y-90316998D01*
X139405023Y-90247500D01*
X139436546Y-90185145D01*
X139455842Y-90168425D01*
X139478026Y-90152891D01*
X139641401Y-90038495D01*
X139808495Y-89871401D01*
X139944035Y-89677830D01*
X140043903Y-89463663D01*
X140105063Y-89235408D01*
X140125659Y-89000000D01*
X140105063Y-88764592D01*
X140043903Y-88536337D01*
X139944035Y-88322171D01*
X139808495Y-88128599D01*
X139808494Y-88128597D01*
X139641402Y-87961506D01*
X139641396Y-87961501D01*
X139455842Y-87831575D01*
X139412217Y-87776998D01*
X139405023Y-87707500D01*
X139436546Y-87645145D01*
X139455842Y-87628425D01*
X139557440Y-87557285D01*
X139641401Y-87498495D01*
X139808495Y-87331401D01*
X139944035Y-87137830D01*
X140043903Y-86923663D01*
X140105063Y-86695408D01*
X140125659Y-86460000D01*
X140105063Y-86224592D01*
X140043903Y-85996337D01*
X139944035Y-85782171D01*
X139808495Y-85588599D01*
X139808494Y-85588597D01*
X139641402Y-85421506D01*
X139641396Y-85421501D01*
X139455842Y-85291575D01*
X139412217Y-85236998D01*
X139405023Y-85167500D01*
X139436546Y-85105145D01*
X139455842Y-85088425D01*
X139478026Y-85072891D01*
X139641401Y-84958495D01*
X139808495Y-84791401D01*
X139944035Y-84597830D01*
X140043903Y-84383663D01*
X140105063Y-84155408D01*
X140125659Y-83920000D01*
X140105063Y-83684592D01*
X140043903Y-83456337D01*
X139944035Y-83242171D01*
X139808495Y-83048599D01*
X139808494Y-83048597D01*
X139641402Y-82881506D01*
X139641396Y-82881501D01*
X139455842Y-82751575D01*
X139412217Y-82696998D01*
X139405023Y-82627500D01*
X139436546Y-82565145D01*
X139455842Y-82548425D01*
X139478026Y-82532891D01*
X139641401Y-82418495D01*
X139808495Y-82251401D01*
X139944035Y-82057830D01*
X140043903Y-81843663D01*
X140105063Y-81615408D01*
X140125659Y-81380000D01*
X140105063Y-81144592D01*
X140043903Y-80916337D01*
X139944035Y-80702171D01*
X139808495Y-80508599D01*
X139808494Y-80508597D01*
X139641402Y-80341506D01*
X139641396Y-80341501D01*
X139455842Y-80211575D01*
X139412217Y-80156998D01*
X139405023Y-80087500D01*
X139436546Y-80025145D01*
X139455842Y-80008425D01*
X139478026Y-79992891D01*
X139641401Y-79878495D01*
X139808495Y-79711401D01*
X139944035Y-79517830D01*
X140043903Y-79303663D01*
X140105063Y-79075408D01*
X140125659Y-78840000D01*
X140105063Y-78604592D01*
X140043903Y-78376337D01*
X139944035Y-78162171D01*
X139840757Y-78014673D01*
X139808494Y-77968597D01*
X139641402Y-77801506D01*
X139641396Y-77801501D01*
X139455842Y-77671575D01*
X139412217Y-77616998D01*
X139405023Y-77547500D01*
X139436546Y-77485145D01*
X139455842Y-77468425D01*
X139608242Y-77361713D01*
X139641401Y-77338495D01*
X139808495Y-77171401D01*
X139944035Y-76977830D01*
X140043903Y-76763663D01*
X140105063Y-76535408D01*
X140125659Y-76300000D01*
X140105063Y-76064592D01*
X140043903Y-75836337D01*
X139944035Y-75622171D01*
X139808495Y-75428599D01*
X139808494Y-75428597D01*
X139641402Y-75261506D01*
X139641396Y-75261501D01*
X139455842Y-75131575D01*
X139412217Y-75076998D01*
X139405023Y-75007500D01*
X139436546Y-74945145D01*
X139455842Y-74928425D01*
X139618392Y-74814606D01*
X139641401Y-74798495D01*
X139808495Y-74631401D01*
X139866668Y-74548322D01*
X154525001Y-74548322D01*
X154535144Y-74647607D01*
X154588452Y-74808481D01*
X154588457Y-74808492D01*
X154677424Y-74952728D01*
X154677427Y-74952732D01*
X154797267Y-75072572D01*
X154797271Y-75072575D01*
X154941507Y-75161542D01*
X154941518Y-75161547D01*
X155102393Y-75214855D01*
X155201683Y-75224999D01*
X155750000Y-75224999D01*
X155798308Y-75224999D01*
X155798322Y-75224998D01*
X155897607Y-75214855D01*
X156058481Y-75161547D01*
X156058492Y-75161542D01*
X156202728Y-75072575D01*
X156202732Y-75072572D01*
X156322572Y-74952732D01*
X156322575Y-74952728D01*
X156411542Y-74808492D01*
X156411547Y-74808481D01*
X156464855Y-74647606D01*
X156474999Y-74548322D01*
X156475000Y-74548309D01*
X156475000Y-74525000D01*
X155750000Y-74525000D01*
X155750000Y-75224999D01*
X155201683Y-75224999D01*
X155249999Y-75224998D01*
X155250000Y-75224998D01*
X155250000Y-74525000D01*
X154525001Y-74525000D01*
X154525001Y-74548322D01*
X139866668Y-74548322D01*
X139944035Y-74437830D01*
X140043903Y-74223663D01*
X140105063Y-73995408D01*
X140125659Y-73760000D01*
X140105063Y-73524592D01*
X140046376Y-73305565D01*
X140043905Y-73296344D01*
X140043904Y-73296343D01*
X140043903Y-73296337D01*
X139944035Y-73082171D01*
X139888083Y-73002262D01*
X139808494Y-72888597D01*
X139641402Y-72721506D01*
X139641396Y-72721501D01*
X139455842Y-72591575D01*
X139412217Y-72536998D01*
X139405023Y-72467500D01*
X139436546Y-72405145D01*
X139455842Y-72388425D01*
X139511401Y-72349522D01*
X139641401Y-72258495D01*
X139808495Y-72091401D01*
X139944035Y-71897830D01*
X140043903Y-71683663D01*
X140105063Y-71455408D01*
X140118848Y-71297844D01*
X144200000Y-71297844D01*
X144206401Y-71357372D01*
X144206403Y-71357379D01*
X144256645Y-71492086D01*
X144256649Y-71492093D01*
X144342809Y-71607187D01*
X144342812Y-71607190D01*
X144457906Y-71693350D01*
X144457913Y-71693354D01*
X144592620Y-71743596D01*
X144592627Y-71743598D01*
X144652155Y-71749999D01*
X144652172Y-71750000D01*
X144950000Y-71750000D01*
X144950000Y-70750000D01*
X144200000Y-70750000D01*
X144200000Y-71297844D01*
X140118848Y-71297844D01*
X140125659Y-71220000D01*
X140105063Y-70984592D01*
X140043903Y-70756337D01*
X139944035Y-70542171D01*
X139808495Y-70348599D01*
X139808494Y-70348597D01*
X139641402Y-70181506D01*
X139641396Y-70181501D01*
X139455842Y-70051575D01*
X139412217Y-69996998D01*
X139405023Y-69927500D01*
X139436546Y-69865145D01*
X139455842Y-69848425D01*
X139482420Y-69829815D01*
X139641401Y-69718495D01*
X139657741Y-69702155D01*
X144200000Y-69702155D01*
X144200000Y-70250000D01*
X144950000Y-70250000D01*
X144950000Y-69250000D01*
X144652155Y-69250000D01*
X144592627Y-69256401D01*
X144592620Y-69256403D01*
X144457913Y-69306645D01*
X144457906Y-69306649D01*
X144342812Y-69392809D01*
X144342809Y-69392812D01*
X144256649Y-69507906D01*
X144256645Y-69507913D01*
X144206403Y-69642620D01*
X144206401Y-69642627D01*
X144200000Y-69702155D01*
X139657741Y-69702155D01*
X139808495Y-69551401D01*
X139944035Y-69357830D01*
X140043903Y-69143663D01*
X140105063Y-68915408D01*
X140125659Y-68680000D01*
X140105063Y-68444592D01*
X140043903Y-68216337D01*
X139944035Y-68002171D01*
X139896424Y-67934174D01*
X139808494Y-67808597D01*
X139641402Y-67641506D01*
X139641396Y-67641501D01*
X139455842Y-67511575D01*
X139412217Y-67456998D01*
X139405023Y-67387500D01*
X139436546Y-67325145D01*
X139455842Y-67308425D01*
X139478026Y-67292891D01*
X139641401Y-67178495D01*
X139808495Y-67011401D01*
X139944035Y-66817830D01*
X140043903Y-66603663D01*
X140105063Y-66375408D01*
X140125659Y-66140000D01*
X140125469Y-66137834D01*
X140113410Y-66000000D01*
X140105063Y-65904592D01*
X140043903Y-65676337D01*
X139944035Y-65462171D01*
X139942515Y-65459999D01*
X139808494Y-65268597D01*
X139641402Y-65101506D01*
X139641396Y-65101501D01*
X139455842Y-64971575D01*
X139412217Y-64916998D01*
X139405023Y-64847500D01*
X139436546Y-64785145D01*
X139455842Y-64768425D01*
X139478026Y-64752891D01*
X139641401Y-64638495D01*
X139808495Y-64471401D01*
X139944035Y-64277830D01*
X140043903Y-64063663D01*
X140105063Y-63835408D01*
X140125659Y-63600000D01*
X140125469Y-63597834D01*
X140116712Y-63497737D01*
X140105063Y-63364592D01*
X140043903Y-63136337D01*
X139944035Y-62922171D01*
X139942515Y-62919999D01*
X139808494Y-62728597D01*
X139641402Y-62561506D01*
X139641396Y-62561501D01*
X139455842Y-62431575D01*
X139412217Y-62376998D01*
X139405023Y-62307500D01*
X139436546Y-62245145D01*
X139455842Y-62228425D01*
X139478026Y-62212891D01*
X139641401Y-62098495D01*
X139778337Y-61961558D01*
X139839656Y-61928076D01*
X139909348Y-61933060D01*
X139953696Y-61961561D01*
X143494397Y-65502262D01*
X147029955Y-69037819D01*
X147063440Y-69099142D01*
X147058456Y-69168834D01*
X147016584Y-69224767D01*
X146951120Y-69249184D01*
X146942274Y-69249500D01*
X145952129Y-69249500D01*
X145952123Y-69249501D01*
X145892515Y-69255909D01*
X145884971Y-69257692D01*
X145884675Y-69256439D01*
X145822926Y-69260855D01*
X145809357Y-69256870D01*
X145807372Y-69256401D01*
X145747844Y-69250000D01*
X145450000Y-69250000D01*
X145450000Y-71750000D01*
X145583847Y-71750000D01*
X145650886Y-71769685D01*
X145696641Y-71822489D01*
X145707067Y-71887883D01*
X145694435Y-71999996D01*
X145694435Y-72000003D01*
X145714630Y-72179249D01*
X145714631Y-72179254D01*
X145774211Y-72349523D01*
X145862479Y-72490000D01*
X145870184Y-72502262D01*
X145997738Y-72629816D01*
X146073455Y-72677392D01*
X146143661Y-72721506D01*
X146150478Y-72725789D01*
X146320745Y-72785368D01*
X146320750Y-72785369D01*
X146499996Y-72805565D01*
X146500000Y-72805565D01*
X146500004Y-72805565D01*
X146679249Y-72785369D01*
X146679252Y-72785368D01*
X146679255Y-72785368D01*
X146849522Y-72725789D01*
X147002262Y-72629816D01*
X147129816Y-72502262D01*
X147225789Y-72349522D01*
X147285368Y-72179255D01*
X147285369Y-72179249D01*
X147305565Y-72000003D01*
X147305565Y-71999997D01*
X147292989Y-71888383D01*
X147305043Y-71819561D01*
X147352392Y-71768181D01*
X147416209Y-71750499D01*
X148347871Y-71750499D01*
X148347872Y-71750499D01*
X148407483Y-71744091D01*
X148542331Y-71693796D01*
X148657546Y-71607546D01*
X148743796Y-71492331D01*
X148794091Y-71357483D01*
X148800500Y-71297873D01*
X148800500Y-71274500D01*
X148820185Y-71207461D01*
X148872989Y-71161706D01*
X148924500Y-71150500D01*
X151679192Y-71150500D01*
X151746231Y-71170185D01*
X151766873Y-71186819D01*
X153178277Y-72598223D01*
X153211762Y-72659546D01*
X153213815Y-72672012D01*
X153214630Y-72679246D01*
X153214632Y-72679255D01*
X153274210Y-72849521D01*
X153350073Y-72970255D01*
X153370184Y-73002262D01*
X153497738Y-73129816D01*
X153588080Y-73186582D01*
X153650474Y-73225787D01*
X153650478Y-73225789D01*
X153820739Y-73285366D01*
X153820745Y-73285368D01*
X153820750Y-73285369D01*
X153999996Y-73305565D01*
X154000000Y-73305565D01*
X154000004Y-73305565D01*
X154179249Y-73285369D01*
X154179251Y-73285368D01*
X154179255Y-73285368D01*
X154179258Y-73285366D01*
X154179262Y-73285366D01*
X154291119Y-73246225D01*
X154349522Y-73225789D01*
X154403948Y-73191591D01*
X154471185Y-73172590D01*
X154538020Y-73192957D01*
X154583235Y-73246225D01*
X154587627Y-73257580D01*
X154587997Y-73258698D01*
X154587998Y-73258700D01*
X154677029Y-73403040D01*
X154677032Y-73403044D01*
X154686660Y-73412672D01*
X154720145Y-73473995D01*
X154715161Y-73543687D01*
X154686663Y-73588031D01*
X154677428Y-73597265D01*
X154677424Y-73597271D01*
X154588457Y-73741507D01*
X154588452Y-73741518D01*
X154535144Y-73902393D01*
X154525000Y-74001677D01*
X154525000Y-74025000D01*
X156474999Y-74025000D01*
X156474999Y-74001692D01*
X156474998Y-74001677D01*
X156464855Y-73902392D01*
X156411547Y-73741518D01*
X156411542Y-73741507D01*
X156322575Y-73597271D01*
X156322572Y-73597267D01*
X156313339Y-73588034D01*
X156279854Y-73526711D01*
X156284838Y-73457019D01*
X156313343Y-73412668D01*
X156322968Y-73403044D01*
X156412003Y-73258697D01*
X156419691Y-73235495D01*
X156459464Y-73178051D01*
X156523980Y-73151228D01*
X156537397Y-73150500D01*
X157503058Y-73150500D01*
X157570097Y-73170185D01*
X157609174Y-73210349D01*
X157669528Y-73310185D01*
X157669531Y-73310189D01*
X157771661Y-73412319D01*
X157805146Y-73473642D01*
X157800162Y-73543334D01*
X157771661Y-73587681D01*
X157669531Y-73689810D01*
X157669530Y-73689811D01*
X157581522Y-73835393D01*
X157530913Y-73997807D01*
X157524500Y-74068386D01*
X157524500Y-74581613D01*
X157530913Y-74652192D01*
X157530913Y-74652194D01*
X157530914Y-74652196D01*
X157581522Y-74814606D01*
X157665022Y-74952732D01*
X157669530Y-74960188D01*
X157789811Y-75080469D01*
X157789813Y-75080470D01*
X157789815Y-75080472D01*
X157935394Y-75168478D01*
X158097804Y-75219086D01*
X158168384Y-75225500D01*
X158168387Y-75225500D01*
X158831613Y-75225500D01*
X158831616Y-75225500D01*
X158902196Y-75219086D01*
X159064606Y-75168478D01*
X159210185Y-75080472D01*
X159330472Y-74960185D01*
X159418478Y-74814606D01*
X159469086Y-74652196D01*
X159475500Y-74581616D01*
X159475500Y-74534500D01*
X159495185Y-74467461D01*
X159547989Y-74421706D01*
X159599500Y-74410500D01*
X160372278Y-74410500D01*
X160439317Y-74430185D01*
X160473853Y-74463377D01*
X160591501Y-74631396D01*
X160591506Y-74631402D01*
X160758597Y-74798493D01*
X160758603Y-74798498D01*
X160944158Y-74928425D01*
X160987783Y-74983002D01*
X160994977Y-75052500D01*
X160963454Y-75114855D01*
X160944158Y-75131575D01*
X160758597Y-75261505D01*
X160591505Y-75428597D01*
X160455965Y-75622169D01*
X160455964Y-75622171D01*
X160356098Y-75836335D01*
X160356094Y-75836344D01*
X160294938Y-76064586D01*
X160294936Y-76064596D01*
X160274341Y-76299999D01*
X160274341Y-76300000D01*
X160294936Y-76535403D01*
X160294938Y-76535413D01*
X160356094Y-76763655D01*
X160356096Y-76763659D01*
X160356097Y-76763663D01*
X160432352Y-76927192D01*
X160455965Y-76977830D01*
X160455967Y-76977834D01*
X160591501Y-77171395D01*
X160591506Y-77171402D01*
X160758597Y-77338493D01*
X160758603Y-77338498D01*
X160944158Y-77468425D01*
X160987783Y-77523002D01*
X160994977Y-77592500D01*
X160963454Y-77654855D01*
X160944158Y-77671575D01*
X160758597Y-77801505D01*
X160591505Y-77968597D01*
X160455965Y-78162169D01*
X160455964Y-78162171D01*
X160356098Y-78376335D01*
X160356094Y-78376344D01*
X160294938Y-78604586D01*
X160294936Y-78604596D01*
X160274341Y-78839999D01*
X160274341Y-78840000D01*
X160294936Y-79075403D01*
X160294938Y-79075413D01*
X160356094Y-79303655D01*
X160356096Y-79303659D01*
X160356097Y-79303663D01*
X160455965Y-79517830D01*
X160455967Y-79517834D01*
X160591501Y-79711395D01*
X160591506Y-79711402D01*
X160758597Y-79878493D01*
X160758603Y-79878498D01*
X160944158Y-80008425D01*
X160987783Y-80063002D01*
X160994977Y-80132500D01*
X160963454Y-80194855D01*
X160944158Y-80211575D01*
X160758597Y-80341505D01*
X160591505Y-80508597D01*
X160455965Y-80702169D01*
X160455964Y-80702171D01*
X160356098Y-80916335D01*
X160356094Y-80916344D01*
X160294938Y-81144586D01*
X160294936Y-81144596D01*
X160274341Y-81379999D01*
X160274341Y-81380000D01*
X160294936Y-81615403D01*
X160294938Y-81615413D01*
X160356094Y-81843655D01*
X160356096Y-81843659D01*
X160356097Y-81843663D01*
X160455965Y-82057830D01*
X160455967Y-82057834D01*
X160591501Y-82251395D01*
X160591506Y-82251402D01*
X160758597Y-82418493D01*
X160758603Y-82418498D01*
X160944158Y-82548425D01*
X160987783Y-82603002D01*
X160994977Y-82672500D01*
X160963454Y-82734855D01*
X160944158Y-82751575D01*
X160758597Y-82881505D01*
X160591505Y-83048597D01*
X160455965Y-83242169D01*
X160455964Y-83242171D01*
X160356098Y-83456335D01*
X160356094Y-83456344D01*
X160294938Y-83684586D01*
X160294936Y-83684596D01*
X160274341Y-83919999D01*
X160274341Y-83920000D01*
X160294936Y-84155403D01*
X160294938Y-84155413D01*
X160356094Y-84383655D01*
X160356096Y-84383659D01*
X160356097Y-84383663D01*
X160455965Y-84597830D01*
X160455967Y-84597834D01*
X160591501Y-84791395D01*
X160591506Y-84791402D01*
X160758597Y-84958493D01*
X160758603Y-84958498D01*
X160944158Y-85088425D01*
X160987783Y-85143002D01*
X160994977Y-85212500D01*
X160963454Y-85274855D01*
X160944158Y-85291575D01*
X160758597Y-85421505D01*
X160591505Y-85588597D01*
X160455965Y-85782169D01*
X160455964Y-85782171D01*
X160356098Y-85996335D01*
X160356094Y-85996344D01*
X160294938Y-86224586D01*
X160294936Y-86224596D01*
X160274341Y-86459999D01*
X160274341Y-86460000D01*
X160294936Y-86695403D01*
X160294938Y-86695413D01*
X160337272Y-86853407D01*
X160335609Y-86923257D01*
X160296446Y-86981119D01*
X160232218Y-87008623D01*
X160217497Y-87009500D01*
X159171004Y-87009500D01*
X159035677Y-87036418D01*
X159035667Y-87036421D01*
X158908192Y-87089222D01*
X158793454Y-87165887D01*
X151886941Y-94072400D01*
X151825618Y-94105885D01*
X151762445Y-94102727D01*
X151762444Y-94102736D01*
X151762399Y-94102725D01*
X151760952Y-94102653D01*
X151757707Y-94101599D01*
X151757704Y-94101598D01*
X151629383Y-94081274D01*
X151586611Y-94074500D01*
X151413389Y-94074500D01*
X151393280Y-94077685D01*
X151242302Y-94101597D01*
X151077552Y-94155128D01*
X150923211Y-94233768D01*
X150783073Y-94335585D01*
X150675530Y-94443128D01*
X150614207Y-94476612D01*
X150544515Y-94471628D01*
X150488582Y-94429756D01*
X150482310Y-94420543D01*
X150459239Y-94383139D01*
X150442712Y-94356344D01*
X150318656Y-94232288D01*
X150193559Y-94155128D01*
X150169336Y-94140187D01*
X150169331Y-94140185D01*
X150153958Y-94135091D01*
X150002797Y-94085001D01*
X150002795Y-94085000D01*
X149900010Y-94074500D01*
X149099998Y-94074500D01*
X149099980Y-94074501D01*
X148997203Y-94085000D01*
X148997200Y-94085001D01*
X148830668Y-94140185D01*
X148830663Y-94140187D01*
X148681342Y-94232289D01*
X148557289Y-94356342D01*
X148465187Y-94505663D01*
X148465185Y-94505668D01*
X148452595Y-94543663D01*
X148410001Y-94672203D01*
X148410001Y-94672204D01*
X148410000Y-94672204D01*
X148399500Y-94774983D01*
X148399500Y-96125001D01*
X148399501Y-96125018D01*
X148410000Y-96227796D01*
X148410001Y-96227799D01*
X148461956Y-96384586D01*
X148465186Y-96394334D01*
X148557288Y-96543656D01*
X148681344Y-96667712D01*
X148830666Y-96759814D01*
X148997203Y-96814999D01*
X149099991Y-96825500D01*
X149833480Y-96825499D01*
X149900519Y-96845183D01*
X149921161Y-96861818D01*
X150803453Y-97744111D01*
X150803454Y-97744112D01*
X150918192Y-97820777D01*
X151045667Y-97873578D01*
X151045672Y-97873580D01*
X151045676Y-97873580D01*
X151045677Y-97873581D01*
X151181003Y-97900500D01*
X151181006Y-97900500D01*
X154271229Y-97900500D01*
X154362273Y-97882389D01*
X154406561Y-97873580D01*
X154470302Y-97847177D01*
X154534040Y-97820777D01*
X154534041Y-97820776D01*
X154534044Y-97820775D01*
X154648776Y-97744114D01*
X160241412Y-92151476D01*
X160302733Y-92117993D01*
X160372425Y-92122977D01*
X160428358Y-92164849D01*
X160441472Y-92186752D01*
X160455963Y-92217828D01*
X160455965Y-92217831D01*
X160591501Y-92411395D01*
X160591506Y-92411402D01*
X160758597Y-92578493D01*
X160758603Y-92578498D01*
X160944158Y-92708425D01*
X160987783Y-92763002D01*
X160994977Y-92832500D01*
X160963454Y-92894855D01*
X160944158Y-92911575D01*
X160758597Y-93041505D01*
X160591505Y-93208597D01*
X160455965Y-93402169D01*
X160455964Y-93402171D01*
X160356098Y-93616335D01*
X160356094Y-93616344D01*
X160294938Y-93844586D01*
X160294936Y-93844596D01*
X160274341Y-94079999D01*
X160274341Y-94080000D01*
X160294936Y-94315403D01*
X160294938Y-94315413D01*
X160356094Y-94543655D01*
X160356096Y-94543659D01*
X160356097Y-94543663D01*
X160422468Y-94685995D01*
X160455965Y-94757830D01*
X160455967Y-94757834D01*
X160591501Y-94951395D01*
X160591506Y-94951402D01*
X160758597Y-95118493D01*
X160758603Y-95118498D01*
X160944158Y-95248425D01*
X160987783Y-95303002D01*
X160994977Y-95372500D01*
X160963454Y-95434855D01*
X160944158Y-95451575D01*
X160758597Y-95581505D01*
X160591505Y-95748597D01*
X160455965Y-95942169D01*
X160455964Y-95942171D01*
X160356098Y-96156335D01*
X160356094Y-96156344D01*
X160294938Y-96384586D01*
X160294936Y-96384596D01*
X160274341Y-96619999D01*
X160274341Y-96620000D01*
X160294936Y-96855403D01*
X160294938Y-96855413D01*
X160356094Y-97083655D01*
X160356096Y-97083659D01*
X160356097Y-97083663D01*
X160370904Y-97115416D01*
X160455965Y-97297830D01*
X160455967Y-97297834D01*
X160515474Y-97382818D01*
X160591505Y-97491401D01*
X160758599Y-97658495D01*
X160855384Y-97726265D01*
X160952165Y-97794032D01*
X160952167Y-97794033D01*
X160952170Y-97794035D01*
X161166337Y-97893903D01*
X161166343Y-97893904D01*
X161166344Y-97893905D01*
X161221285Y-97908626D01*
X161394592Y-97955063D01*
X161582918Y-97971539D01*
X161629999Y-97975659D01*
X161630000Y-97975659D01*
X161630001Y-97975659D01*
X161669234Y-97972226D01*
X161865408Y-97955063D01*
X162093663Y-97893903D01*
X162307830Y-97794035D01*
X162501401Y-97658495D01*
X162668495Y-97491401D01*
X162804035Y-97297830D01*
X162903903Y-97083663D01*
X162965063Y-96855408D01*
X162985659Y-96620000D01*
X162965063Y-96384592D01*
X162906105Y-96164556D01*
X162903905Y-96156344D01*
X162903904Y-96156343D01*
X162903903Y-96156337D01*
X162804035Y-95942171D01*
X162790133Y-95922316D01*
X162668494Y-95748597D01*
X162501402Y-95581506D01*
X162501396Y-95581501D01*
X162315842Y-95451575D01*
X162272217Y-95396998D01*
X162265023Y-95327500D01*
X162296546Y-95265145D01*
X162315842Y-95248425D01*
X162345723Y-95227502D01*
X162501401Y-95118495D01*
X162619902Y-94999994D01*
X167494556Y-94999994D01*
X167494556Y-95000005D01*
X167514310Y-95314004D01*
X167514311Y-95314011D01*
X167537363Y-95434855D01*
X167565338Y-95581505D01*
X167573270Y-95623083D01*
X167670497Y-95922316D01*
X167670499Y-95922321D01*
X167804461Y-96207003D01*
X167804464Y-96207009D01*
X167973051Y-96472661D01*
X167973054Y-96472665D01*
X168173606Y-96715090D01*
X168173608Y-96715092D01*
X168173610Y-96715094D01*
X168323024Y-96855403D01*
X168402968Y-96930476D01*
X168402978Y-96930484D01*
X168657504Y-97115408D01*
X168657509Y-97115410D01*
X168657516Y-97115416D01*
X168933234Y-97266994D01*
X168933239Y-97266996D01*
X168933241Y-97266997D01*
X168933242Y-97266998D01*
X169225771Y-97382818D01*
X169225774Y-97382819D01*
X169530523Y-97461065D01*
X169530527Y-97461066D01*
X169596010Y-97469338D01*
X169842670Y-97500499D01*
X169842679Y-97500499D01*
X169842682Y-97500500D01*
X169842684Y-97500500D01*
X170157316Y-97500500D01*
X170157318Y-97500500D01*
X170157321Y-97500499D01*
X170157329Y-97500499D01*
X170343593Y-97476968D01*
X170469473Y-97461066D01*
X170774225Y-97382819D01*
X170774228Y-97382818D01*
X171066757Y-97266998D01*
X171066758Y-97266997D01*
X171066756Y-97266997D01*
X171066766Y-97266994D01*
X171342484Y-97115416D01*
X171597030Y-96930478D01*
X171826390Y-96715094D01*
X172026947Y-96472663D01*
X172195537Y-96207007D01*
X172329503Y-95922315D01*
X172426731Y-95623079D01*
X172485688Y-95314015D01*
X172485689Y-95314004D01*
X172505444Y-95000005D01*
X172505444Y-94999994D01*
X172485689Y-94685995D01*
X172485688Y-94685988D01*
X172485688Y-94685985D01*
X172426731Y-94376921D01*
X172329503Y-94077685D01*
X172328004Y-94074500D01*
X172244376Y-93896782D01*
X172195537Y-93792993D01*
X172090067Y-93626798D01*
X172026948Y-93527338D01*
X172026945Y-93527334D01*
X171826393Y-93284909D01*
X171826391Y-93284907D01*
X171745132Y-93208599D01*
X171597030Y-93069522D01*
X171597027Y-93069520D01*
X171597021Y-93069515D01*
X171342495Y-92884591D01*
X171342488Y-92884586D01*
X171342484Y-92884584D01*
X171066766Y-92733006D01*
X171066763Y-92733004D01*
X171066758Y-92733002D01*
X171066757Y-92733001D01*
X170774228Y-92617181D01*
X170774225Y-92617180D01*
X170469476Y-92538934D01*
X170469463Y-92538932D01*
X170157329Y-92499500D01*
X170157318Y-92499500D01*
X169842682Y-92499500D01*
X169842670Y-92499500D01*
X169530536Y-92538932D01*
X169530523Y-92538934D01*
X169225774Y-92617180D01*
X169225771Y-92617181D01*
X168933242Y-92733001D01*
X168933241Y-92733002D01*
X168657516Y-92884584D01*
X168657504Y-92884591D01*
X168402978Y-93069515D01*
X168402968Y-93069523D01*
X168173608Y-93284907D01*
X168173606Y-93284909D01*
X167973054Y-93527334D01*
X167973051Y-93527338D01*
X167804464Y-93792990D01*
X167804461Y-93792996D01*
X167670499Y-94077678D01*
X167670497Y-94077683D01*
X167573270Y-94376916D01*
X167514311Y-94685988D01*
X167514310Y-94685995D01*
X167494556Y-94999994D01*
X162619902Y-94999994D01*
X162668495Y-94951401D01*
X162804035Y-94757830D01*
X162903903Y-94543663D01*
X162965063Y-94315408D01*
X162985659Y-94080000D01*
X162985570Y-94078988D01*
X162965063Y-93844596D01*
X162965063Y-93844592D01*
X162903903Y-93616337D01*
X162804035Y-93402171D01*
X162721927Y-93284907D01*
X162668494Y-93208597D01*
X162501402Y-93041506D01*
X162501396Y-93041501D01*
X162315842Y-92911575D01*
X162272217Y-92856998D01*
X162265023Y-92787500D01*
X162296546Y-92725145D01*
X162315842Y-92708425D01*
X162338026Y-92692891D01*
X162501401Y-92578495D01*
X162668495Y-92411401D01*
X162804035Y-92217830D01*
X162903903Y-92003663D01*
X162965063Y-91775408D01*
X162985659Y-91540000D01*
X162965063Y-91304592D01*
X162922728Y-91146593D01*
X162924391Y-91076743D01*
X162963554Y-91018881D01*
X163027782Y-90991377D01*
X163042503Y-90990500D01*
X164278996Y-90990500D01*
X164370040Y-90972389D01*
X164414328Y-90963580D01*
X164478069Y-90937177D01*
X164541807Y-90910777D01*
X164541808Y-90910776D01*
X164541811Y-90910775D01*
X164656543Y-90834114D01*
X166053838Y-89436819D01*
X166115161Y-89403334D01*
X166141519Y-89400500D01*
X166338693Y-89400500D01*
X166338694Y-89400499D01*
X166396682Y-89388964D01*
X166512658Y-89365896D01*
X166512661Y-89365894D01*
X166512666Y-89365894D01*
X166676547Y-89298013D01*
X166791209Y-89221397D01*
X166857886Y-89200520D01*
X166860100Y-89200500D01*
X169640202Y-89200500D01*
X169707241Y-89220185D01*
X169745739Y-89259401D01*
X169782288Y-89318656D01*
X169906344Y-89442712D01*
X170055666Y-89534814D01*
X170222203Y-89589999D01*
X170324991Y-89600500D01*
X171675008Y-89600499D01*
X171777797Y-89589999D01*
X171944334Y-89534814D01*
X172093656Y-89442712D01*
X172217712Y-89318656D01*
X172309814Y-89169334D01*
X172364999Y-89002797D01*
X172375500Y-88900009D01*
X172375499Y-88099992D01*
X172364999Y-87997203D01*
X172309814Y-87830666D01*
X172217712Y-87681344D01*
X172093656Y-87557288D01*
X172093652Y-87557285D01*
X172029456Y-87517688D01*
X171982731Y-87465740D01*
X171971510Y-87396777D01*
X171999353Y-87332695D01*
X172006850Y-87324491D01*
X172114414Y-87216928D01*
X172216232Y-87076788D01*
X172294873Y-86922445D01*
X172348402Y-86757701D01*
X172375500Y-86586611D01*
X172375500Y-86413389D01*
X172348402Y-86242299D01*
X172294873Y-86077555D01*
X172216232Y-85923212D01*
X172114414Y-85783072D01*
X171991928Y-85660586D01*
X171851788Y-85558768D01*
X171697445Y-85480127D01*
X171532701Y-85426598D01*
X171532699Y-85426597D01*
X171532698Y-85426597D01*
X171401271Y-85405781D01*
X171361611Y-85399500D01*
X170638389Y-85399500D01*
X170598728Y-85405781D01*
X170467302Y-85426597D01*
X170302552Y-85480128D01*
X170148211Y-85558768D01*
X170107156Y-85588597D01*
X170008072Y-85660586D01*
X170008070Y-85660588D01*
X170008069Y-85660588D01*
X169885588Y-85783069D01*
X169885588Y-85783070D01*
X169885586Y-85783072D01*
X169841859Y-85843256D01*
X169783768Y-85923211D01*
X169705128Y-86077552D01*
X169651597Y-86242302D01*
X169624500Y-86413389D01*
X169624500Y-86425500D01*
X169604815Y-86492539D01*
X169552011Y-86538294D01*
X169500500Y-86549500D01*
X166991520Y-86549500D01*
X166924481Y-86529815D01*
X166903839Y-86513181D01*
X166885188Y-86494530D01*
X166739606Y-86406522D01*
X166577196Y-86355914D01*
X166577194Y-86355913D01*
X166577192Y-86355913D01*
X166527778Y-86351423D01*
X166506616Y-86349500D01*
X165493384Y-86349500D01*
X165474145Y-86351248D01*
X165422807Y-86355913D01*
X165260393Y-86406522D01*
X165114811Y-86494530D01*
X164994530Y-86614811D01*
X164908152Y-86757697D01*
X164906522Y-86760394D01*
X164856042Y-86922390D01*
X164817306Y-86980538D01*
X164753281Y-87008512D01*
X164737658Y-87009500D01*
X163042503Y-87009500D01*
X162975464Y-86989815D01*
X162929709Y-86937011D01*
X162919765Y-86867853D01*
X162922728Y-86853407D01*
X162946383Y-86765122D01*
X162965063Y-86695408D01*
X162985659Y-86460000D01*
X162965063Y-86224592D01*
X162903903Y-85996337D01*
X162804035Y-85782171D01*
X162668495Y-85588599D01*
X162668494Y-85588597D01*
X162501402Y-85421506D01*
X162501396Y-85421501D01*
X162315842Y-85291575D01*
X162272217Y-85236998D01*
X162265023Y-85167500D01*
X162296546Y-85105145D01*
X162315842Y-85088425D01*
X162338026Y-85072891D01*
X162501401Y-84958495D01*
X162668495Y-84791401D01*
X162804035Y-84597830D01*
X162903903Y-84383663D01*
X162965063Y-84155408D01*
X162985659Y-83920000D01*
X162965063Y-83684592D01*
X162903903Y-83456337D01*
X162804035Y-83242171D01*
X162668495Y-83048599D01*
X162668494Y-83048597D01*
X162501402Y-82881506D01*
X162501396Y-82881501D01*
X162315842Y-82751575D01*
X162272217Y-82696998D01*
X162265023Y-82627500D01*
X162296546Y-82565145D01*
X162315842Y-82548425D01*
X162338026Y-82532891D01*
X162501401Y-82418495D01*
X162668495Y-82251401D01*
X162804035Y-82057830D01*
X162903903Y-81843663D01*
X162965063Y-81615408D01*
X162985659Y-81380000D01*
X162965063Y-81144592D01*
X162903903Y-80916337D01*
X162804035Y-80702171D01*
X162668495Y-80508599D01*
X162668494Y-80508597D01*
X162501402Y-80341506D01*
X162501396Y-80341501D01*
X162315842Y-80211575D01*
X162272217Y-80156998D01*
X162265023Y-80087500D01*
X162296546Y-80025145D01*
X162315842Y-80008425D01*
X162338026Y-79992891D01*
X162501401Y-79878495D01*
X162668495Y-79711401D01*
X162804035Y-79517830D01*
X162903903Y-79303663D01*
X162965063Y-79075408D01*
X162985659Y-78840000D01*
X162965063Y-78604592D01*
X162903903Y-78376337D01*
X162804035Y-78162171D01*
X162700757Y-78014673D01*
X162668494Y-77968597D01*
X162501402Y-77801506D01*
X162501396Y-77801501D01*
X162315842Y-77671575D01*
X162272217Y-77616998D01*
X162265023Y-77547500D01*
X162296546Y-77485145D01*
X162315842Y-77468425D01*
X162468242Y-77361713D01*
X162501401Y-77338495D01*
X162668495Y-77171401D01*
X162804035Y-76977830D01*
X162903903Y-76763663D01*
X162965063Y-76535408D01*
X162984603Y-76312063D01*
X163010055Y-76246996D01*
X163066646Y-76206017D01*
X163136408Y-76202139D01*
X163177019Y-76219768D01*
X163261873Y-76276465D01*
X163380256Y-76325501D01*
X163380260Y-76325501D01*
X163380261Y-76325502D01*
X163505928Y-76350500D01*
X169637318Y-76350500D01*
X169704357Y-76370185D01*
X169750112Y-76422989D01*
X169760056Y-76492147D01*
X169749700Y-76526905D01*
X169726570Y-76576507D01*
X169726567Y-76576513D01*
X169669364Y-76789999D01*
X169669364Y-76790000D01*
X170566988Y-76790000D01*
X170534075Y-76847007D01*
X170500000Y-76974174D01*
X170500000Y-77105826D01*
X170534075Y-77232993D01*
X170566988Y-77290000D01*
X169669364Y-77290000D01*
X169726567Y-77503486D01*
X169726570Y-77503492D01*
X169826399Y-77717578D01*
X169961894Y-77911082D01*
X170128917Y-78078105D01*
X170322421Y-78213600D01*
X170536507Y-78313429D01*
X170536516Y-78313433D01*
X170750000Y-78370634D01*
X170750000Y-77473012D01*
X170807007Y-77505925D01*
X170934174Y-77540000D01*
X171065826Y-77540000D01*
X171192993Y-77505925D01*
X171250000Y-77473012D01*
X171250000Y-78370633D01*
X171463483Y-78313433D01*
X171463492Y-78313429D01*
X171677578Y-78213600D01*
X171871082Y-78078105D01*
X172038105Y-77911082D01*
X172173600Y-77717578D01*
X172273429Y-77503492D01*
X172273432Y-77503486D01*
X172330636Y-77290000D01*
X171433012Y-77290000D01*
X171465925Y-77232993D01*
X171500000Y-77105826D01*
X171500000Y-76974174D01*
X171465925Y-76847007D01*
X171433012Y-76790000D01*
X172330636Y-76790000D01*
X172330635Y-76789999D01*
X172273432Y-76576513D01*
X172273429Y-76576507D01*
X172173601Y-76362424D01*
X172060711Y-76201201D01*
X172038384Y-76134995D01*
X172055394Y-76067227D01*
X172074598Y-76042404D01*
X172705277Y-75411726D01*
X172776466Y-75305183D01*
X172825501Y-75186800D01*
X172837695Y-75125501D01*
X172846652Y-75080472D01*
X172850500Y-75061128D01*
X172850500Y-73095928D01*
X172825502Y-72970261D01*
X172825501Y-72970260D01*
X172825501Y-72970256D01*
X172776465Y-72851873D01*
X172744827Y-72804523D01*
X172705276Y-72745330D01*
X172705274Y-72745327D01*
X172386818Y-72426871D01*
X172353333Y-72365548D01*
X172350499Y-72339190D01*
X172350499Y-71062129D01*
X172350498Y-71062123D01*
X172350497Y-71062116D01*
X172344091Y-71002517D01*
X172341185Y-70994726D01*
X172293797Y-70867671D01*
X172293793Y-70867664D01*
X172207547Y-70752455D01*
X172207544Y-70752452D01*
X172092335Y-70666206D01*
X172092328Y-70666202D01*
X171957482Y-70615908D01*
X171957483Y-70615908D01*
X171897883Y-70609501D01*
X171897881Y-70609500D01*
X171897873Y-70609500D01*
X171897864Y-70609500D01*
X170102129Y-70609500D01*
X170102123Y-70609501D01*
X170042516Y-70615908D01*
X169907671Y-70666202D01*
X169907664Y-70666206D01*
X169792455Y-70752452D01*
X169792452Y-70752455D01*
X169706206Y-70867664D01*
X169706202Y-70867671D01*
X169655908Y-71002517D01*
X169649501Y-71062116D01*
X169649501Y-71062123D01*
X169649500Y-71062135D01*
X169649500Y-71930191D01*
X169629815Y-71997230D01*
X169577011Y-72042985D01*
X169507853Y-72052929D01*
X169444297Y-72023904D01*
X169437819Y-72017872D01*
X168414673Y-70994726D01*
X168414669Y-70994723D01*
X168308127Y-70923535D01*
X168189744Y-70874499D01*
X168189738Y-70874497D01*
X168064071Y-70849500D01*
X168064069Y-70849500D01*
X167369808Y-70849500D01*
X167302769Y-70829815D01*
X167257014Y-70777011D01*
X167247070Y-70707853D01*
X167276095Y-70644297D01*
X167282127Y-70637819D01*
X167738445Y-70181501D01*
X169517621Y-68402324D01*
X169578941Y-68368841D01*
X169648633Y-68373825D01*
X169704566Y-68415697D01*
X169725073Y-68457911D01*
X169726565Y-68463479D01*
X169726570Y-68463492D01*
X169826399Y-68677578D01*
X169961894Y-68871082D01*
X170128917Y-69038105D01*
X170322421Y-69173600D01*
X170536507Y-69273429D01*
X170536516Y-69273433D01*
X170750000Y-69330634D01*
X170750000Y-68433012D01*
X170807007Y-68465925D01*
X170934174Y-68500000D01*
X171065826Y-68500000D01*
X171192993Y-68465925D01*
X171250000Y-68433012D01*
X171250000Y-69330633D01*
X171463483Y-69273433D01*
X171463492Y-69273429D01*
X171677578Y-69173600D01*
X171871082Y-69038105D01*
X172038105Y-68871082D01*
X172173600Y-68677578D01*
X172273429Y-68463492D01*
X172273432Y-68463486D01*
X172330636Y-68250000D01*
X171433012Y-68250000D01*
X171465925Y-68192993D01*
X171500000Y-68065826D01*
X171500000Y-67934174D01*
X171465925Y-67807007D01*
X171433012Y-67750000D01*
X172330636Y-67750000D01*
X172330635Y-67749999D01*
X172273432Y-67536513D01*
X172273429Y-67536507D01*
X172173600Y-67322422D01*
X172173599Y-67322420D01*
X172038113Y-67128926D01*
X172038108Y-67128920D01*
X171871078Y-66961890D01*
X171685405Y-66831879D01*
X171641780Y-66777302D01*
X171634588Y-66707804D01*
X171666110Y-66645449D01*
X171685406Y-66628730D01*
X171721204Y-66603664D01*
X171871401Y-66498495D01*
X172038495Y-66331401D01*
X172174035Y-66137830D01*
X172273903Y-65923663D01*
X172335063Y-65695408D01*
X172355659Y-65460000D01*
X172335063Y-65224592D01*
X172274885Y-65000003D01*
X172273905Y-64996344D01*
X172273904Y-64996343D01*
X172273903Y-64996337D01*
X172174035Y-64782171D01*
X172168339Y-64774035D01*
X172038494Y-64588597D01*
X171871402Y-64421506D01*
X171871396Y-64421501D01*
X171685842Y-64291575D01*
X171642217Y-64236998D01*
X171635023Y-64167500D01*
X171666546Y-64105145D01*
X171685842Y-64088425D01*
X171812121Y-64000003D01*
X171871401Y-63958495D01*
X172038495Y-63791401D01*
X172174035Y-63597830D01*
X172273903Y-63383663D01*
X172335063Y-63155408D01*
X172355659Y-62920000D01*
X172335063Y-62684592D01*
X172273903Y-62456337D01*
X172174035Y-62242171D01*
X172168338Y-62234035D01*
X172038496Y-62048600D01*
X172038495Y-62048599D01*
X171916567Y-61926671D01*
X171883084Y-61865351D01*
X171888068Y-61795659D01*
X171929939Y-61739725D01*
X171960915Y-61722810D01*
X172092331Y-61673796D01*
X172207546Y-61587546D01*
X172293796Y-61472331D01*
X172344091Y-61337483D01*
X172350500Y-61277873D01*
X172350499Y-59482128D01*
X172344091Y-59422517D01*
X172332485Y-59391401D01*
X172293797Y-59287671D01*
X172293793Y-59287664D01*
X172207547Y-59172455D01*
X172207544Y-59172452D01*
X172092335Y-59086206D01*
X172092328Y-59086202D01*
X171957482Y-59035908D01*
X171957483Y-59035908D01*
X171897883Y-59029501D01*
X171897881Y-59029500D01*
X171897873Y-59029500D01*
X171897864Y-59029500D01*
X170102129Y-59029500D01*
X170102123Y-59029501D01*
X170042516Y-59035908D01*
X169907671Y-59086202D01*
X169907664Y-59086206D01*
X169792455Y-59172452D01*
X169792452Y-59172455D01*
X169706206Y-59287664D01*
X169706202Y-59287671D01*
X169655908Y-59422517D01*
X169649501Y-59482116D01*
X169649501Y-59482123D01*
X169649500Y-59482135D01*
X169649500Y-59718795D01*
X169629815Y-59785834D01*
X169594391Y-59821897D01*
X169515328Y-59874724D01*
X163194962Y-66195090D01*
X163133639Y-66228575D01*
X163063947Y-66223591D01*
X163008014Y-66181719D01*
X162983753Y-66118217D01*
X162973410Y-66000000D01*
X162965063Y-65904592D01*
X162903903Y-65676337D01*
X162804035Y-65462171D01*
X162802515Y-65459999D01*
X162668494Y-65268597D01*
X162501402Y-65101506D01*
X162501396Y-65101501D01*
X162315842Y-64971575D01*
X162272217Y-64916998D01*
X162265023Y-64847500D01*
X162296546Y-64785145D01*
X162315842Y-64768425D01*
X162338026Y-64752891D01*
X162501401Y-64638495D01*
X162668495Y-64471401D01*
X162804035Y-64277830D01*
X162903903Y-64063663D01*
X162965063Y-63835408D01*
X162985659Y-63600000D01*
X162985469Y-63597834D01*
X162976712Y-63497737D01*
X162965063Y-63364592D01*
X162903903Y-63136337D01*
X162804035Y-62922171D01*
X162802515Y-62919999D01*
X162668494Y-62728597D01*
X162501402Y-62561506D01*
X162501396Y-62561501D01*
X162315842Y-62431575D01*
X162272217Y-62376998D01*
X162265023Y-62307500D01*
X162296546Y-62245145D01*
X162315842Y-62228425D01*
X162338026Y-62212891D01*
X162501401Y-62098495D01*
X162668495Y-61931401D01*
X162804035Y-61737830D01*
X162903903Y-61523663D01*
X162965063Y-61295408D01*
X162985659Y-61060000D01*
X162965063Y-60824592D01*
X162903903Y-60596337D01*
X162804035Y-60382171D01*
X162786147Y-60356623D01*
X162668494Y-60188597D01*
X162501402Y-60021506D01*
X162501396Y-60021501D01*
X162315842Y-59891575D01*
X162272217Y-59836998D01*
X162265023Y-59767500D01*
X162296546Y-59705145D01*
X162315842Y-59688425D01*
X162338026Y-59672891D01*
X162501401Y-59558495D01*
X162668495Y-59391401D01*
X162804035Y-59197830D01*
X162903903Y-58983663D01*
X162965063Y-58755408D01*
X162985659Y-58520000D01*
X162965063Y-58284592D01*
X162903903Y-58056337D01*
X162804035Y-57842171D01*
X162668495Y-57648599D01*
X162668494Y-57648597D01*
X162501402Y-57481506D01*
X162501396Y-57481501D01*
X162315842Y-57351575D01*
X162272217Y-57296998D01*
X162265023Y-57227500D01*
X162296546Y-57165145D01*
X162315842Y-57148425D01*
X162338026Y-57132891D01*
X162501401Y-57018495D01*
X162668495Y-56851401D01*
X162804035Y-56657830D01*
X162903903Y-56443663D01*
X162965063Y-56215408D01*
X162985659Y-55980000D01*
X162965063Y-55744592D01*
X162903903Y-55516337D01*
X162804035Y-55302171D01*
X162668495Y-55108599D01*
X162668494Y-55108597D01*
X162559890Y-54999994D01*
X167494556Y-54999994D01*
X167494556Y-55000005D01*
X167514310Y-55314004D01*
X167514311Y-55314011D01*
X167573270Y-55623083D01*
X167670497Y-55922316D01*
X167670499Y-55922321D01*
X167804461Y-56207003D01*
X167804464Y-56207009D01*
X167973051Y-56472661D01*
X167973054Y-56472665D01*
X168173606Y-56715090D01*
X168173608Y-56715092D01*
X168173610Y-56715094D01*
X168318756Y-56851395D01*
X168402968Y-56930476D01*
X168402978Y-56930484D01*
X168657504Y-57115408D01*
X168657509Y-57115410D01*
X168657516Y-57115416D01*
X168933234Y-57266994D01*
X168933239Y-57266996D01*
X168933241Y-57266997D01*
X168933242Y-57266998D01*
X169225771Y-57382818D01*
X169225774Y-57382819D01*
X169530523Y-57461065D01*
X169530527Y-57461066D01*
X169596010Y-57469338D01*
X169842670Y-57500499D01*
X169842679Y-57500499D01*
X169842682Y-57500500D01*
X169842684Y-57500500D01*
X170157316Y-57500500D01*
X170157318Y-57500500D01*
X170157321Y-57500499D01*
X170157329Y-57500499D01*
X170343593Y-57476968D01*
X170469473Y-57461066D01*
X170774225Y-57382819D01*
X170774228Y-57382818D01*
X171066757Y-57266998D01*
X171066758Y-57266997D01*
X171066756Y-57266997D01*
X171066766Y-57266994D01*
X171342484Y-57115416D01*
X171597030Y-56930478D01*
X171826390Y-56715094D01*
X172026947Y-56472663D01*
X172195537Y-56207007D01*
X172329503Y-55922315D01*
X172426731Y-55623079D01*
X172485688Y-55314015D01*
X172486433Y-55302171D01*
X172505444Y-55000005D01*
X172505444Y-54999994D01*
X172485689Y-54685995D01*
X172485688Y-54685988D01*
X172485688Y-54685985D01*
X172426731Y-54376921D01*
X172329503Y-54077685D01*
X172195537Y-53792993D01*
X172130176Y-53690000D01*
X172026948Y-53527338D01*
X172026945Y-53527334D01*
X171826393Y-53284909D01*
X171826391Y-53284907D01*
X171664620Y-53132993D01*
X171597030Y-53069522D01*
X171597027Y-53069520D01*
X171597021Y-53069515D01*
X171342495Y-52884591D01*
X171342488Y-52884586D01*
X171342484Y-52884584D01*
X171066766Y-52733006D01*
X171066763Y-52733004D01*
X171066758Y-52733002D01*
X171066757Y-52733001D01*
X170774228Y-52617181D01*
X170774225Y-52617180D01*
X170469476Y-52538934D01*
X170469463Y-52538932D01*
X170157329Y-52499500D01*
X170157318Y-52499500D01*
X169842682Y-52499500D01*
X169842670Y-52499500D01*
X169530536Y-52538932D01*
X169530523Y-52538934D01*
X169225774Y-52617180D01*
X169225771Y-52617181D01*
X168933242Y-52733001D01*
X168933241Y-52733002D01*
X168657516Y-52884584D01*
X168657504Y-52884591D01*
X168402978Y-53069515D01*
X168402968Y-53069523D01*
X168173608Y-53284907D01*
X168173606Y-53284909D01*
X167973054Y-53527334D01*
X167973051Y-53527338D01*
X167804464Y-53792990D01*
X167804461Y-53792996D01*
X167670499Y-54077678D01*
X167670497Y-54077683D01*
X167573270Y-54376916D01*
X167514311Y-54685988D01*
X167514310Y-54685995D01*
X167494556Y-54999994D01*
X162559890Y-54999994D01*
X162501402Y-54941506D01*
X162501401Y-54941505D01*
X162315405Y-54811269D01*
X162271781Y-54756692D01*
X162264588Y-54687193D01*
X162296110Y-54624839D01*
X162315404Y-54608120D01*
X162391371Y-54554925D01*
X161759408Y-53922962D01*
X161822993Y-53905925D01*
X161937007Y-53840099D01*
X162030099Y-53747007D01*
X162095925Y-53632993D01*
X162112962Y-53569408D01*
X162744925Y-54201371D01*
X162803599Y-54117580D01*
X162903429Y-53903492D01*
X162903433Y-53903483D01*
X162964567Y-53675326D01*
X162964569Y-53675315D01*
X162985157Y-53440001D01*
X162985157Y-53439998D01*
X162964569Y-53204684D01*
X162964567Y-53204673D01*
X162903433Y-52976516D01*
X162903429Y-52976507D01*
X162803601Y-52762424D01*
X162744925Y-52678626D01*
X162112962Y-53310590D01*
X162095925Y-53247007D01*
X162030099Y-53132993D01*
X161937007Y-53039901D01*
X161822993Y-52974075D01*
X161759409Y-52957037D01*
X162391372Y-52325073D01*
X162307576Y-52266398D01*
X162093492Y-52166570D01*
X162093483Y-52166566D01*
X161865326Y-52105432D01*
X161865315Y-52105430D01*
X161630002Y-52084843D01*
X161629998Y-52084843D01*
X161394684Y-52105430D01*
X161394673Y-52105432D01*
X161166516Y-52166566D01*
X161166507Y-52166570D01*
X160952423Y-52266399D01*
X160952421Y-52266400D01*
X160868627Y-52325073D01*
X160868626Y-52325073D01*
X161500591Y-52957037D01*
X161437007Y-52974075D01*
X161322993Y-53039901D01*
X161229901Y-53132993D01*
X161164075Y-53247007D01*
X161147037Y-53310590D01*
X160515073Y-52678626D01*
X160515073Y-52678627D01*
X160456400Y-52762421D01*
X160456399Y-52762423D01*
X160356570Y-52976507D01*
X160356566Y-52976516D01*
X160295432Y-53204673D01*
X160295430Y-53204684D01*
X160274843Y-53439998D01*
X160274843Y-53440001D01*
X160295430Y-53675315D01*
X160295432Y-53675326D01*
X160356566Y-53903483D01*
X160356570Y-53903492D01*
X160456398Y-54117576D01*
X160515073Y-54201372D01*
X161147037Y-53569408D01*
X161164075Y-53632993D01*
X161229901Y-53747007D01*
X161322993Y-53840099D01*
X161437007Y-53905925D01*
X161500591Y-53922962D01*
X160868627Y-54554925D01*
X160944595Y-54608119D01*
X160988219Y-54662696D01*
X160995412Y-54732195D01*
X160963890Y-54794549D01*
X160944595Y-54811269D01*
X160758594Y-54941508D01*
X160591505Y-55108597D01*
X160455965Y-55302169D01*
X160455964Y-55302171D01*
X160356098Y-55516335D01*
X160356094Y-55516344D01*
X160294938Y-55744586D01*
X160294936Y-55744596D01*
X160274341Y-55979999D01*
X160274341Y-55980000D01*
X160294936Y-56215403D01*
X160294938Y-56215413D01*
X160356094Y-56443655D01*
X160356096Y-56443659D01*
X160356097Y-56443663D01*
X160369619Y-56472661D01*
X160455965Y-56657830D01*
X160455967Y-56657834D01*
X160591501Y-56851395D01*
X160591506Y-56851402D01*
X160758597Y-57018493D01*
X160758603Y-57018498D01*
X160944158Y-57148425D01*
X160987783Y-57203002D01*
X160994977Y-57272500D01*
X160963454Y-57334855D01*
X160944158Y-57351575D01*
X160758597Y-57481505D01*
X160591505Y-57648597D01*
X160455965Y-57842169D01*
X160455964Y-57842171D01*
X160356098Y-58056335D01*
X160356094Y-58056344D01*
X160294938Y-58284586D01*
X160294936Y-58284596D01*
X160274341Y-58519999D01*
X160274341Y-58520000D01*
X160294936Y-58755403D01*
X160294938Y-58755413D01*
X160356094Y-58983655D01*
X160356096Y-58983659D01*
X160356097Y-58983663D01*
X160380460Y-59035909D01*
X160455965Y-59197830D01*
X160455967Y-59197834D01*
X160591501Y-59391395D01*
X160591506Y-59391402D01*
X160758597Y-59558493D01*
X160758603Y-59558498D01*
X160944158Y-59688425D01*
X160987783Y-59743002D01*
X160994977Y-59812500D01*
X160963454Y-59874855D01*
X160944158Y-59891575D01*
X160758597Y-60021505D01*
X160591505Y-60188597D01*
X160455965Y-60382169D01*
X160455964Y-60382171D01*
X160356098Y-60596335D01*
X160356094Y-60596344D01*
X160294938Y-60824586D01*
X160294936Y-60824596D01*
X160274341Y-61059999D01*
X160274341Y-61060000D01*
X160294936Y-61295403D01*
X160294938Y-61295413D01*
X160356094Y-61523655D01*
X160356096Y-61523659D01*
X160356097Y-61523663D01*
X160452547Y-61730500D01*
X160455965Y-61737830D01*
X160455967Y-61737834D01*
X160544127Y-61863738D01*
X160591501Y-61931396D01*
X160591506Y-61931402D01*
X160758597Y-62098493D01*
X160758603Y-62098498D01*
X160944158Y-62228425D01*
X160987783Y-62283002D01*
X160994977Y-62352500D01*
X160963454Y-62414855D01*
X160944158Y-62431575D01*
X160758597Y-62561505D01*
X160591505Y-62728597D01*
X160455965Y-62922169D01*
X160455964Y-62922171D01*
X160356098Y-63136335D01*
X160356094Y-63136344D01*
X160294938Y-63364586D01*
X160294936Y-63364596D01*
X160274341Y-63599999D01*
X160274341Y-63600000D01*
X160294936Y-63835403D01*
X160294938Y-63835413D01*
X160356094Y-64063655D01*
X160356096Y-64063659D01*
X160356097Y-64063663D01*
X160404517Y-64167500D01*
X160455965Y-64277830D01*
X160455967Y-64277834D01*
X160591501Y-64471395D01*
X160591506Y-64471402D01*
X160758597Y-64638493D01*
X160758603Y-64638498D01*
X160944158Y-64768425D01*
X160987783Y-64823002D01*
X160994977Y-64892500D01*
X160963454Y-64954855D01*
X160944158Y-64971575D01*
X160758597Y-65101505D01*
X160591505Y-65268597D01*
X160455965Y-65462169D01*
X160455964Y-65462171D01*
X160356098Y-65676335D01*
X160356094Y-65676344D01*
X160294938Y-65904586D01*
X160294936Y-65904596D01*
X160274341Y-66139999D01*
X160274341Y-66140000D01*
X160294936Y-66375403D01*
X160294938Y-66375413D01*
X160356094Y-66603655D01*
X160356096Y-66603659D01*
X160356097Y-66603663D01*
X160445349Y-66795063D01*
X160455965Y-66817830D01*
X160455967Y-66817834D01*
X160591501Y-67011395D01*
X160591506Y-67011402D01*
X160758597Y-67178493D01*
X160758603Y-67178498D01*
X160944158Y-67308425D01*
X160987783Y-67363002D01*
X160994977Y-67432500D01*
X160963454Y-67494855D01*
X160944158Y-67511575D01*
X160758597Y-67641505D01*
X160591505Y-67808597D01*
X160455965Y-68002169D01*
X160455964Y-68002171D01*
X160356098Y-68216335D01*
X160356094Y-68216344D01*
X160294938Y-68444586D01*
X160294936Y-68444596D01*
X160274341Y-68679999D01*
X160274341Y-68680000D01*
X160294936Y-68915403D01*
X160294938Y-68915413D01*
X160356094Y-69143655D01*
X160356096Y-69143659D01*
X160356097Y-69143663D01*
X160410745Y-69260855D01*
X160455965Y-69357830D01*
X160455967Y-69357834D01*
X160591501Y-69551395D01*
X160591506Y-69551402D01*
X160758597Y-69718493D01*
X160758603Y-69718498D01*
X160944158Y-69848425D01*
X160987783Y-69903002D01*
X160994977Y-69972500D01*
X160963454Y-70034855D01*
X160944158Y-70051575D01*
X160758597Y-70181505D01*
X160591505Y-70348597D01*
X160455965Y-70542169D01*
X160455964Y-70542171D01*
X160356098Y-70756335D01*
X160356094Y-70756344D01*
X160294938Y-70984586D01*
X160294936Y-70984596D01*
X160274341Y-71219999D01*
X160274341Y-71220000D01*
X160294936Y-71455403D01*
X160294938Y-71455413D01*
X160357498Y-71688893D01*
X160356277Y-71689219D01*
X160360319Y-71752818D01*
X160326350Y-71813873D01*
X160264763Y-71846871D01*
X160239366Y-71849500D01*
X159128913Y-71849500D01*
X159071892Y-71833605D01*
X159071445Y-71834600D01*
X159064910Y-71831659D01*
X159064767Y-71831619D01*
X159064609Y-71831523D01*
X159061307Y-71830494D01*
X158902196Y-71780914D01*
X158902194Y-71780913D01*
X158902192Y-71780913D01*
X158852778Y-71776423D01*
X158831616Y-71774500D01*
X158168384Y-71774500D01*
X158149145Y-71776248D01*
X158097807Y-71780913D01*
X157935390Y-71831523D01*
X157935233Y-71831619D01*
X157935089Y-71831659D01*
X157928555Y-71834600D01*
X157928107Y-71833605D01*
X157871087Y-71849500D01*
X156110855Y-71849500D01*
X156065802Y-71839512D01*
X156065552Y-71840269D01*
X156058698Y-71837998D01*
X156058697Y-71837997D01*
X155964766Y-71806871D01*
X155897709Y-71784651D01*
X155798346Y-71774500D01*
X155201662Y-71774500D01*
X155201644Y-71774501D01*
X155102292Y-71784650D01*
X155102289Y-71784651D01*
X154990469Y-71821705D01*
X154941303Y-71837997D01*
X154941301Y-71837997D01*
X154934448Y-71840269D01*
X154934197Y-71839512D01*
X154889145Y-71849500D01*
X154505068Y-71849500D01*
X154439096Y-71830494D01*
X154349523Y-71774211D01*
X154262029Y-71743596D01*
X154179255Y-71714632D01*
X154179253Y-71714631D01*
X154179246Y-71714630D01*
X154172012Y-71713815D01*
X154107600Y-71686744D01*
X154098223Y-71678277D01*
X152414674Y-69994727D01*
X152414673Y-69994726D01*
X152314061Y-69927500D01*
X152308127Y-69923535D01*
X152189744Y-69874499D01*
X152189738Y-69874497D01*
X152064071Y-69849500D01*
X152064069Y-69849500D01*
X148924499Y-69849500D01*
X148857460Y-69829815D01*
X148811705Y-69777011D01*
X148800499Y-69725500D01*
X148800499Y-69702129D01*
X148800498Y-69702123D01*
X148794091Y-69642516D01*
X148743797Y-69507671D01*
X148743793Y-69507664D01*
X148657547Y-69392455D01*
X148657544Y-69392452D01*
X148542335Y-69306206D01*
X148542332Y-69306205D01*
X148542331Y-69306204D01*
X148531161Y-69302038D01*
X148475231Y-69260166D01*
X148450816Y-69194701D01*
X148450500Y-69185858D01*
X148450500Y-68823847D01*
X148425502Y-68698180D01*
X148425501Y-68698179D01*
X148425501Y-68698175D01*
X148376465Y-68579792D01*
X148376464Y-68579791D01*
X148376461Y-68579785D01*
X148305277Y-68473251D01*
X148276612Y-68444586D01*
X148214669Y-68382643D01*
X146275165Y-66443139D01*
X140386755Y-60554727D01*
X140386754Y-60554726D01*
X140386750Y-60554723D01*
X140280208Y-60483535D01*
X140161825Y-60434499D01*
X140161819Y-60434497D01*
X140036152Y-60409500D01*
X140036150Y-60409500D01*
X140027721Y-60409500D01*
X139960682Y-60389815D01*
X139926146Y-60356623D01*
X139808494Y-60188597D01*
X139641402Y-60021506D01*
X139641401Y-60021505D01*
X139473377Y-59903853D01*
X139473376Y-59903852D01*
X139429751Y-59849275D01*
X139420500Y-59802277D01*
X139420500Y-59777722D01*
X139440185Y-59710683D01*
X139473377Y-59676147D01*
X139524429Y-59640399D01*
X139641401Y-59558495D01*
X139808495Y-59391401D01*
X139944035Y-59197830D01*
X140043903Y-58983663D01*
X140105063Y-58755408D01*
X140125659Y-58520000D01*
X140105063Y-58284592D01*
X140043903Y-58056337D01*
X139944035Y-57842171D01*
X139808495Y-57648599D01*
X139808494Y-57648597D01*
X139641402Y-57481506D01*
X139641396Y-57481501D01*
X139455842Y-57351575D01*
X139412217Y-57296998D01*
X139405023Y-57227500D01*
X139436546Y-57165145D01*
X139455842Y-57148425D01*
X139478026Y-57132891D01*
X139641401Y-57018495D01*
X139808495Y-56851401D01*
X139944035Y-56657830D01*
X140043903Y-56443663D01*
X140105063Y-56215408D01*
X140125659Y-55980000D01*
X140105063Y-55744592D01*
X140043903Y-55516337D01*
X140018676Y-55462238D01*
X146682362Y-55462238D01*
X153813268Y-55462238D01*
X153813268Y-51325017D01*
X146682362Y-51325017D01*
X146682362Y-55462238D01*
X140018676Y-55462238D01*
X139944035Y-55302171D01*
X139808495Y-55108599D01*
X139686179Y-54986283D01*
X139652696Y-54924963D01*
X139657680Y-54855271D01*
X139699551Y-54799337D01*
X139730529Y-54782422D01*
X139862086Y-54733354D01*
X139862093Y-54733350D01*
X139977187Y-54647190D01*
X139977190Y-54647187D01*
X140063350Y-54532093D01*
X140063354Y-54532086D01*
X140113596Y-54397379D01*
X140113598Y-54397372D01*
X140119999Y-54337844D01*
X140120000Y-54337827D01*
X140120000Y-53690000D01*
X139203012Y-53690000D01*
X139235925Y-53632993D01*
X139270000Y-53505826D01*
X139270000Y-53374174D01*
X139235925Y-53247007D01*
X139203012Y-53190000D01*
X140120000Y-53190000D01*
X140120000Y-52542172D01*
X140119999Y-52542155D01*
X140113598Y-52482627D01*
X140113596Y-52482620D01*
X140063354Y-52347913D01*
X140063350Y-52347906D01*
X139977190Y-52232812D01*
X139977187Y-52232809D01*
X139862093Y-52146649D01*
X139862086Y-52146645D01*
X139727379Y-52096403D01*
X139727372Y-52096401D01*
X139667844Y-52090000D01*
X139020000Y-52090000D01*
X139020000Y-53006988D01*
X138962993Y-52974075D01*
X138835826Y-52940000D01*
X138704174Y-52940000D01*
X138577007Y-52974075D01*
X138520000Y-53006988D01*
X138520000Y-52090000D01*
X137872155Y-52090000D01*
X137812627Y-52096401D01*
X137812620Y-52096403D01*
X137677913Y-52146645D01*
X137677906Y-52146649D01*
X137562812Y-52232809D01*
X137562809Y-52232812D01*
X137476649Y-52347906D01*
X137476645Y-52347913D01*
X137426403Y-52482620D01*
X137426401Y-52482627D01*
X137420000Y-52542155D01*
X137420000Y-53190000D01*
X138336988Y-53190000D01*
X138304075Y-53247007D01*
X138270000Y-53374174D01*
X138270000Y-53505826D01*
X138304075Y-53632993D01*
X138336988Y-53690000D01*
X137420000Y-53690000D01*
X137420000Y-54337844D01*
X137426401Y-54397372D01*
X137426403Y-54397379D01*
X137476645Y-54532086D01*
X137476649Y-54532093D01*
X137562809Y-54647187D01*
X137562812Y-54647190D01*
X137677906Y-54733350D01*
X137677913Y-54733354D01*
X137809470Y-54782421D01*
X137865403Y-54824292D01*
X137889821Y-54889756D01*
X137874970Y-54958029D01*
X137853819Y-54986284D01*
X137731503Y-55108600D01*
X137595965Y-55302169D01*
X137595964Y-55302171D01*
X137496098Y-55516335D01*
X137496094Y-55516344D01*
X137434938Y-55744586D01*
X137434936Y-55744596D01*
X137414341Y-55979999D01*
X137414341Y-55980000D01*
X137434936Y-56215403D01*
X137434938Y-56215413D01*
X137496094Y-56443655D01*
X137496096Y-56443659D01*
X137496097Y-56443663D01*
X137509619Y-56472661D01*
X137595965Y-56657830D01*
X137595967Y-56657834D01*
X137731501Y-56851395D01*
X137731506Y-56851402D01*
X137898597Y-57018493D01*
X137898603Y-57018498D01*
X138084158Y-57148425D01*
X138127783Y-57203002D01*
X138134977Y-57272500D01*
X138103454Y-57334855D01*
X138084158Y-57351575D01*
X137898597Y-57481505D01*
X137731505Y-57648597D01*
X137595965Y-57842169D01*
X137595964Y-57842171D01*
X137496098Y-58056335D01*
X137496094Y-58056344D01*
X137434938Y-58284586D01*
X137434936Y-58284596D01*
X137414341Y-58519999D01*
X137414341Y-58520000D01*
X137434936Y-58755403D01*
X137434938Y-58755413D01*
X137496094Y-58983655D01*
X137496096Y-58983659D01*
X137496097Y-58983663D01*
X137520460Y-59035909D01*
X137595965Y-59197830D01*
X137595967Y-59197834D01*
X137731501Y-59391395D01*
X137731506Y-59391402D01*
X137898597Y-59558493D01*
X137898603Y-59558498D01*
X138066623Y-59676147D01*
X138110248Y-59730724D01*
X138119500Y-59777722D01*
X138119500Y-59802278D01*
X138099815Y-59869317D01*
X138066623Y-59903853D01*
X137898597Y-60021505D01*
X137731506Y-60188596D01*
X137613854Y-60356623D01*
X137559277Y-60400248D01*
X137512279Y-60409500D01*
X135956690Y-60409500D01*
X135831022Y-60434497D01*
X135831016Y-60434499D01*
X135712631Y-60483535D01*
X135606092Y-60554722D01*
X135606085Y-60554728D01*
X134872634Y-61288181D01*
X134811311Y-61321666D01*
X134784953Y-61324500D01*
X130574500Y-61324500D01*
X130507461Y-61304815D01*
X130461706Y-61252011D01*
X130450500Y-61200500D01*
X130450499Y-60701662D01*
X130450498Y-60701644D01*
X130440349Y-60602292D01*
X130440348Y-60602289D01*
X130424588Y-60554728D01*
X130387003Y-60441303D01*
X130386999Y-60441297D01*
X130386998Y-60441294D01*
X130297970Y-60296959D01*
X130297967Y-60296955D01*
X130178044Y-60177032D01*
X130178040Y-60177029D01*
X130033705Y-60088001D01*
X130033699Y-60087998D01*
X130033697Y-60087997D01*
X130033694Y-60087996D01*
X129872709Y-60034651D01*
X129773346Y-60024500D01*
X129226662Y-60024500D01*
X129226644Y-60024501D01*
X129127292Y-60034650D01*
X129127289Y-60034651D01*
X128966305Y-60087996D01*
X128966294Y-60088001D01*
X128821959Y-60177029D01*
X128821953Y-60177033D01*
X128812324Y-60186663D01*
X128751000Y-60220146D01*
X128681308Y-60215159D01*
X128636965Y-60186660D01*
X128627732Y-60177427D01*
X128627728Y-60177424D01*
X128483492Y-60088457D01*
X128483481Y-60088452D01*
X128322606Y-60035144D01*
X128223322Y-60025000D01*
X128200000Y-60025000D01*
X128200000Y-61376000D01*
X128180315Y-61443039D01*
X128127511Y-61488794D01*
X128076000Y-61500000D01*
X128000000Y-61500000D01*
X127700000Y-61500000D01*
X127700000Y-61250000D01*
X127000001Y-61250000D01*
X127000001Y-61298322D01*
X125500500Y-61298322D01*
X125500500Y-60701677D01*
X127000000Y-60701677D01*
X127000000Y-60750000D01*
X127700000Y-60750000D01*
X127700000Y-60024999D01*
X127676693Y-60025000D01*
X127676674Y-60025001D01*
X127577392Y-60035144D01*
X127416518Y-60088452D01*
X127416507Y-60088457D01*
X127272271Y-60177424D01*
X127272267Y-60177427D01*
X127152427Y-60297267D01*
X127152424Y-60297271D01*
X127063457Y-60441507D01*
X127063452Y-60441518D01*
X127010144Y-60602393D01*
X127000000Y-60701677D01*
X125500500Y-60701677D01*
X125500500Y-55002706D01*
X125500559Y-54999994D01*
X127494556Y-54999994D01*
X127494556Y-55000005D01*
X127514310Y-55314004D01*
X127514311Y-55314011D01*
X127573270Y-55623083D01*
X127670497Y-55922316D01*
X127670499Y-55922321D01*
X127804461Y-56207003D01*
X127804464Y-56207009D01*
X127973051Y-56472661D01*
X127973054Y-56472665D01*
X128173606Y-56715090D01*
X128173608Y-56715092D01*
X128173610Y-56715094D01*
X128318756Y-56851395D01*
X128402968Y-56930476D01*
X128402978Y-56930484D01*
X128657504Y-57115408D01*
X128657509Y-57115410D01*
X128657516Y-57115416D01*
X128933234Y-57266994D01*
X128933239Y-57266996D01*
X128933241Y-57266997D01*
X128933242Y-57266998D01*
X129225771Y-57382818D01*
X129225774Y-57382819D01*
X129530523Y-57461065D01*
X129530527Y-57461066D01*
X129596010Y-57469338D01*
X129842670Y-57500499D01*
X129842679Y-57500499D01*
X129842682Y-57500500D01*
X129842684Y-57500500D01*
X130157316Y-57500500D01*
X130157318Y-57500500D01*
X130157321Y-57500499D01*
X130157329Y-57500499D01*
X130343593Y-57476968D01*
X130469473Y-57461066D01*
X130774225Y-57382819D01*
X130774228Y-57382818D01*
X131066757Y-57266998D01*
X131066758Y-57266997D01*
X131066756Y-57266997D01*
X131066766Y-57266994D01*
X131342484Y-57115416D01*
X131597030Y-56930478D01*
X131826390Y-56715094D01*
X132026947Y-56472663D01*
X132195537Y-56207007D01*
X132329503Y-55922315D01*
X132426731Y-55623079D01*
X132485688Y-55314015D01*
X132486433Y-55302171D01*
X132505444Y-55000005D01*
X132505444Y-54999994D01*
X132485689Y-54685995D01*
X132485688Y-54685988D01*
X132485688Y-54685985D01*
X132426731Y-54376921D01*
X132329503Y-54077685D01*
X132195537Y-53792993D01*
X132130176Y-53690000D01*
X132026948Y-53527338D01*
X132026945Y-53527334D01*
X131826393Y-53284909D01*
X131826391Y-53284907D01*
X131664620Y-53132993D01*
X131597030Y-53069522D01*
X131597027Y-53069520D01*
X131597021Y-53069515D01*
X131342495Y-52884591D01*
X131342488Y-52884586D01*
X131342484Y-52884584D01*
X131066766Y-52733006D01*
X131066763Y-52733004D01*
X131066758Y-52733002D01*
X131066757Y-52733001D01*
X130774228Y-52617181D01*
X130774225Y-52617180D01*
X130469476Y-52538934D01*
X130469463Y-52538932D01*
X130157329Y-52499500D01*
X130157318Y-52499500D01*
X129842682Y-52499500D01*
X129842670Y-52499500D01*
X129530536Y-52538932D01*
X129530523Y-52538934D01*
X129225774Y-52617180D01*
X129225771Y-52617181D01*
X128933242Y-52733001D01*
X128933241Y-52733002D01*
X128657516Y-52884584D01*
X128657504Y-52884591D01*
X128402978Y-53069515D01*
X128402968Y-53069523D01*
X128173608Y-53284907D01*
X128173606Y-53284909D01*
X127973054Y-53527334D01*
X127973051Y-53527338D01*
X127804464Y-53792990D01*
X127804461Y-53792996D01*
X127670499Y-54077678D01*
X127670497Y-54077683D01*
X127573270Y-54376916D01*
X127514311Y-54685988D01*
X127514310Y-54685995D01*
X127494556Y-54999994D01*
X125500559Y-54999994D01*
X125500618Y-54997297D01*
X125506819Y-54855271D01*
X125517386Y-54613226D01*
X125518326Y-54602495D01*
X125568152Y-54224025D01*
X125570025Y-54213405D01*
X125652649Y-53840709D01*
X125655440Y-53830295D01*
X125770230Y-53466227D01*
X125773917Y-53456095D01*
X125920003Y-53103412D01*
X125924561Y-53093638D01*
X126100822Y-52755045D01*
X126106217Y-52745700D01*
X126311325Y-52423744D01*
X126317515Y-52414905D01*
X126549896Y-52112060D01*
X126556834Y-52103791D01*
X126814726Y-51822352D01*
X126822352Y-51814726D01*
X127103791Y-51556834D01*
X127112060Y-51549896D01*
X127414905Y-51317515D01*
X127423744Y-51311325D01*
X127745700Y-51106217D01*
X127755045Y-51100822D01*
X128093638Y-50924561D01*
X128103412Y-50920003D01*
X128456095Y-50773917D01*
X128466227Y-50770230D01*
X128830295Y-50655440D01*
X128840709Y-50652649D01*
X129213405Y-50570025D01*
X129224025Y-50568152D01*
X129602495Y-50518326D01*
X129613226Y-50517386D01*
X129997297Y-50500617D01*
X130002706Y-50500500D01*
X130065892Y-50500500D01*
X169934108Y-50500500D01*
X169997294Y-50500500D01*
X170002702Y-50500617D01*
G37*
%TD.AperFunction*%
%TD*%
M02*
