%TF.GenerationSoftware,KiCad,Pcbnew,8.0.7-8.0.7-0~ubuntu22.04.1*%
%TF.CreationDate,2025-01-06T16:11:52+01:00*%
%TF.ProjectId,crack_monitoring_minimal,63726163-6b5f-46d6-9f6e-69746f72696e,rev?*%
%TF.SameCoordinates,Original*%
%TF.FileFunction,Copper,L2,Bot*%
%TF.FilePolarity,Positive*%
%FSLAX46Y46*%
G04 Gerber Fmt 4.6, Leading zero omitted, Abs format (unit mm)*
G04 Created by KiCad (PCBNEW 8.0.7-8.0.7-0~ubuntu22.04.1) date 2025-01-06 16:11:52*
%MOMM*%
%LPD*%
G01*
G04 APERTURE LIST*
G04 Aperture macros list*
%AMRoundRect*
0 Rectangle with rounded corners*
0 $1 Rounding radius*
0 $2 $3 $4 $5 $6 $7 $8 $9 X,Y pos of 4 corners*
0 Add a 4 corners polygon primitive as box body*
4,1,4,$2,$3,$4,$5,$6,$7,$8,$9,$2,$3,0*
0 Add four circle primitives for the rounded corners*
1,1,$1+$1,$2,$3*
1,1,$1+$1,$4,$5*
1,1,$1+$1,$6,$7*
1,1,$1+$1,$8,$9*
0 Add four rect primitives between the rounded corners*
20,1,$1+$1,$2,$3,$4,$5,0*
20,1,$1+$1,$4,$5,$6,$7,0*
20,1,$1+$1,$6,$7,$8,$9,0*
20,1,$1+$1,$8,$9,$2,$3,0*%
G04 Aperture macros list end*
%TA.AperFunction,ComponentPad*%
%ADD10R,1.700000X1.700000*%
%TD*%
%TA.AperFunction,ComponentPad*%
%ADD11O,1.700000X1.700000*%
%TD*%
%TA.AperFunction,ComponentPad*%
%ADD12RoundRect,0.200000X-0.450000X0.200000X-0.450000X-0.200000X0.450000X-0.200000X0.450000X0.200000X0*%
%TD*%
%TA.AperFunction,ComponentPad*%
%ADD13O,1.300000X0.800000*%
%TD*%
%TA.AperFunction,ComponentPad*%
%ADD14RoundRect,0.250000X-0.350000X-0.625000X0.350000X-0.625000X0.350000X0.625000X-0.350000X0.625000X0*%
%TD*%
%TA.AperFunction,ComponentPad*%
%ADD15O,1.200000X1.750000*%
%TD*%
%TA.AperFunction,ComponentPad*%
%ADD16RoundRect,0.250000X0.625000X-0.350000X0.625000X0.350000X-0.625000X0.350000X-0.625000X-0.350000X0*%
%TD*%
%TA.AperFunction,ComponentPad*%
%ADD17O,1.750000X1.200000*%
%TD*%
%TA.AperFunction,ComponentPad*%
%ADD18C,1.700000*%
%TD*%
%TA.AperFunction,SMDPad,CuDef*%
%ADD19R,1.500000X0.650000*%
%TD*%
%TA.AperFunction,ViaPad*%
%ADD20C,0.600000*%
%TD*%
%TA.AperFunction,Conductor*%
%ADD21C,0.200000*%
%TD*%
%TA.AperFunction,Conductor*%
%ADD22C,0.300000*%
%TD*%
G04 APERTURE END LIST*
D10*
%TO.P,J1,1,Pin_1*%
%TO.N,SCL*%
X171000000Y-60380000D03*
D11*
%TO.P,J1,2,Pin_2*%
%TO.N,SDA*%
X171000000Y-62920000D03*
%TO.P,J1,3,Pin_3*%
%TO.N,+3V3*%
X171000000Y-65460000D03*
%TO.P,J1,4,Pin_4*%
%TO.N,GND*%
X171000000Y-68000000D03*
%TD*%
D12*
%TO.P,J5,1,Pin_1*%
%TO.N,BAT+*%
X166000000Y-87250000D03*
D13*
%TO.P,J5,2,Pin_2*%
%TO.N,BAT-*%
X166000000Y-88500000D03*
%TD*%
D10*
%TO.P,J2,1,Pin_1*%
%TO.N,1_Wire*%
X171000000Y-71960000D03*
D11*
%TO.P,J2,2,Pin_2*%
%TO.N,+3V3*%
X171000000Y-74500000D03*
%TO.P,J2,3,Pin_3*%
%TO.N,GND*%
X171000000Y-77040000D03*
%TD*%
D14*
%TO.P,J3,1,Pin_1*%
%TO.N,BAT-*%
X149500000Y-95450000D03*
D15*
%TO.P,J3,2,Pin_2*%
%TO.N,BAT+*%
X151500000Y-95450000D03*
%TD*%
D16*
%TO.P,J4,1,Pin_1*%
%TO.N,BAT-*%
X171000000Y-88500000D03*
D17*
%TO.P,J4,2,Pin_2*%
%TO.N,BAT+*%
X171000000Y-86500000D03*
%TD*%
D10*
%TO.P,U1,1,GND*%
%TO.N,GND*%
X138770000Y-53440000D03*
D18*
%TO.P,U1,2,5V*%
%TO.N,unconnected-(U1-5V-Pad2)*%
X138770000Y-55980000D03*
%TO.P,U1,3,Ve*%
%TO.N,+3V3*%
X138770000Y-58520000D03*
%TO.P,U1,4,Ve*%
X138770000Y-61060000D03*
%TO.P,U1,5,RX*%
%TO.N,unconnected-(U1-RX-Pad5)*%
X138770000Y-63600000D03*
%TO.P,U1,6,TX*%
%TO.N,unconnected-(U1-TX-Pad6)*%
X138770000Y-66140000D03*
%TO.P,U1,7,RST*%
%TO.N,unconnected-(U1-RST-Pad7)*%
X138770000Y-68680000D03*
%TO.P,U1,8,GPIO0_PRG_KEY*%
%TO.N,unconnected-(U1-GPIO0_PRG_KEY-Pad8)*%
X138770000Y-71220000D03*
%TO.P,U1,9,GPIO36_Vext_Ctrl*%
%TO.N,unconnected-(U1-GPIO36_Vext_Ctrl-Pad9)*%
X138770000Y-73760000D03*
%TO.P,U1,10,GPIO35_LED*%
%TO.N,unconnected-(U1-GPIO35_LED-Pad10)*%
X138770000Y-76300000D03*
%TO.P,U1,11,GPIO34*%
%TO.N,unconnected-(U1-GPIO34-Pad11)*%
X138770000Y-78840000D03*
%TO.P,U1,12,GPIO33*%
%TO.N,unconnected-(U1-GPIO33-Pad12)*%
X138770000Y-81380000D03*
%TO.P,U1,13,GPIO47*%
%TO.N,unconnected-(U1-GPIO47-Pad13)*%
X138770000Y-83920000D03*
%TO.P,U1,14,GPIO48*%
%TO.N,unconnected-(U1-GPIO48-Pad14)*%
X138770000Y-86460000D03*
%TO.P,U1,15,GPIO26*%
%TO.N,unconnected-(U1-GPIO26-Pad15)*%
X138770000Y-89000000D03*
%TO.P,U1,16,GPIO21_RST_OLED*%
%TO.N,unconnected-(U1-GPIO21_RST_OLED-Pad16)*%
X138770000Y-91540000D03*
%TO.P,U1,17,GPIO20_ADC2_CH9*%
%TO.N,KEY1*%
X138770000Y-94080000D03*
%TO.P,U1,18,GPIO19_ADC2_CH9*%
%TO.N,KEY2*%
X138770000Y-96620000D03*
%TO.P,U1,19,GND*%
%TO.N,GND*%
X161630000Y-53440000D03*
%TO.P,U1,20,3V3*%
%TO.N,unconnected-(U1-3V3-Pad20)*%
X161630000Y-55980000D03*
%TO.P,U1,21,3V3*%
%TO.N,unconnected-(U1-3V3-Pad21)*%
X161630000Y-58520000D03*
%TO.P,U1,22,GPIO37_ADC_Ctrl*%
%TO.N,unconnected-(U1-GPIO37_ADC_Ctrl-Pad22)*%
X161630000Y-61060000D03*
%TO.P,U1,23,GPIO46*%
%TO.N,unconnected-(U1-GPIO46-Pad23)*%
X161630000Y-63600000D03*
%TO.P,U1,24,GPIO45*%
%TO.N,unconnected-(U1-GPIO45-Pad24)*%
X161630000Y-66140000D03*
%TO.P,U1,25,GPIO42*%
%TO.N,SCL*%
X161630000Y-68680000D03*
%TO.P,U1,26,GPIO41*%
%TO.N,SDA*%
X161630000Y-71220000D03*
%TO.P,U1,27,GPIO40*%
%TO.N,1_Wire*%
X161630000Y-73760000D03*
%TO.P,U1,28,GPIO39*%
%TO.N,unconnected-(U1-GPIO39-Pad28)*%
X161630000Y-76300000D03*
%TO.P,U1,29,GPIO38*%
%TO.N,unconnected-(U1-GPIO38-Pad29)*%
X161630000Y-78840000D03*
%TO.P,U1,30,GPIO1_ADC1_CH0_Bat*%
%TO.N,unconnected-(U1-GPIO1_ADC1_CH0_Bat-Pad30)*%
X161630000Y-81380000D03*
%TO.P,U1,31,GPIO2_ADC1_CH1*%
%TO.N,unconnected-(U1-GPIO2_ADC1_CH1-Pad31)*%
X161630000Y-83920000D03*
%TO.P,U1,32,GPIO3_ADC1_CH2*%
%TO.N,unconnected-(U1-GPIO3_ADC1_CH2-Pad32)*%
X161630000Y-86460000D03*
%TO.P,U1,33,GPIO4_ADC1_CH3*%
%TO.N,unconnected-(U1-GPIO4_ADC1_CH3-Pad33)*%
X161630000Y-89000000D03*
%TO.P,U1,34,GPIO5_ADC1_CH4*%
%TO.N,unconnected-(U1-GPIO5_ADC1_CH4-Pad34)*%
X161630000Y-91540000D03*
%TO.P,U1,35,GPIO6_ADC1_CH5*%
%TO.N,unconnected-(U1-GPIO6_ADC1_CH5-Pad35)*%
X161630000Y-94080000D03*
%TO.P,U1,36,GPIO7_ADC1_CH6*%
%TO.N,unconnected-(U1-GPIO7_ADC1_CH6-Pad36)*%
X161630000Y-96620000D03*
%TD*%
D19*
%TO.P,IC2,1,VDD5V*%
%TO.N,+3V3*%
X152700000Y-73095000D03*
%TO.P,IC2,2,VDD3V3*%
X152700000Y-74365000D03*
%TO.P,IC2,3,OUT*%
%TO.N,unconnected-(IC2-OUT-Pad3)*%
X152700000Y-75635000D03*
%TO.P,IC2,4,GND*%
%TO.N,GND*%
X152700000Y-76905000D03*
%TO.P,IC2,5,PGO*%
%TO.N,unconnected-(IC2-PGO-Pad5)*%
X147300000Y-76905000D03*
%TO.P,IC2,6,SDA*%
%TO.N,SDA*%
X147300000Y-75635000D03*
%TO.P,IC2,7,SCL*%
%TO.N,SCL*%
X147300000Y-74365000D03*
%TO.P,IC2,8,DIR*%
%TO.N,Net-(IC2-DIR)*%
X147300000Y-73095000D03*
%TD*%
D20*
%TO.N,+3V3*%
X154000000Y-72500000D03*
%TO.N,GND*%
X153500000Y-95500000D03*
X165500000Y-52250000D03*
X163500000Y-74000000D03*
X173500000Y-57000000D03*
X134750000Y-85750000D03*
X159500000Y-89500000D03*
X135500000Y-81500000D03*
X166500000Y-65000000D03*
X145250000Y-94000000D03*
X163500000Y-89000000D03*
X167000000Y-79000000D03*
X134750000Y-97000000D03*
X153500000Y-62500000D03*
X132000000Y-80500000D03*
X174000000Y-67670000D03*
X126500000Y-94000000D03*
X135750000Y-51750000D03*
X157000000Y-53500000D03*
X135500000Y-62500000D03*
X127000000Y-71000000D03*
X129250000Y-88000000D03*
X142500000Y-74500000D03*
X146250000Y-61500000D03*
X140500000Y-87500000D03*
X136000000Y-59500000D03*
X129500000Y-80000000D03*
X150000000Y-71500000D03*
X169000000Y-92000000D03*
X151000000Y-76000000D03*
X166000000Y-79500000D03*
X135500000Y-69500000D03*
X164000000Y-63000000D03*
X164750000Y-97750000D03*
X159500000Y-75500000D03*
X173000000Y-65170000D03*
X144000000Y-81250000D03*
X143000000Y-72000000D03*
X157500000Y-58000000D03*
X150750000Y-82000000D03*
X143000000Y-87500000D03*
X154500000Y-76500000D03*
X173000000Y-83500000D03*
X156750000Y-69750000D03*
X169000000Y-74500000D03*
X157000000Y-73500000D03*
X143750000Y-53250000D03*
X173500000Y-76670000D03*
X166500000Y-69500000D03*
X152750000Y-87750000D03*
X156750000Y-78500000D03*
X126500000Y-63250000D03*
X169000000Y-66500000D03*
X173500000Y-97000000D03*
%TO.N,SCL*%
X135500000Y-64000000D03*
%TO.N,SDA*%
X135500000Y-65000000D03*
%TO.N,Net-(IC2-DIR)*%
X146500000Y-72000000D03*
%TD*%
D21*
%TO.N,+3V3*%
X153405000Y-73095000D02*
X154000000Y-72500000D01*
D22*
X152700000Y-74365000D02*
X152700000Y-73095000D01*
D21*
X152700000Y-73095000D02*
X153405000Y-73095000D01*
D22*
%TO.N,GND*%
X152700000Y-76905000D02*
X154095000Y-76905000D01*
X151905000Y-76905000D02*
X152700000Y-76905000D01*
X151000000Y-76000000D02*
X151905000Y-76905000D01*
X154095000Y-76905000D02*
X154500000Y-76500000D01*
%TO.N,SCL*%
X138272943Y-67340000D02*
X136150000Y-65217057D01*
X147300000Y-74365000D02*
X146875000Y-74365000D01*
X136150000Y-65217057D02*
X136150000Y-64650000D01*
X146875000Y-74365000D02*
X139850000Y-67340000D01*
X155340000Y-68680000D02*
X161630000Y-68680000D01*
X149655000Y-74365000D02*
X155340000Y-68680000D01*
X147300000Y-74365000D02*
X149655000Y-74365000D01*
X139850000Y-67340000D02*
X138272943Y-67340000D01*
X136150000Y-64650000D02*
X135500000Y-64000000D01*
%TO.N,SDA*%
X135500000Y-66000000D02*
X135500000Y-65000000D01*
X139267057Y-69880000D02*
X138272943Y-69880000D01*
X155270000Y-77580000D02*
X161630000Y-71220000D01*
X145022057Y-75635000D02*
X139267057Y-69880000D01*
X147725000Y-75635000D02*
X149670000Y-77580000D01*
X138272943Y-69880000D02*
X137570000Y-69177057D01*
X147300000Y-75635000D02*
X147725000Y-75635000D01*
X137570000Y-68070000D02*
X135500000Y-66000000D01*
X137570000Y-69177057D02*
X137570000Y-68070000D01*
X149670000Y-77580000D02*
X155270000Y-77580000D01*
X147300000Y-75635000D02*
X145022057Y-75635000D01*
D21*
%TO.N,Net-(IC2-DIR)*%
X147300000Y-72800000D02*
X146500000Y-72000000D01*
X147300000Y-73095000D02*
X147300000Y-72800000D01*
%TD*%
%TA.AperFunction,Conductor*%
%TO.N,GND*%
G36*
X160439317Y-69350185D02*
G01*
X160473853Y-69383377D01*
X160591501Y-69551396D01*
X160591506Y-69551402D01*
X160758597Y-69718493D01*
X160758603Y-69718498D01*
X160944158Y-69848425D01*
X160987783Y-69903002D01*
X160994977Y-69972500D01*
X160963454Y-70034855D01*
X160944158Y-70051575D01*
X160758597Y-70181505D01*
X160591505Y-70348597D01*
X160455965Y-70542169D01*
X160455964Y-70542171D01*
X160356098Y-70756335D01*
X160356094Y-70756344D01*
X160294938Y-70984586D01*
X160294936Y-70984596D01*
X160274341Y-71219999D01*
X160274341Y-71220000D01*
X160294936Y-71455403D01*
X160294939Y-71455416D01*
X160314384Y-71527989D01*
X160312721Y-71597839D01*
X160282290Y-71647762D01*
X155036873Y-76893181D01*
X154975550Y-76926666D01*
X154949192Y-76929500D01*
X149990808Y-76929500D01*
X149923769Y-76909815D01*
X149903127Y-76893181D01*
X148586818Y-75576872D01*
X148553333Y-75515549D01*
X148550499Y-75489191D01*
X148550499Y-75262129D01*
X148550498Y-75262123D01*
X148550431Y-75261501D01*
X148544091Y-75202517D01*
X148536749Y-75182831D01*
X148531766Y-75113140D01*
X148565252Y-75051817D01*
X148626576Y-75018333D01*
X148652932Y-75015500D01*
X149719071Y-75015500D01*
X149803615Y-74998682D01*
X149844744Y-74990501D01*
X149963127Y-74941465D01*
X149963132Y-74941461D01*
X149963135Y-74941460D01*
X149976795Y-74932333D01*
X149976797Y-74932332D01*
X150046293Y-74885896D01*
X150069669Y-74870277D01*
X151308342Y-73631602D01*
X151369663Y-73598119D01*
X151439354Y-73603103D01*
X151495288Y-73644974D01*
X151504852Y-73659856D01*
X151510453Y-73670113D01*
X151507279Y-73671845D01*
X151525659Y-73721302D01*
X151510725Y-73789557D01*
X151510117Y-73790502D01*
X151506202Y-73797671D01*
X151455910Y-73932513D01*
X151455909Y-73932517D01*
X151449500Y-73992127D01*
X151449500Y-73992134D01*
X151449500Y-73992135D01*
X151449500Y-74737870D01*
X151449501Y-74737876D01*
X151455908Y-74797483D01*
X151506202Y-74932328D01*
X151510454Y-74940114D01*
X151507280Y-74941846D01*
X151525659Y-74991302D01*
X151510725Y-75059557D01*
X151510117Y-75060502D01*
X151506202Y-75067671D01*
X151465115Y-75177834D01*
X151455909Y-75202517D01*
X151449500Y-75262127D01*
X151449500Y-75262134D01*
X151449500Y-75262135D01*
X151449500Y-76007870D01*
X151449501Y-76007876D01*
X151455908Y-76067483D01*
X151506202Y-76202327D01*
X151510452Y-76210109D01*
X151507394Y-76211778D01*
X151525963Y-76261594D01*
X151511098Y-76329864D01*
X151510717Y-76330457D01*
X151506645Y-76337913D01*
X151456403Y-76472620D01*
X151456401Y-76472627D01*
X151450000Y-76532155D01*
X151450000Y-76655000D01*
X153950000Y-76655000D01*
X153950000Y-76532172D01*
X153949999Y-76532155D01*
X153943598Y-76472627D01*
X153943597Y-76472623D01*
X153893349Y-76337904D01*
X153889101Y-76330123D01*
X153892360Y-76328343D01*
X153874046Y-76279374D01*
X153888836Y-76211087D01*
X153890023Y-76209239D01*
X153893793Y-76202335D01*
X153893792Y-76202335D01*
X153893796Y-76202331D01*
X153944091Y-76067483D01*
X153950500Y-76007873D01*
X153950499Y-75262128D01*
X153944091Y-75202517D01*
X153934885Y-75177834D01*
X153893797Y-75067670D01*
X153889547Y-75059888D01*
X153892757Y-75058134D01*
X153874361Y-75009001D01*
X153889127Y-74940709D01*
X153889752Y-74939736D01*
X153893797Y-74932329D01*
X153905052Y-74902150D01*
X153944091Y-74797483D01*
X153950500Y-74737873D01*
X153950499Y-73992128D01*
X153944091Y-73932517D01*
X153893797Y-73797671D01*
X153893797Y-73797670D01*
X153889547Y-73789888D01*
X153892757Y-73788134D01*
X153874361Y-73739001D01*
X153889127Y-73670709D01*
X153889752Y-73669736D01*
X153893797Y-73662329D01*
X153944091Y-73527483D01*
X153950499Y-73467886D01*
X153950499Y-73467882D01*
X153950500Y-73467873D01*
X153950499Y-73450099D01*
X153970180Y-73383061D01*
X153986813Y-73362420D01*
X154018535Y-73330698D01*
X154079856Y-73297215D01*
X154092311Y-73295163D01*
X154179255Y-73285368D01*
X154349522Y-73225789D01*
X154502262Y-73129816D01*
X154629816Y-73002262D01*
X154725789Y-72849522D01*
X154785368Y-72679255D01*
X154797131Y-72574855D01*
X154805565Y-72500003D01*
X154805565Y-72499996D01*
X154785369Y-72320750D01*
X154785368Y-72320745D01*
X154763585Y-72258493D01*
X154725789Y-72150478D01*
X154629816Y-71997738D01*
X154502262Y-71870184D01*
X154349523Y-71774211D01*
X154179254Y-71714631D01*
X154179249Y-71714630D01*
X154000004Y-71694435D01*
X153999996Y-71694435D01*
X153820750Y-71714630D01*
X153820745Y-71714631D01*
X153650476Y-71774211D01*
X153497737Y-71870184D01*
X153370184Y-71997737D01*
X153274212Y-72150475D01*
X153274210Y-72150478D01*
X153261622Y-72186455D01*
X153220901Y-72243231D01*
X153155948Y-72268978D01*
X153144581Y-72269500D01*
X152969807Y-72269500D01*
X152902768Y-72249815D01*
X152857013Y-72197011D01*
X152847069Y-72127853D01*
X152876094Y-72064297D01*
X152882126Y-72057819D01*
X154183602Y-70756344D01*
X155573127Y-69366819D01*
X155634450Y-69333334D01*
X155660808Y-69330500D01*
X160372278Y-69330500D01*
X160439317Y-69350185D01*
G37*
%TD.AperFunction*%
%TA.AperFunction,Conductor*%
G36*
X140325308Y-68735254D02*
G01*
X146013181Y-74423127D01*
X146046666Y-74484450D01*
X146049500Y-74510807D01*
X146049500Y-74737869D01*
X146049501Y-74737876D01*
X146055908Y-74797482D01*
X146063251Y-74817169D01*
X146068234Y-74886860D01*
X146034748Y-74948183D01*
X145973424Y-74981667D01*
X145947068Y-74984500D01*
X145342865Y-74984500D01*
X145275826Y-74964815D01*
X145255184Y-74948181D01*
X139902622Y-69595619D01*
X139869137Y-69534296D01*
X139874121Y-69464604D01*
X139888725Y-69436819D01*
X139944035Y-69357830D01*
X140043903Y-69143663D01*
X140105063Y-68915408D01*
X140114099Y-68812126D01*
X140139552Y-68747059D01*
X140196143Y-68706080D01*
X140265904Y-68702202D01*
X140325308Y-68735254D01*
G37*
%TD.AperFunction*%
%TA.AperFunction,Conductor*%
G36*
X170002702Y-50500617D02*
G01*
X170386771Y-50517386D01*
X170397506Y-50518326D01*
X170775971Y-50568152D01*
X170786597Y-50570025D01*
X171159284Y-50652648D01*
X171169710Y-50655442D01*
X171533765Y-50770227D01*
X171543911Y-50773920D01*
X171896578Y-50920000D01*
X171906369Y-50924566D01*
X172244942Y-51100816D01*
X172254310Y-51106224D01*
X172576244Y-51311318D01*
X172585105Y-51317523D01*
X172887930Y-51549889D01*
X172896217Y-51556843D01*
X173177635Y-51814715D01*
X173185284Y-51822364D01*
X173443156Y-52103782D01*
X173450110Y-52112069D01*
X173682476Y-52414894D01*
X173688681Y-52423755D01*
X173893775Y-52745689D01*
X173899183Y-52755057D01*
X174075430Y-53093623D01*
X174080002Y-53103427D01*
X174226075Y-53456078D01*
X174229775Y-53466244D01*
X174344554Y-53830278D01*
X174347354Y-53840727D01*
X174429971Y-54213389D01*
X174431849Y-54224042D01*
X174481671Y-54602473D01*
X174482614Y-54613249D01*
X174499382Y-54997297D01*
X174499500Y-55002706D01*
X174499500Y-94997293D01*
X174499382Y-95002702D01*
X174482614Y-95386750D01*
X174481671Y-95397526D01*
X174431849Y-95775957D01*
X174429971Y-95786610D01*
X174347354Y-96159272D01*
X174344554Y-96169721D01*
X174229775Y-96533755D01*
X174226075Y-96543921D01*
X174080002Y-96896572D01*
X174075430Y-96906376D01*
X173899183Y-97244942D01*
X173893775Y-97254310D01*
X173688681Y-97576244D01*
X173682476Y-97585105D01*
X173450110Y-97887930D01*
X173443156Y-97896217D01*
X173185284Y-98177635D01*
X173177635Y-98185284D01*
X172896217Y-98443156D01*
X172887930Y-98450110D01*
X172585105Y-98682476D01*
X172576244Y-98688681D01*
X172254310Y-98893775D01*
X172244942Y-98899183D01*
X171906376Y-99075430D01*
X171896572Y-99080002D01*
X171543921Y-99226075D01*
X171533755Y-99229775D01*
X171169721Y-99344554D01*
X171159272Y-99347354D01*
X170786610Y-99429971D01*
X170775957Y-99431849D01*
X170397526Y-99481671D01*
X170386750Y-99482614D01*
X170002703Y-99499382D01*
X169997294Y-99499500D01*
X130002706Y-99499500D01*
X129997297Y-99499382D01*
X129613249Y-99482614D01*
X129602473Y-99481671D01*
X129224042Y-99431849D01*
X129213389Y-99429971D01*
X128840727Y-99347354D01*
X128830278Y-99344554D01*
X128466244Y-99229775D01*
X128456078Y-99226075D01*
X128103427Y-99080002D01*
X128093623Y-99075430D01*
X127755057Y-98899183D01*
X127745689Y-98893775D01*
X127423755Y-98688681D01*
X127414894Y-98682476D01*
X127112069Y-98450110D01*
X127103782Y-98443156D01*
X126822364Y-98185284D01*
X126814715Y-98177635D01*
X126556843Y-97896217D01*
X126549889Y-97887930D01*
X126317523Y-97585105D01*
X126311318Y-97576244D01*
X126114306Y-97266997D01*
X126106223Y-97254309D01*
X126100816Y-97244942D01*
X125924569Y-96906376D01*
X125919997Y-96896572D01*
X125773920Y-96543911D01*
X125770224Y-96533755D01*
X125753104Y-96479457D01*
X125655442Y-96169710D01*
X125652648Y-96159284D01*
X125570025Y-95786597D01*
X125568152Y-95775971D01*
X125518326Y-95397506D01*
X125517386Y-95386771D01*
X125500618Y-95002702D01*
X125500559Y-94999994D01*
X127494556Y-94999994D01*
X127494556Y-95000005D01*
X127514310Y-95314004D01*
X127514311Y-95314011D01*
X127537363Y-95434855D01*
X127565338Y-95581505D01*
X127573270Y-95623083D01*
X127670497Y-95922316D01*
X127670499Y-95922321D01*
X127804461Y-96207003D01*
X127804464Y-96207009D01*
X127973051Y-96472661D01*
X127973054Y-96472665D01*
X128173606Y-96715090D01*
X128173608Y-96715092D01*
X128173610Y-96715094D01*
X128323024Y-96855403D01*
X128402968Y-96930476D01*
X128402978Y-96930484D01*
X128657504Y-97115408D01*
X128657509Y-97115410D01*
X128657516Y-97115416D01*
X128933234Y-97266994D01*
X128933239Y-97266996D01*
X128933241Y-97266997D01*
X128933242Y-97266998D01*
X129225771Y-97382818D01*
X129225774Y-97382819D01*
X129530523Y-97461065D01*
X129530527Y-97461066D01*
X129596010Y-97469338D01*
X129842670Y-97500499D01*
X129842679Y-97500499D01*
X129842682Y-97500500D01*
X129842684Y-97500500D01*
X130157316Y-97500500D01*
X130157318Y-97500500D01*
X130157321Y-97500499D01*
X130157329Y-97500499D01*
X130343593Y-97476968D01*
X130469473Y-97461066D01*
X130774225Y-97382819D01*
X130774228Y-97382818D01*
X131066757Y-97266998D01*
X131066758Y-97266997D01*
X131066756Y-97266997D01*
X131066766Y-97266994D01*
X131342484Y-97115416D01*
X131597030Y-96930478D01*
X131826390Y-96715094D01*
X132026947Y-96472663D01*
X132195537Y-96207007D01*
X132329503Y-95922315D01*
X132426731Y-95623079D01*
X132485688Y-95314015D01*
X132505444Y-95000000D01*
X132502386Y-94951402D01*
X132485689Y-94685995D01*
X132485688Y-94685988D01*
X132485688Y-94685985D01*
X132426731Y-94376921D01*
X132329503Y-94077685D01*
X132328004Y-94074500D01*
X132244376Y-93896782D01*
X132195537Y-93792993D01*
X132090067Y-93626798D01*
X132026948Y-93527338D01*
X132026945Y-93527334D01*
X131826393Y-93284909D01*
X131826391Y-93284907D01*
X131745132Y-93208599D01*
X131597030Y-93069522D01*
X131597027Y-93069520D01*
X131597021Y-93069515D01*
X131342495Y-92884591D01*
X131342488Y-92884586D01*
X131342484Y-92884584D01*
X131066766Y-92733006D01*
X131066763Y-92733004D01*
X131066758Y-92733002D01*
X131066757Y-92733001D01*
X130774228Y-92617181D01*
X130774225Y-92617180D01*
X130469476Y-92538934D01*
X130469463Y-92538932D01*
X130157329Y-92499500D01*
X130157318Y-92499500D01*
X129842682Y-92499500D01*
X129842670Y-92499500D01*
X129530536Y-92538932D01*
X129530523Y-92538934D01*
X129225774Y-92617180D01*
X129225771Y-92617181D01*
X128933242Y-92733001D01*
X128933241Y-92733002D01*
X128657516Y-92884584D01*
X128657504Y-92884591D01*
X128402978Y-93069515D01*
X128402968Y-93069523D01*
X128173608Y-93284907D01*
X128173606Y-93284909D01*
X127973054Y-93527334D01*
X127973051Y-93527338D01*
X127804464Y-93792990D01*
X127804461Y-93792996D01*
X127670499Y-94077678D01*
X127670497Y-94077683D01*
X127573270Y-94376916D01*
X127514311Y-94685988D01*
X127514310Y-94685995D01*
X127494556Y-94999994D01*
X125500559Y-94999994D01*
X125500500Y-94997293D01*
X125500500Y-61500000D01*
X128000000Y-61500000D01*
X128000000Y-66000000D01*
X134734992Y-66000000D01*
X134802031Y-66019685D01*
X134847786Y-66072489D01*
X134856609Y-66099808D01*
X134864604Y-66140000D01*
X134874499Y-66189744D01*
X134923535Y-66308127D01*
X134994723Y-66414669D01*
X134994726Y-66414673D01*
X134994727Y-66414674D01*
X136883181Y-68303127D01*
X136916666Y-68364450D01*
X136919500Y-68390808D01*
X136919500Y-69241128D01*
X136937278Y-69330500D01*
X136937278Y-69330501D01*
X136944497Y-69366794D01*
X136944498Y-69366799D01*
X136993534Y-69485182D01*
X137064726Y-69591730D01*
X137064727Y-69591731D01*
X137695034Y-70222037D01*
X137728519Y-70283360D01*
X137723535Y-70353051D01*
X137708928Y-70380841D01*
X137595965Y-70542169D01*
X137595964Y-70542171D01*
X137496098Y-70756335D01*
X137496094Y-70756344D01*
X137434938Y-70984586D01*
X137434936Y-70984596D01*
X137414341Y-71219999D01*
X137414341Y-71220000D01*
X137434936Y-71455403D01*
X137434938Y-71455413D01*
X137496094Y-71683655D01*
X137496096Y-71683659D01*
X137496097Y-71683663D01*
X137560019Y-71820743D01*
X137595965Y-71897830D01*
X137595967Y-71897834D01*
X137665921Y-71997738D01*
X137727587Y-72085806D01*
X137731501Y-72091395D01*
X137731506Y-72091402D01*
X137898597Y-72258493D01*
X137898603Y-72258498D01*
X138084158Y-72388425D01*
X138127783Y-72443002D01*
X138134977Y-72512500D01*
X138103454Y-72574855D01*
X138084158Y-72591575D01*
X137898597Y-72721505D01*
X137731505Y-72888597D01*
X137595965Y-73082169D01*
X137595964Y-73082171D01*
X137496098Y-73296335D01*
X137496094Y-73296344D01*
X137434938Y-73524586D01*
X137434936Y-73524596D01*
X137414341Y-73759999D01*
X137414341Y-73760000D01*
X137434936Y-73995403D01*
X137434938Y-73995413D01*
X137496094Y-74223655D01*
X137496096Y-74223659D01*
X137496097Y-74223663D01*
X137589109Y-74423127D01*
X137595965Y-74437830D01*
X137595967Y-74437834D01*
X137731501Y-74631395D01*
X137731506Y-74631402D01*
X137898597Y-74798493D01*
X137898603Y-74798498D01*
X138084158Y-74928425D01*
X138127783Y-74983002D01*
X138134977Y-75052500D01*
X138103454Y-75114855D01*
X138084158Y-75131575D01*
X137898597Y-75261505D01*
X137731505Y-75428597D01*
X137595965Y-75622169D01*
X137595964Y-75622171D01*
X137496098Y-75836335D01*
X137496094Y-75836344D01*
X137434938Y-76064586D01*
X137434936Y-76064596D01*
X137414341Y-76299999D01*
X137414341Y-76300000D01*
X137434936Y-76535403D01*
X137434938Y-76535413D01*
X137496094Y-76763655D01*
X137496096Y-76763659D01*
X137496097Y-76763663D01*
X137564249Y-76909815D01*
X137595965Y-76977830D01*
X137595967Y-76977834D01*
X137731501Y-77171395D01*
X137731506Y-77171402D01*
X137898597Y-77338493D01*
X137898603Y-77338498D01*
X138084158Y-77468425D01*
X138127783Y-77523002D01*
X138134977Y-77592500D01*
X138103454Y-77654855D01*
X138084158Y-77671575D01*
X137898597Y-77801505D01*
X137731505Y-77968597D01*
X137595965Y-78162169D01*
X137595964Y-78162171D01*
X137496098Y-78376335D01*
X137496094Y-78376344D01*
X137434938Y-78604586D01*
X137434936Y-78604596D01*
X137414341Y-78839999D01*
X137414341Y-78840000D01*
X137434936Y-79075403D01*
X137434938Y-79075413D01*
X137496094Y-79303655D01*
X137496096Y-79303659D01*
X137496097Y-79303663D01*
X137595965Y-79517830D01*
X137595967Y-79517834D01*
X137731501Y-79711395D01*
X137731506Y-79711402D01*
X137898597Y-79878493D01*
X137898603Y-79878498D01*
X138084158Y-80008425D01*
X138127783Y-80063002D01*
X138134977Y-80132500D01*
X138103454Y-80194855D01*
X138084158Y-80211575D01*
X137898597Y-80341505D01*
X137731505Y-80508597D01*
X137595965Y-80702169D01*
X137595964Y-80702171D01*
X137496098Y-80916335D01*
X137496094Y-80916344D01*
X137434938Y-81144586D01*
X137434936Y-81144596D01*
X137414341Y-81379999D01*
X137414341Y-81380000D01*
X137434936Y-81615403D01*
X137434938Y-81615413D01*
X137496094Y-81843655D01*
X137496096Y-81843659D01*
X137496097Y-81843663D01*
X137595965Y-82057830D01*
X137595967Y-82057834D01*
X137731501Y-82251395D01*
X137731506Y-82251402D01*
X137898597Y-82418493D01*
X137898603Y-82418498D01*
X138084158Y-82548425D01*
X138127783Y-82603002D01*
X138134977Y-82672500D01*
X138103454Y-82734855D01*
X138084158Y-82751575D01*
X137898597Y-82881505D01*
X137731505Y-83048597D01*
X137595965Y-83242169D01*
X137595964Y-83242171D01*
X137496098Y-83456335D01*
X137496094Y-83456344D01*
X137434938Y-83684586D01*
X137434936Y-83684596D01*
X137414341Y-83919999D01*
X137414341Y-83920000D01*
X137434936Y-84155403D01*
X137434938Y-84155413D01*
X137496094Y-84383655D01*
X137496096Y-84383659D01*
X137496097Y-84383663D01*
X137595965Y-84597830D01*
X137595967Y-84597834D01*
X137731501Y-84791395D01*
X137731506Y-84791402D01*
X137898597Y-84958493D01*
X137898603Y-84958498D01*
X138084158Y-85088425D01*
X138127783Y-85143002D01*
X138134977Y-85212500D01*
X138103454Y-85274855D01*
X138084158Y-85291575D01*
X137898597Y-85421505D01*
X137731505Y-85588597D01*
X137595965Y-85782169D01*
X137595964Y-85782171D01*
X137496098Y-85996335D01*
X137496094Y-85996344D01*
X137434938Y-86224586D01*
X137434936Y-86224596D01*
X137414341Y-86459999D01*
X137414341Y-86460000D01*
X137434936Y-86695403D01*
X137434938Y-86695413D01*
X137496094Y-86923655D01*
X137496096Y-86923659D01*
X137496097Y-86923663D01*
X137567501Y-87076788D01*
X137595965Y-87137830D01*
X137595967Y-87137834D01*
X137651351Y-87216930D01*
X137726650Y-87324468D01*
X137731501Y-87331395D01*
X137731506Y-87331402D01*
X137898597Y-87498493D01*
X137898603Y-87498498D01*
X138084158Y-87628425D01*
X138127783Y-87683002D01*
X138134977Y-87752500D01*
X138103454Y-87814855D01*
X138084158Y-87831575D01*
X137898597Y-87961505D01*
X137731505Y-88128597D01*
X137595965Y-88322169D01*
X137595964Y-88322171D01*
X137496098Y-88536335D01*
X137496094Y-88536344D01*
X137434938Y-88764586D01*
X137434936Y-88764596D01*
X137414341Y-88999999D01*
X137414341Y-89000000D01*
X137434936Y-89235403D01*
X137434938Y-89235413D01*
X137496094Y-89463655D01*
X137496096Y-89463659D01*
X137496097Y-89463663D01*
X137595965Y-89677830D01*
X137595967Y-89677834D01*
X137731501Y-89871395D01*
X137731506Y-89871402D01*
X137898597Y-90038493D01*
X137898603Y-90038498D01*
X138084158Y-90168425D01*
X138127783Y-90223002D01*
X138134977Y-90292500D01*
X138103454Y-90354855D01*
X138084158Y-90371575D01*
X137898597Y-90501505D01*
X137731505Y-90668597D01*
X137595965Y-90862169D01*
X137595964Y-90862171D01*
X137496098Y-91076335D01*
X137496094Y-91076344D01*
X137434938Y-91304586D01*
X137434936Y-91304596D01*
X137414341Y-91539999D01*
X137414341Y-91540000D01*
X137434936Y-91775403D01*
X137434938Y-91775413D01*
X137496094Y-92003655D01*
X137496096Y-92003659D01*
X137496097Y-92003663D01*
X137595965Y-92217830D01*
X137595967Y-92217834D01*
X137731501Y-92411395D01*
X137731506Y-92411402D01*
X137898597Y-92578493D01*
X137898603Y-92578498D01*
X138084158Y-92708425D01*
X138127783Y-92763002D01*
X138134977Y-92832500D01*
X138103454Y-92894855D01*
X138084158Y-92911575D01*
X137898597Y-93041505D01*
X137731505Y-93208597D01*
X137595965Y-93402169D01*
X137595964Y-93402171D01*
X137496098Y-93616335D01*
X137496094Y-93616344D01*
X137434938Y-93844586D01*
X137434936Y-93844596D01*
X137414341Y-94079999D01*
X137414341Y-94080000D01*
X137434936Y-94315403D01*
X137434938Y-94315413D01*
X137496094Y-94543655D01*
X137496096Y-94543659D01*
X137496097Y-94543663D01*
X137562468Y-94685995D01*
X137595965Y-94757830D01*
X137595967Y-94757834D01*
X137731501Y-94951395D01*
X137731506Y-94951402D01*
X137898597Y-95118493D01*
X137898603Y-95118498D01*
X138084158Y-95248425D01*
X138127783Y-95303002D01*
X138134977Y-95372500D01*
X138103454Y-95434855D01*
X138084158Y-95451575D01*
X137898597Y-95581505D01*
X137731505Y-95748597D01*
X137595965Y-95942169D01*
X137595964Y-95942171D01*
X137496098Y-96156335D01*
X137496094Y-96156344D01*
X137434938Y-96384586D01*
X137434936Y-96384596D01*
X137414341Y-96619999D01*
X137414341Y-96620000D01*
X137434936Y-96855403D01*
X137434938Y-96855413D01*
X137496094Y-97083655D01*
X137496096Y-97083659D01*
X137496097Y-97083663D01*
X137510904Y-97115416D01*
X137595965Y-97297830D01*
X137595967Y-97297834D01*
X137655474Y-97382818D01*
X137731505Y-97491401D01*
X137898599Y-97658495D01*
X137995384Y-97726265D01*
X138092165Y-97794032D01*
X138092167Y-97794033D01*
X138092170Y-97794035D01*
X138306337Y-97893903D01*
X138534592Y-97955063D01*
X138722918Y-97971539D01*
X138769999Y-97975659D01*
X138770000Y-97975659D01*
X138770001Y-97975659D01*
X138809234Y-97972226D01*
X139005408Y-97955063D01*
X139233663Y-97893903D01*
X139447830Y-97794035D01*
X139641401Y-97658495D01*
X139808495Y-97491401D01*
X139944035Y-97297830D01*
X140043903Y-97083663D01*
X140105063Y-96855408D01*
X140125659Y-96620000D01*
X140105063Y-96384592D01*
X140046105Y-96164556D01*
X140043905Y-96156344D01*
X140043904Y-96156343D01*
X140043903Y-96156337D01*
X139944035Y-95942171D01*
X139930133Y-95922316D01*
X139808494Y-95748597D01*
X139641402Y-95581506D01*
X139641396Y-95581501D01*
X139455842Y-95451575D01*
X139412217Y-95396998D01*
X139405023Y-95327500D01*
X139436546Y-95265145D01*
X139455842Y-95248425D01*
X139485723Y-95227502D01*
X139641401Y-95118495D01*
X139808495Y-94951401D01*
X139932024Y-94774983D01*
X148399500Y-94774983D01*
X148399500Y-96125001D01*
X148399501Y-96125018D01*
X148410000Y-96227796D01*
X148410001Y-96227799D01*
X148465185Y-96394331D01*
X148465187Y-96394336D01*
X148488870Y-96432732D01*
X148557288Y-96543656D01*
X148681344Y-96667712D01*
X148830666Y-96759814D01*
X148997203Y-96814999D01*
X149099991Y-96825500D01*
X149900008Y-96825499D01*
X149900016Y-96825498D01*
X149900019Y-96825498D01*
X149956302Y-96819748D01*
X150002797Y-96814999D01*
X150169334Y-96759814D01*
X150318656Y-96667712D01*
X150442712Y-96543656D01*
X150482310Y-96479456D01*
X150534258Y-96432732D01*
X150603220Y-96421509D01*
X150667303Y-96449352D01*
X150675530Y-96456872D01*
X150783072Y-96564414D01*
X150923212Y-96666232D01*
X151077555Y-96744873D01*
X151242299Y-96798402D01*
X151413389Y-96825500D01*
X151413390Y-96825500D01*
X151586610Y-96825500D01*
X151586611Y-96825500D01*
X151757701Y-96798402D01*
X151922445Y-96744873D01*
X152076788Y-96666232D01*
X152216928Y-96564414D01*
X152339414Y-96441928D01*
X152441232Y-96301788D01*
X152519873Y-96147445D01*
X152573402Y-95982701D01*
X152600500Y-95811611D01*
X152600500Y-95088389D01*
X152573402Y-94917299D01*
X152519873Y-94752555D01*
X152441232Y-94598212D01*
X152339414Y-94458072D01*
X152216928Y-94335586D01*
X152076788Y-94233768D01*
X151922445Y-94155127D01*
X151757701Y-94101598D01*
X151757699Y-94101597D01*
X151757698Y-94101597D01*
X151606720Y-94077685D01*
X151586611Y-94074500D01*
X151413389Y-94074500D01*
X151393280Y-94077685D01*
X151242302Y-94101597D01*
X151077552Y-94155128D01*
X150923211Y-94233768D01*
X150783073Y-94335585D01*
X150675530Y-94443128D01*
X150614207Y-94476612D01*
X150544515Y-94471628D01*
X150488582Y-94429756D01*
X150482310Y-94420543D01*
X150442712Y-94356344D01*
X150318656Y-94232288D01*
X150193559Y-94155128D01*
X150169336Y-94140187D01*
X150169331Y-94140185D01*
X150167862Y-94139698D01*
X150002797Y-94085001D01*
X150002795Y-94085000D01*
X149900010Y-94074500D01*
X149099998Y-94074500D01*
X149099980Y-94074501D01*
X148997203Y-94085000D01*
X148997200Y-94085001D01*
X148830668Y-94140185D01*
X148830663Y-94140187D01*
X148681342Y-94232289D01*
X148557289Y-94356342D01*
X148465187Y-94505663D01*
X148465185Y-94505668D01*
X148452595Y-94543663D01*
X148410001Y-94672203D01*
X148410001Y-94672204D01*
X148410000Y-94672204D01*
X148399500Y-94774983D01*
X139932024Y-94774983D01*
X139944035Y-94757830D01*
X140043903Y-94543663D01*
X140105063Y-94315408D01*
X140125659Y-94080000D01*
X140125570Y-94078988D01*
X140105063Y-93844596D01*
X140105063Y-93844592D01*
X140043903Y-93616337D01*
X139944035Y-93402171D01*
X139861927Y-93284907D01*
X139808494Y-93208597D01*
X139641402Y-93041506D01*
X139641396Y-93041501D01*
X139455842Y-92911575D01*
X139412217Y-92856998D01*
X139405023Y-92787500D01*
X139436546Y-92725145D01*
X139455842Y-92708425D01*
X139478026Y-92692891D01*
X139641401Y-92578495D01*
X139808495Y-92411401D01*
X139944035Y-92217830D01*
X140043903Y-92003663D01*
X140105063Y-91775408D01*
X140125659Y-91540000D01*
X140105063Y-91304592D01*
X140043903Y-91076337D01*
X139944035Y-90862171D01*
X139808495Y-90668599D01*
X139808494Y-90668597D01*
X139641402Y-90501506D01*
X139641396Y-90501501D01*
X139455842Y-90371575D01*
X139412217Y-90316998D01*
X139405023Y-90247500D01*
X139436546Y-90185145D01*
X139455842Y-90168425D01*
X139478026Y-90152891D01*
X139641401Y-90038495D01*
X139808495Y-89871401D01*
X139944035Y-89677830D01*
X140043903Y-89463663D01*
X140105063Y-89235408D01*
X140125659Y-89000000D01*
X140105063Y-88764592D01*
X140043903Y-88536337D01*
X139944035Y-88322171D01*
X139884631Y-88237332D01*
X139808494Y-88128597D01*
X139641402Y-87961506D01*
X139641396Y-87961501D01*
X139455842Y-87831575D01*
X139412217Y-87776998D01*
X139405023Y-87707500D01*
X139436546Y-87645145D01*
X139455842Y-87628425D01*
X139557440Y-87557285D01*
X139641401Y-87498495D01*
X139808495Y-87331401D01*
X139944035Y-87137830D01*
X140043903Y-86923663D01*
X140105063Y-86695408D01*
X140125659Y-86460000D01*
X140105063Y-86224592D01*
X140043903Y-85996337D01*
X139944035Y-85782171D01*
X139808495Y-85588599D01*
X139808494Y-85588597D01*
X139641402Y-85421506D01*
X139641396Y-85421501D01*
X139455842Y-85291575D01*
X139412217Y-85236998D01*
X139405023Y-85167500D01*
X139436546Y-85105145D01*
X139455842Y-85088425D01*
X139478026Y-85072891D01*
X139641401Y-84958495D01*
X139808495Y-84791401D01*
X139944035Y-84597830D01*
X140043903Y-84383663D01*
X140105063Y-84155408D01*
X140125659Y-83920000D01*
X140105063Y-83684592D01*
X140043903Y-83456337D01*
X139944035Y-83242171D01*
X139808495Y-83048599D01*
X139808494Y-83048597D01*
X139641402Y-82881506D01*
X139641396Y-82881501D01*
X139455842Y-82751575D01*
X139412217Y-82696998D01*
X139405023Y-82627500D01*
X139436546Y-82565145D01*
X139455842Y-82548425D01*
X139478026Y-82532891D01*
X139641401Y-82418495D01*
X139808495Y-82251401D01*
X139944035Y-82057830D01*
X140043903Y-81843663D01*
X140105063Y-81615408D01*
X140125659Y-81380000D01*
X140105063Y-81144592D01*
X140043903Y-80916337D01*
X139944035Y-80702171D01*
X139808495Y-80508599D01*
X139808494Y-80508597D01*
X139641402Y-80341506D01*
X139641396Y-80341501D01*
X139455842Y-80211575D01*
X139412217Y-80156998D01*
X139405023Y-80087500D01*
X139436546Y-80025145D01*
X139455842Y-80008425D01*
X139478026Y-79992891D01*
X139641401Y-79878495D01*
X139808495Y-79711401D01*
X139944035Y-79517830D01*
X140043903Y-79303663D01*
X140105063Y-79075408D01*
X140125659Y-78840000D01*
X140105063Y-78604592D01*
X140043903Y-78376337D01*
X139944035Y-78162171D01*
X139890194Y-78085277D01*
X139808494Y-77968597D01*
X139641402Y-77801506D01*
X139641396Y-77801501D01*
X139455842Y-77671575D01*
X139412217Y-77616998D01*
X139405023Y-77547500D01*
X139436546Y-77485145D01*
X139455842Y-77468425D01*
X139496296Y-77440099D01*
X139641401Y-77338495D01*
X139808495Y-77171401D01*
X139944035Y-76977830D01*
X140043903Y-76763663D01*
X140105063Y-76535408D01*
X140125659Y-76300000D01*
X140105063Y-76064592D01*
X140043903Y-75836337D01*
X139944035Y-75622171D01*
X139912317Y-75576872D01*
X139808494Y-75428597D01*
X139641402Y-75261506D01*
X139641396Y-75261501D01*
X139455842Y-75131575D01*
X139412217Y-75076998D01*
X139405023Y-75007500D01*
X139436546Y-74945145D01*
X139455842Y-74928425D01*
X139538893Y-74870272D01*
X139641401Y-74798495D01*
X139808495Y-74631401D01*
X139944035Y-74437830D01*
X140043903Y-74223663D01*
X140105063Y-73995408D01*
X140125659Y-73760000D01*
X140105063Y-73524592D01*
X140045981Y-73304091D01*
X140043905Y-73296344D01*
X140043904Y-73296343D01*
X140043903Y-73296337D01*
X139944035Y-73082171D01*
X139888083Y-73002262D01*
X139808494Y-72888597D01*
X139641402Y-72721506D01*
X139641396Y-72721501D01*
X139455842Y-72591575D01*
X139412217Y-72536998D01*
X139405023Y-72467500D01*
X139436546Y-72405145D01*
X139455842Y-72388425D01*
X139478026Y-72372891D01*
X139641401Y-72258495D01*
X139808495Y-72091401D01*
X139944035Y-71897830D01*
X140003048Y-71771275D01*
X140049220Y-71718837D01*
X140116414Y-71699685D01*
X140183295Y-71719901D01*
X140203111Y-71736000D01*
X144607382Y-76140272D01*
X144607389Y-76140278D01*
X144698955Y-76201460D01*
X144698957Y-76201461D01*
X144713921Y-76211460D01*
X144713932Y-76211466D01*
X144740749Y-76222574D01*
X144832313Y-76260501D01*
X144832317Y-76260501D01*
X144832318Y-76260502D01*
X144957985Y-76285500D01*
X144957988Y-76285500D01*
X145947068Y-76285500D01*
X146014107Y-76305185D01*
X146059862Y-76357989D01*
X146069806Y-76427147D01*
X146063251Y-76452831D01*
X146055909Y-76472517D01*
X146049500Y-76532127D01*
X146049500Y-76532134D01*
X146049500Y-76532135D01*
X146049500Y-77277870D01*
X146049501Y-77277876D01*
X146055908Y-77337483D01*
X146106202Y-77472328D01*
X146106206Y-77472335D01*
X146192452Y-77587544D01*
X146192455Y-77587547D01*
X146307664Y-77673793D01*
X146307671Y-77673797D01*
X146442517Y-77724091D01*
X146442516Y-77724091D01*
X146449444Y-77724835D01*
X146502127Y-77730500D01*
X148097872Y-77730499D01*
X148157483Y-77724091D01*
X148292331Y-77673796D01*
X148407546Y-77587546D01*
X148471651Y-77501912D01*
X148527583Y-77460043D01*
X148597274Y-77455059D01*
X148658597Y-77488544D01*
X149255324Y-78085271D01*
X149255331Y-78085277D01*
X149361871Y-78156464D01*
X149361870Y-78156464D01*
X149375648Y-78162171D01*
X149480256Y-78205501D01*
X149480260Y-78205501D01*
X149480261Y-78205502D01*
X149605928Y-78230500D01*
X149605931Y-78230500D01*
X155334071Y-78230500D01*
X155419029Y-78213600D01*
X155459744Y-78205501D01*
X155578127Y-78156465D01*
X155684669Y-78085277D01*
X160065039Y-73704905D01*
X160126360Y-73671422D01*
X160196052Y-73676406D01*
X160251985Y-73718278D01*
X160276246Y-73781780D01*
X160294936Y-73995403D01*
X160294938Y-73995413D01*
X160356094Y-74223655D01*
X160356096Y-74223659D01*
X160356097Y-74223663D01*
X160449109Y-74423127D01*
X160455965Y-74437830D01*
X160455967Y-74437834D01*
X160591501Y-74631395D01*
X160591506Y-74631402D01*
X160758597Y-74798493D01*
X160758603Y-74798498D01*
X160944158Y-74928425D01*
X160987783Y-74983002D01*
X160994977Y-75052500D01*
X160963454Y-75114855D01*
X160944158Y-75131575D01*
X160758597Y-75261505D01*
X160591505Y-75428597D01*
X160455965Y-75622169D01*
X160455964Y-75622171D01*
X160356098Y-75836335D01*
X160356094Y-75836344D01*
X160294938Y-76064586D01*
X160294936Y-76064596D01*
X160274341Y-76299999D01*
X160274341Y-76300000D01*
X160294936Y-76535403D01*
X160294938Y-76535413D01*
X160356094Y-76763655D01*
X160356096Y-76763659D01*
X160356097Y-76763663D01*
X160424249Y-76909815D01*
X160455965Y-76977830D01*
X160455967Y-76977834D01*
X160591501Y-77171395D01*
X160591506Y-77171402D01*
X160758597Y-77338493D01*
X160758603Y-77338498D01*
X160944158Y-77468425D01*
X160987783Y-77523002D01*
X160994977Y-77592500D01*
X160963454Y-77654855D01*
X160944158Y-77671575D01*
X160758597Y-77801505D01*
X160591505Y-77968597D01*
X160455965Y-78162169D01*
X160455964Y-78162171D01*
X160356098Y-78376335D01*
X160356094Y-78376344D01*
X160294938Y-78604586D01*
X160294936Y-78604596D01*
X160274341Y-78839999D01*
X160274341Y-78840000D01*
X160294936Y-79075403D01*
X160294938Y-79075413D01*
X160356094Y-79303655D01*
X160356096Y-79303659D01*
X160356097Y-79303663D01*
X160455965Y-79517830D01*
X160455967Y-79517834D01*
X160591501Y-79711395D01*
X160591506Y-79711402D01*
X160758597Y-79878493D01*
X160758603Y-79878498D01*
X160944158Y-80008425D01*
X160987783Y-80063002D01*
X160994977Y-80132500D01*
X160963454Y-80194855D01*
X160944158Y-80211575D01*
X160758597Y-80341505D01*
X160591505Y-80508597D01*
X160455965Y-80702169D01*
X160455964Y-80702171D01*
X160356098Y-80916335D01*
X160356094Y-80916344D01*
X160294938Y-81144586D01*
X160294936Y-81144596D01*
X160274341Y-81379999D01*
X160274341Y-81380000D01*
X160294936Y-81615403D01*
X160294938Y-81615413D01*
X160356094Y-81843655D01*
X160356096Y-81843659D01*
X160356097Y-81843663D01*
X160455965Y-82057830D01*
X160455967Y-82057834D01*
X160591501Y-82251395D01*
X160591506Y-82251402D01*
X160758597Y-82418493D01*
X160758603Y-82418498D01*
X160944158Y-82548425D01*
X160987783Y-82603002D01*
X160994977Y-82672500D01*
X160963454Y-82734855D01*
X160944158Y-82751575D01*
X160758597Y-82881505D01*
X160591505Y-83048597D01*
X160455965Y-83242169D01*
X160455964Y-83242171D01*
X160356098Y-83456335D01*
X160356094Y-83456344D01*
X160294938Y-83684586D01*
X160294936Y-83684596D01*
X160274341Y-83919999D01*
X160274341Y-83920000D01*
X160294936Y-84155403D01*
X160294938Y-84155413D01*
X160356094Y-84383655D01*
X160356096Y-84383659D01*
X160356097Y-84383663D01*
X160455965Y-84597830D01*
X160455967Y-84597834D01*
X160591501Y-84791395D01*
X160591506Y-84791402D01*
X160758597Y-84958493D01*
X160758603Y-84958498D01*
X160944158Y-85088425D01*
X160987783Y-85143002D01*
X160994977Y-85212500D01*
X160963454Y-85274855D01*
X160944158Y-85291575D01*
X160758597Y-85421505D01*
X160591505Y-85588597D01*
X160455965Y-85782169D01*
X160455964Y-85782171D01*
X160356098Y-85996335D01*
X160356094Y-85996344D01*
X160294938Y-86224586D01*
X160294936Y-86224596D01*
X160274341Y-86459999D01*
X160274341Y-86460000D01*
X160294936Y-86695403D01*
X160294938Y-86695413D01*
X160356094Y-86923655D01*
X160356096Y-86923659D01*
X160356097Y-86923663D01*
X160427501Y-87076788D01*
X160455965Y-87137830D01*
X160455967Y-87137834D01*
X160511351Y-87216930D01*
X160586650Y-87324468D01*
X160591501Y-87331395D01*
X160591506Y-87331402D01*
X160758597Y-87498493D01*
X160758603Y-87498498D01*
X160944158Y-87628425D01*
X160987783Y-87683002D01*
X160994977Y-87752500D01*
X160963454Y-87814855D01*
X160944158Y-87831575D01*
X160758597Y-87961505D01*
X160591505Y-88128597D01*
X160455965Y-88322169D01*
X160455964Y-88322171D01*
X160356098Y-88536335D01*
X160356094Y-88536344D01*
X160294938Y-88764586D01*
X160294936Y-88764596D01*
X160274341Y-88999999D01*
X160274341Y-89000000D01*
X160294936Y-89235403D01*
X160294938Y-89235413D01*
X160356094Y-89463655D01*
X160356096Y-89463659D01*
X160356097Y-89463663D01*
X160455965Y-89677830D01*
X160455967Y-89677834D01*
X160591501Y-89871395D01*
X160591506Y-89871402D01*
X160758597Y-90038493D01*
X160758603Y-90038498D01*
X160944158Y-90168425D01*
X160987783Y-90223002D01*
X160994977Y-90292500D01*
X160963454Y-90354855D01*
X160944158Y-90371575D01*
X160758597Y-90501505D01*
X160591505Y-90668597D01*
X160455965Y-90862169D01*
X160455964Y-90862171D01*
X160356098Y-91076335D01*
X160356094Y-91076344D01*
X160294938Y-91304586D01*
X160294936Y-91304596D01*
X160274341Y-91539999D01*
X160274341Y-91540000D01*
X160294936Y-91775403D01*
X160294938Y-91775413D01*
X160356094Y-92003655D01*
X160356096Y-92003659D01*
X160356097Y-92003663D01*
X160455965Y-92217830D01*
X160455967Y-92217834D01*
X160591501Y-92411395D01*
X160591506Y-92411402D01*
X160758597Y-92578493D01*
X160758603Y-92578498D01*
X160944158Y-92708425D01*
X160987783Y-92763002D01*
X160994977Y-92832500D01*
X160963454Y-92894855D01*
X160944158Y-92911575D01*
X160758597Y-93041505D01*
X160591505Y-93208597D01*
X160455965Y-93402169D01*
X160455964Y-93402171D01*
X160356098Y-93616335D01*
X160356094Y-93616344D01*
X160294938Y-93844586D01*
X160294936Y-93844596D01*
X160274341Y-94079999D01*
X160274341Y-94080000D01*
X160294936Y-94315403D01*
X160294938Y-94315413D01*
X160356094Y-94543655D01*
X160356096Y-94543659D01*
X160356097Y-94543663D01*
X160422468Y-94685995D01*
X160455965Y-94757830D01*
X160455967Y-94757834D01*
X160591501Y-94951395D01*
X160591506Y-94951402D01*
X160758597Y-95118493D01*
X160758603Y-95118498D01*
X160944158Y-95248425D01*
X160987783Y-95303002D01*
X160994977Y-95372500D01*
X160963454Y-95434855D01*
X160944158Y-95451575D01*
X160758597Y-95581505D01*
X160591505Y-95748597D01*
X160455965Y-95942169D01*
X160455964Y-95942171D01*
X160356098Y-96156335D01*
X160356094Y-96156344D01*
X160294938Y-96384586D01*
X160294936Y-96384596D01*
X160274341Y-96619999D01*
X160274341Y-96620000D01*
X160294936Y-96855403D01*
X160294938Y-96855413D01*
X160356094Y-97083655D01*
X160356096Y-97083659D01*
X160356097Y-97083663D01*
X160370904Y-97115416D01*
X160455965Y-97297830D01*
X160455967Y-97297834D01*
X160515474Y-97382818D01*
X160591505Y-97491401D01*
X160758599Y-97658495D01*
X160855384Y-97726265D01*
X160952165Y-97794032D01*
X160952167Y-97794033D01*
X160952170Y-97794035D01*
X161166337Y-97893903D01*
X161394592Y-97955063D01*
X161582918Y-97971539D01*
X161629999Y-97975659D01*
X161630000Y-97975659D01*
X161630001Y-97975659D01*
X161669234Y-97972226D01*
X161865408Y-97955063D01*
X162093663Y-97893903D01*
X162307830Y-97794035D01*
X162501401Y-97658495D01*
X162668495Y-97491401D01*
X162804035Y-97297830D01*
X162903903Y-97083663D01*
X162965063Y-96855408D01*
X162985659Y-96620000D01*
X162965063Y-96384592D01*
X162906105Y-96164556D01*
X162903905Y-96156344D01*
X162903904Y-96156343D01*
X162903903Y-96156337D01*
X162804035Y-95942171D01*
X162790133Y-95922316D01*
X162668494Y-95748597D01*
X162501402Y-95581506D01*
X162501396Y-95581501D01*
X162315842Y-95451575D01*
X162272217Y-95396998D01*
X162265023Y-95327500D01*
X162296546Y-95265145D01*
X162315842Y-95248425D01*
X162345723Y-95227502D01*
X162501401Y-95118495D01*
X162619902Y-94999994D01*
X167494556Y-94999994D01*
X167494556Y-95000005D01*
X167514310Y-95314004D01*
X167514311Y-95314011D01*
X167537363Y-95434855D01*
X167565338Y-95581505D01*
X167573270Y-95623083D01*
X167670497Y-95922316D01*
X167670499Y-95922321D01*
X167804461Y-96207003D01*
X167804464Y-96207009D01*
X167973051Y-96472661D01*
X167973054Y-96472665D01*
X168173606Y-96715090D01*
X168173608Y-96715092D01*
X168173610Y-96715094D01*
X168323024Y-96855403D01*
X168402968Y-96930476D01*
X168402978Y-96930484D01*
X168657504Y-97115408D01*
X168657509Y-97115410D01*
X168657516Y-97115416D01*
X168933234Y-97266994D01*
X168933239Y-97266996D01*
X168933241Y-97266997D01*
X168933242Y-97266998D01*
X169225771Y-97382818D01*
X169225774Y-97382819D01*
X169530523Y-97461065D01*
X169530527Y-97461066D01*
X169596010Y-97469338D01*
X169842670Y-97500499D01*
X169842679Y-97500499D01*
X169842682Y-97500500D01*
X169842684Y-97500500D01*
X170157316Y-97500500D01*
X170157318Y-97500500D01*
X170157321Y-97500499D01*
X170157329Y-97500499D01*
X170343593Y-97476968D01*
X170469473Y-97461066D01*
X170774225Y-97382819D01*
X170774228Y-97382818D01*
X171066757Y-97266998D01*
X171066758Y-97266997D01*
X171066756Y-97266997D01*
X171066766Y-97266994D01*
X171342484Y-97115416D01*
X171597030Y-96930478D01*
X171826390Y-96715094D01*
X172026947Y-96472663D01*
X172195537Y-96207007D01*
X172329503Y-95922315D01*
X172426731Y-95623079D01*
X172485688Y-95314015D01*
X172505444Y-95000000D01*
X172502386Y-94951402D01*
X172485689Y-94685995D01*
X172485688Y-94685988D01*
X172485688Y-94685985D01*
X172426731Y-94376921D01*
X172329503Y-94077685D01*
X172328004Y-94074500D01*
X172244376Y-93896782D01*
X172195537Y-93792993D01*
X172090067Y-93626798D01*
X172026948Y-93527338D01*
X172026945Y-93527334D01*
X171826393Y-93284909D01*
X171826391Y-93284907D01*
X171745132Y-93208599D01*
X171597030Y-93069522D01*
X171597027Y-93069520D01*
X171597021Y-93069515D01*
X171342495Y-92884591D01*
X171342488Y-92884586D01*
X171342484Y-92884584D01*
X171066766Y-92733006D01*
X171066763Y-92733004D01*
X171066758Y-92733002D01*
X171066757Y-92733001D01*
X170774228Y-92617181D01*
X170774225Y-92617180D01*
X170469476Y-92538934D01*
X170469463Y-92538932D01*
X170157329Y-92499500D01*
X170157318Y-92499500D01*
X169842682Y-92499500D01*
X169842670Y-92499500D01*
X169530536Y-92538932D01*
X169530523Y-92538934D01*
X169225774Y-92617180D01*
X169225771Y-92617181D01*
X168933242Y-92733001D01*
X168933241Y-92733002D01*
X168657516Y-92884584D01*
X168657504Y-92884591D01*
X168402978Y-93069515D01*
X168402968Y-93069523D01*
X168173608Y-93284907D01*
X168173606Y-93284909D01*
X167973054Y-93527334D01*
X167973051Y-93527338D01*
X167804464Y-93792990D01*
X167804461Y-93792996D01*
X167670499Y-94077678D01*
X167670497Y-94077683D01*
X167573270Y-94376916D01*
X167514311Y-94685988D01*
X167514310Y-94685995D01*
X167494556Y-94999994D01*
X162619902Y-94999994D01*
X162668495Y-94951401D01*
X162804035Y-94757830D01*
X162903903Y-94543663D01*
X162965063Y-94315408D01*
X162985659Y-94080000D01*
X162985570Y-94078988D01*
X162965063Y-93844596D01*
X162965063Y-93844592D01*
X162903903Y-93616337D01*
X162804035Y-93402171D01*
X162721927Y-93284907D01*
X162668494Y-93208597D01*
X162501402Y-93041506D01*
X162501396Y-93041501D01*
X162315842Y-92911575D01*
X162272217Y-92856998D01*
X162265023Y-92787500D01*
X162296546Y-92725145D01*
X162315842Y-92708425D01*
X162338026Y-92692891D01*
X162501401Y-92578495D01*
X162668495Y-92411401D01*
X162804035Y-92217830D01*
X162903903Y-92003663D01*
X162965063Y-91775408D01*
X162985659Y-91540000D01*
X162965063Y-91304592D01*
X162903903Y-91076337D01*
X162804035Y-90862171D01*
X162668495Y-90668599D01*
X162668494Y-90668597D01*
X162501402Y-90501506D01*
X162501396Y-90501501D01*
X162315842Y-90371575D01*
X162272217Y-90316998D01*
X162265023Y-90247500D01*
X162296546Y-90185145D01*
X162315842Y-90168425D01*
X162338026Y-90152891D01*
X162501401Y-90038495D01*
X162668495Y-89871401D01*
X162804035Y-89677830D01*
X162903903Y-89463663D01*
X162965063Y-89235408D01*
X162985659Y-89000000D01*
X162965063Y-88764592D01*
X162903903Y-88536337D01*
X162804035Y-88322171D01*
X162744631Y-88237332D01*
X162668494Y-88128597D01*
X162501402Y-87961506D01*
X162501396Y-87961501D01*
X162315842Y-87831575D01*
X162272217Y-87776998D01*
X162265023Y-87707500D01*
X162296546Y-87645145D01*
X162315842Y-87628425D01*
X162417440Y-87557285D01*
X162501401Y-87498495D01*
X162668495Y-87331401D01*
X162804035Y-87137830D01*
X162871391Y-86993384D01*
X164849500Y-86993384D01*
X164849500Y-87506616D01*
X164850506Y-87517688D01*
X164855913Y-87577192D01*
X164855913Y-87577194D01*
X164855914Y-87577196D01*
X164906522Y-87739606D01*
X164962119Y-87831575D01*
X164993281Y-87883122D01*
X165011117Y-87950677D01*
X164990267Y-88016162D01*
X164951989Y-88073449D01*
X164951983Y-88073460D01*
X164884106Y-88237332D01*
X164884103Y-88237341D01*
X164849500Y-88411304D01*
X164849500Y-88588695D01*
X164884103Y-88762658D01*
X164884106Y-88762667D01*
X164951983Y-88926540D01*
X164951990Y-88926553D01*
X165050535Y-89074034D01*
X165050538Y-89074038D01*
X165175961Y-89199461D01*
X165175965Y-89199464D01*
X165323446Y-89298009D01*
X165323459Y-89298016D01*
X165446363Y-89348923D01*
X165487334Y-89365894D01*
X165487336Y-89365894D01*
X165487341Y-89365896D01*
X165661304Y-89400499D01*
X165661307Y-89400500D01*
X165661309Y-89400500D01*
X166338693Y-89400500D01*
X166338694Y-89400499D01*
X166396682Y-89388964D01*
X166512658Y-89365896D01*
X166512661Y-89365894D01*
X166512666Y-89365894D01*
X166676547Y-89298013D01*
X166824035Y-89199464D01*
X166949464Y-89074035D01*
X167048013Y-88926547D01*
X167115894Y-88762666D01*
X167150500Y-88588691D01*
X167150500Y-88411309D01*
X167150500Y-88411306D01*
X167150499Y-88411304D01*
X167115896Y-88237341D01*
X167115893Y-88237332D01*
X167048015Y-88073457D01*
X167048011Y-88073450D01*
X167009733Y-88016162D01*
X166988855Y-87949485D01*
X167006717Y-87883125D01*
X167093478Y-87739606D01*
X167144086Y-87577196D01*
X167150500Y-87506616D01*
X167150500Y-86993384D01*
X167144086Y-86922804D01*
X167093478Y-86760394D01*
X167005472Y-86614815D01*
X167005470Y-86614813D01*
X167005469Y-86614811D01*
X166885188Y-86494530D01*
X166750965Y-86413389D01*
X169624500Y-86413389D01*
X169624500Y-86586611D01*
X169628967Y-86614815D01*
X169641732Y-86695413D01*
X169651598Y-86757701D01*
X169705127Y-86922445D01*
X169783768Y-87076788D01*
X169885586Y-87216928D01*
X169885588Y-87216930D01*
X169993127Y-87324469D01*
X170026612Y-87385792D01*
X170021628Y-87455484D01*
X169979756Y-87511417D01*
X169970544Y-87517688D01*
X169906344Y-87557287D01*
X169782289Y-87681342D01*
X169690187Y-87830663D01*
X169690185Y-87830668D01*
X169672804Y-87883122D01*
X169635001Y-87997203D01*
X169635001Y-87997204D01*
X169635000Y-87997204D01*
X169624500Y-88099983D01*
X169624500Y-88900001D01*
X169624501Y-88900019D01*
X169635000Y-89002796D01*
X169635001Y-89002799D01*
X169658607Y-89074035D01*
X169690186Y-89169334D01*
X169782288Y-89318656D01*
X169906344Y-89442712D01*
X170055666Y-89534814D01*
X170222203Y-89589999D01*
X170324991Y-89600500D01*
X171675008Y-89600499D01*
X171777797Y-89589999D01*
X171944334Y-89534814D01*
X172093656Y-89442712D01*
X172217712Y-89318656D01*
X172309814Y-89169334D01*
X172364999Y-89002797D01*
X172375500Y-88900009D01*
X172375499Y-88099992D01*
X172372788Y-88073457D01*
X172364999Y-87997203D01*
X172364998Y-87997200D01*
X172353170Y-87961505D01*
X172309814Y-87830666D01*
X172217712Y-87681344D01*
X172093656Y-87557288D01*
X172093652Y-87557285D01*
X172029456Y-87517688D01*
X171982731Y-87465740D01*
X171971510Y-87396777D01*
X171999353Y-87332695D01*
X172006850Y-87324491D01*
X172114414Y-87216928D01*
X172216232Y-87076788D01*
X172294873Y-86922445D01*
X172348402Y-86757701D01*
X172375500Y-86586611D01*
X172375500Y-86413389D01*
X172348402Y-86242299D01*
X172294873Y-86077555D01*
X172216232Y-85923212D01*
X172114414Y-85783072D01*
X171991928Y-85660586D01*
X171851788Y-85558768D01*
X171697445Y-85480127D01*
X171532701Y-85426598D01*
X171532699Y-85426597D01*
X171532698Y-85426597D01*
X171401271Y-85405781D01*
X171361611Y-85399500D01*
X170638389Y-85399500D01*
X170598728Y-85405781D01*
X170467302Y-85426597D01*
X170302552Y-85480128D01*
X170148211Y-85558768D01*
X170107156Y-85588597D01*
X170008072Y-85660586D01*
X170008070Y-85660588D01*
X170008069Y-85660588D01*
X169885588Y-85783069D01*
X169885588Y-85783070D01*
X169885586Y-85783072D01*
X169841859Y-85843256D01*
X169783768Y-85923211D01*
X169705128Y-86077552D01*
X169651597Y-86242302D01*
X169634619Y-86349500D01*
X169624500Y-86413389D01*
X166750965Y-86413389D01*
X166739606Y-86406522D01*
X166577196Y-86355914D01*
X166577194Y-86355913D01*
X166577192Y-86355913D01*
X166527778Y-86351423D01*
X166506616Y-86349500D01*
X165493384Y-86349500D01*
X165474145Y-86351248D01*
X165422807Y-86355913D01*
X165260393Y-86406522D01*
X165114811Y-86494530D01*
X164994530Y-86614811D01*
X164906522Y-86760393D01*
X164855913Y-86922807D01*
X164850782Y-86979275D01*
X164849500Y-86993384D01*
X162871391Y-86993384D01*
X162903903Y-86923663D01*
X162965063Y-86695408D01*
X162985659Y-86460000D01*
X162965063Y-86224592D01*
X162903903Y-85996337D01*
X162804035Y-85782171D01*
X162668495Y-85588599D01*
X162668494Y-85588597D01*
X162501402Y-85421506D01*
X162501396Y-85421501D01*
X162315842Y-85291575D01*
X162272217Y-85236998D01*
X162265023Y-85167500D01*
X162296546Y-85105145D01*
X162315842Y-85088425D01*
X162338026Y-85072891D01*
X162501401Y-84958495D01*
X162668495Y-84791401D01*
X162804035Y-84597830D01*
X162903903Y-84383663D01*
X162965063Y-84155408D01*
X162985659Y-83920000D01*
X162965063Y-83684592D01*
X162903903Y-83456337D01*
X162804035Y-83242171D01*
X162668495Y-83048599D01*
X162668494Y-83048597D01*
X162501402Y-82881506D01*
X162501396Y-82881501D01*
X162315842Y-82751575D01*
X162272217Y-82696998D01*
X162265023Y-82627500D01*
X162296546Y-82565145D01*
X162315842Y-82548425D01*
X162338026Y-82532891D01*
X162501401Y-82418495D01*
X162668495Y-82251401D01*
X162804035Y-82057830D01*
X162903903Y-81843663D01*
X162965063Y-81615408D01*
X162985659Y-81380000D01*
X162965063Y-81144592D01*
X162903903Y-80916337D01*
X162804035Y-80702171D01*
X162668495Y-80508599D01*
X162668494Y-80508597D01*
X162501402Y-80341506D01*
X162501396Y-80341501D01*
X162315842Y-80211575D01*
X162272217Y-80156998D01*
X162265023Y-80087500D01*
X162296546Y-80025145D01*
X162315842Y-80008425D01*
X162338026Y-79992891D01*
X162501401Y-79878495D01*
X162668495Y-79711401D01*
X162804035Y-79517830D01*
X162903903Y-79303663D01*
X162965063Y-79075408D01*
X162985659Y-78840000D01*
X162965063Y-78604592D01*
X162903903Y-78376337D01*
X162804035Y-78162171D01*
X162750194Y-78085277D01*
X162668494Y-77968597D01*
X162501402Y-77801506D01*
X162501396Y-77801501D01*
X162315842Y-77671575D01*
X162272217Y-77616998D01*
X162265023Y-77547500D01*
X162296546Y-77485145D01*
X162315842Y-77468425D01*
X162356296Y-77440099D01*
X162501401Y-77338495D01*
X162668495Y-77171401D01*
X162804035Y-76977830D01*
X162903903Y-76763663D01*
X162965063Y-76535408D01*
X162985659Y-76300000D01*
X162965063Y-76064592D01*
X162903903Y-75836337D01*
X162804035Y-75622171D01*
X162772317Y-75576872D01*
X162668494Y-75428597D01*
X162501402Y-75261506D01*
X162501396Y-75261501D01*
X162315842Y-75131575D01*
X162272217Y-75076998D01*
X162265023Y-75007500D01*
X162296546Y-74945145D01*
X162315842Y-74928425D01*
X162398893Y-74870272D01*
X162501401Y-74798495D01*
X162668495Y-74631401D01*
X162760504Y-74499999D01*
X169644341Y-74499999D01*
X169644341Y-74500000D01*
X169664936Y-74735403D01*
X169664938Y-74735413D01*
X169726094Y-74963655D01*
X169726096Y-74963659D01*
X169726097Y-74963663D01*
X169796599Y-75114855D01*
X169825965Y-75177830D01*
X169825967Y-75177834D01*
X169961501Y-75371395D01*
X169961506Y-75371402D01*
X170128597Y-75538493D01*
X170128603Y-75538498D01*
X170314594Y-75668730D01*
X170358219Y-75723307D01*
X170365413Y-75792805D01*
X170333890Y-75855160D01*
X170314595Y-75871880D01*
X170128922Y-76001890D01*
X170128920Y-76001891D01*
X169961891Y-76168920D01*
X169961886Y-76168926D01*
X169826400Y-76362420D01*
X169826399Y-76362422D01*
X169726570Y-76576507D01*
X169726567Y-76576513D01*
X169669364Y-76789999D01*
X169669364Y-76790000D01*
X170566988Y-76790000D01*
X170534075Y-76847007D01*
X170500000Y-76974174D01*
X170500000Y-77105826D01*
X170534075Y-77232993D01*
X170566988Y-77290000D01*
X169669364Y-77290000D01*
X169726567Y-77503486D01*
X169726570Y-77503492D01*
X169826399Y-77717578D01*
X169961894Y-77911082D01*
X170128917Y-78078105D01*
X170322421Y-78213600D01*
X170536507Y-78313429D01*
X170536516Y-78313433D01*
X170750000Y-78370634D01*
X170750000Y-77473012D01*
X170807007Y-77505925D01*
X170934174Y-77540000D01*
X171065826Y-77540000D01*
X171192993Y-77505925D01*
X171250000Y-77473012D01*
X171250000Y-78370633D01*
X171463483Y-78313433D01*
X171463492Y-78313429D01*
X171677578Y-78213600D01*
X171871082Y-78078105D01*
X172038105Y-77911082D01*
X172173600Y-77717578D01*
X172273429Y-77503492D01*
X172273432Y-77503486D01*
X172330636Y-77290000D01*
X171433012Y-77290000D01*
X171465925Y-77232993D01*
X171500000Y-77105826D01*
X171500000Y-76974174D01*
X171465925Y-76847007D01*
X171433012Y-76790000D01*
X172330636Y-76790000D01*
X172330635Y-76789999D01*
X172273432Y-76576513D01*
X172273429Y-76576507D01*
X172173600Y-76362422D01*
X172173599Y-76362420D01*
X172038113Y-76168926D01*
X172038108Y-76168920D01*
X171871078Y-76001890D01*
X171685405Y-75871879D01*
X171641780Y-75817302D01*
X171634588Y-75747804D01*
X171666110Y-75685449D01*
X171685406Y-75668730D01*
X171751902Y-75622169D01*
X171871401Y-75538495D01*
X172038495Y-75371401D01*
X172174035Y-75177830D01*
X172273903Y-74963663D01*
X172335063Y-74735408D01*
X172355659Y-74500000D01*
X172335063Y-74264592D01*
X172273903Y-74036337D01*
X172174035Y-73822171D01*
X172156879Y-73797670D01*
X172038496Y-73628600D01*
X171982749Y-73572853D01*
X171916567Y-73506671D01*
X171883084Y-73445351D01*
X171888068Y-73375659D01*
X171929939Y-73319725D01*
X171960915Y-73302810D01*
X172092331Y-73253796D01*
X172207546Y-73167546D01*
X172293796Y-73052331D01*
X172344091Y-72917483D01*
X172350500Y-72857873D01*
X172350499Y-71062128D01*
X172344091Y-71002517D01*
X172337405Y-70984592D01*
X172293797Y-70867671D01*
X172293793Y-70867664D01*
X172207547Y-70752455D01*
X172207544Y-70752452D01*
X172092335Y-70666206D01*
X172092328Y-70666202D01*
X171957482Y-70615908D01*
X171957483Y-70615908D01*
X171897883Y-70609501D01*
X171897881Y-70609500D01*
X171897873Y-70609500D01*
X171897864Y-70609500D01*
X170102129Y-70609500D01*
X170102123Y-70609501D01*
X170042516Y-70615908D01*
X169907671Y-70666202D01*
X169907664Y-70666206D01*
X169792455Y-70752452D01*
X169792452Y-70752455D01*
X169706206Y-70867664D01*
X169706202Y-70867671D01*
X169655908Y-71002517D01*
X169649501Y-71062116D01*
X169649501Y-71062123D01*
X169649500Y-71062135D01*
X169649500Y-72857870D01*
X169649501Y-72857876D01*
X169655908Y-72917483D01*
X169706202Y-73052328D01*
X169706206Y-73052335D01*
X169792452Y-73167544D01*
X169792455Y-73167547D01*
X169907664Y-73253793D01*
X169907671Y-73253797D01*
X170039081Y-73302810D01*
X170095015Y-73344681D01*
X170119432Y-73410145D01*
X170104580Y-73478418D01*
X170083430Y-73506673D01*
X169961503Y-73628600D01*
X169825965Y-73822169D01*
X169825964Y-73822171D01*
X169726098Y-74036335D01*
X169726094Y-74036344D01*
X169664938Y-74264586D01*
X169664936Y-74264596D01*
X169644341Y-74499999D01*
X162760504Y-74499999D01*
X162804035Y-74437830D01*
X162903903Y-74223663D01*
X162965063Y-73995408D01*
X162985659Y-73760000D01*
X162965063Y-73524592D01*
X162905981Y-73304091D01*
X162903905Y-73296344D01*
X162903904Y-73296343D01*
X162903903Y-73296337D01*
X162804035Y-73082171D01*
X162748083Y-73002262D01*
X162668494Y-72888597D01*
X162501402Y-72721506D01*
X162501396Y-72721501D01*
X162315842Y-72591575D01*
X162272217Y-72536998D01*
X162265023Y-72467500D01*
X162296546Y-72405145D01*
X162315842Y-72388425D01*
X162338026Y-72372891D01*
X162501401Y-72258495D01*
X162668495Y-72091401D01*
X162804035Y-71897830D01*
X162903903Y-71683663D01*
X162965063Y-71455408D01*
X162985659Y-71220000D01*
X162965063Y-70984592D01*
X162903903Y-70756337D01*
X162804035Y-70542171D01*
X162671613Y-70353051D01*
X162668494Y-70348597D01*
X162501402Y-70181506D01*
X162501396Y-70181501D01*
X162315842Y-70051575D01*
X162272217Y-69996998D01*
X162265023Y-69927500D01*
X162296546Y-69865145D01*
X162315842Y-69848425D01*
X162338026Y-69832891D01*
X162501401Y-69718495D01*
X162668495Y-69551401D01*
X162804035Y-69357830D01*
X162903903Y-69143663D01*
X162965063Y-68915408D01*
X162985659Y-68680000D01*
X162965063Y-68444592D01*
X162903903Y-68216337D01*
X162804035Y-68002171D01*
X162786147Y-67976623D01*
X162668494Y-67808597D01*
X162501402Y-67641506D01*
X162501396Y-67641501D01*
X162315842Y-67511575D01*
X162272217Y-67456998D01*
X162265023Y-67387500D01*
X162296546Y-67325145D01*
X162315842Y-67308425D01*
X162338026Y-67292891D01*
X162501401Y-67178495D01*
X162668495Y-67011401D01*
X162804035Y-66817830D01*
X162903903Y-66603663D01*
X162965063Y-66375408D01*
X162985659Y-66140000D01*
X162985469Y-66137834D01*
X162979016Y-66064069D01*
X162965063Y-65904592D01*
X162903903Y-65676337D01*
X162804035Y-65462171D01*
X162802515Y-65459999D01*
X162668494Y-65268597D01*
X162501402Y-65101506D01*
X162501396Y-65101501D01*
X162315842Y-64971575D01*
X162272217Y-64916998D01*
X162265023Y-64847500D01*
X162296546Y-64785145D01*
X162315842Y-64768425D01*
X162338026Y-64752891D01*
X162501401Y-64638495D01*
X162668495Y-64471401D01*
X162804035Y-64277830D01*
X162903903Y-64063663D01*
X162965063Y-63835408D01*
X162985659Y-63600000D01*
X162985469Y-63597834D01*
X162976712Y-63497737D01*
X162965063Y-63364592D01*
X162909012Y-63155403D01*
X162903905Y-63136344D01*
X162903904Y-63136343D01*
X162903903Y-63136337D01*
X162804035Y-62922171D01*
X162802515Y-62919999D01*
X169644341Y-62919999D01*
X169644341Y-62920000D01*
X169664936Y-63155403D01*
X169664938Y-63155413D01*
X169726094Y-63383655D01*
X169726096Y-63383659D01*
X169726097Y-63383663D01*
X169779291Y-63497737D01*
X169825965Y-63597830D01*
X169825967Y-63597834D01*
X169961501Y-63791395D01*
X169961506Y-63791402D01*
X170128597Y-63958493D01*
X170128603Y-63958498D01*
X170314158Y-64088425D01*
X170357783Y-64143002D01*
X170364977Y-64212500D01*
X170333454Y-64274855D01*
X170314158Y-64291575D01*
X170128597Y-64421505D01*
X169961505Y-64588597D01*
X169825965Y-64782169D01*
X169825964Y-64782171D01*
X169726098Y-64996335D01*
X169726094Y-64996344D01*
X169664938Y-65224586D01*
X169664936Y-65224596D01*
X169644341Y-65459999D01*
X169644341Y-65460000D01*
X169664936Y-65695403D01*
X169664938Y-65695413D01*
X169726094Y-65923655D01*
X169726096Y-65923659D01*
X169726097Y-65923663D01*
X169761694Y-66000000D01*
X169825965Y-66137830D01*
X169825967Y-66137834D01*
X169934281Y-66292521D01*
X169961505Y-66331401D01*
X170128599Y-66498495D01*
X170278794Y-66603663D01*
X170314594Y-66628730D01*
X170358219Y-66683307D01*
X170365413Y-66752805D01*
X170333890Y-66815160D01*
X170314595Y-66831880D01*
X170128922Y-66961890D01*
X170128920Y-66961891D01*
X169961891Y-67128920D01*
X169961886Y-67128926D01*
X169826400Y-67322420D01*
X169826399Y-67322422D01*
X169726570Y-67536507D01*
X169726567Y-67536513D01*
X169669364Y-67749999D01*
X169669364Y-67750000D01*
X170566988Y-67750000D01*
X170534075Y-67807007D01*
X170500000Y-67934174D01*
X170500000Y-68065826D01*
X170534075Y-68192993D01*
X170566988Y-68250000D01*
X169669364Y-68250000D01*
X169726567Y-68463486D01*
X169726570Y-68463492D01*
X169826399Y-68677578D01*
X169961894Y-68871082D01*
X170128917Y-69038105D01*
X170322421Y-69173600D01*
X170536507Y-69273429D01*
X170536516Y-69273433D01*
X170750000Y-69330634D01*
X170750000Y-68433012D01*
X170807007Y-68465925D01*
X170934174Y-68500000D01*
X171065826Y-68500000D01*
X171192993Y-68465925D01*
X171250000Y-68433012D01*
X171250000Y-69330633D01*
X171463483Y-69273433D01*
X171463492Y-69273429D01*
X171677578Y-69173600D01*
X171871082Y-69038105D01*
X172038105Y-68871082D01*
X172173600Y-68677578D01*
X172273429Y-68463492D01*
X172273432Y-68463486D01*
X172330636Y-68250000D01*
X171433012Y-68250000D01*
X171465925Y-68192993D01*
X171500000Y-68065826D01*
X171500000Y-67934174D01*
X171465925Y-67807007D01*
X171433012Y-67750000D01*
X172330636Y-67750000D01*
X172330635Y-67749999D01*
X172273432Y-67536513D01*
X172273429Y-67536507D01*
X172173600Y-67322422D01*
X172173599Y-67322420D01*
X172038113Y-67128926D01*
X172038108Y-67128920D01*
X171871078Y-66961890D01*
X171685405Y-66831879D01*
X171641780Y-66777302D01*
X171634588Y-66707804D01*
X171666110Y-66645449D01*
X171685406Y-66628730D01*
X171721204Y-66603664D01*
X171871401Y-66498495D01*
X172038495Y-66331401D01*
X172174035Y-66137830D01*
X172273903Y-65923663D01*
X172335063Y-65695408D01*
X172355659Y-65460000D01*
X172335063Y-65224592D01*
X172273903Y-64996337D01*
X172174035Y-64782171D01*
X172168339Y-64774035D01*
X172038494Y-64588597D01*
X171871402Y-64421506D01*
X171871396Y-64421501D01*
X171685842Y-64291575D01*
X171642217Y-64236998D01*
X171635023Y-64167500D01*
X171666546Y-64105145D01*
X171685842Y-64088425D01*
X171721217Y-64063655D01*
X171871401Y-63958495D01*
X172038495Y-63791401D01*
X172174035Y-63597830D01*
X172273903Y-63383663D01*
X172335063Y-63155408D01*
X172355659Y-62920000D01*
X172335063Y-62684592D01*
X172273903Y-62456337D01*
X172174035Y-62242171D01*
X172168338Y-62234035D01*
X172038496Y-62048600D01*
X172038495Y-62048599D01*
X171916567Y-61926671D01*
X171883084Y-61865351D01*
X171888068Y-61795659D01*
X171929939Y-61739725D01*
X171960915Y-61722810D01*
X172092331Y-61673796D01*
X172207546Y-61587546D01*
X172293796Y-61472331D01*
X172344091Y-61337483D01*
X172350500Y-61277873D01*
X172350499Y-59482128D01*
X172344091Y-59422517D01*
X172332485Y-59391401D01*
X172293797Y-59287671D01*
X172293793Y-59287664D01*
X172207547Y-59172455D01*
X172207544Y-59172452D01*
X172092335Y-59086206D01*
X172092328Y-59086202D01*
X171957482Y-59035908D01*
X171957483Y-59035908D01*
X171897883Y-59029501D01*
X171897881Y-59029500D01*
X171897873Y-59029500D01*
X171897864Y-59029500D01*
X170102129Y-59029500D01*
X170102123Y-59029501D01*
X170042516Y-59035908D01*
X169907671Y-59086202D01*
X169907664Y-59086206D01*
X169792455Y-59172452D01*
X169792452Y-59172455D01*
X169706206Y-59287664D01*
X169706202Y-59287671D01*
X169655908Y-59422517D01*
X169649501Y-59482116D01*
X169649501Y-59482123D01*
X169649500Y-59482135D01*
X169649500Y-61277870D01*
X169649501Y-61277876D01*
X169655908Y-61337483D01*
X169706202Y-61472328D01*
X169706206Y-61472335D01*
X169792452Y-61587544D01*
X169792455Y-61587547D01*
X169907664Y-61673793D01*
X169907671Y-61673797D01*
X170039081Y-61722810D01*
X170095015Y-61764681D01*
X170119432Y-61830145D01*
X170104580Y-61898418D01*
X170083430Y-61926673D01*
X169961503Y-62048600D01*
X169825965Y-62242169D01*
X169825964Y-62242171D01*
X169726098Y-62456335D01*
X169726094Y-62456344D01*
X169664938Y-62684586D01*
X169664936Y-62684596D01*
X169644341Y-62919999D01*
X162802515Y-62919999D01*
X162668494Y-62728597D01*
X162501402Y-62561506D01*
X162501396Y-62561501D01*
X162315842Y-62431575D01*
X162272217Y-62376998D01*
X162265023Y-62307500D01*
X162296546Y-62245145D01*
X162315842Y-62228425D01*
X162338026Y-62212891D01*
X162501401Y-62098495D01*
X162668495Y-61931401D01*
X162804035Y-61737830D01*
X162903903Y-61523663D01*
X162965063Y-61295408D01*
X162985659Y-61060000D01*
X162965063Y-60824592D01*
X162903903Y-60596337D01*
X162804035Y-60382171D01*
X162668495Y-60188599D01*
X162668494Y-60188597D01*
X162501402Y-60021506D01*
X162501396Y-60021501D01*
X162315842Y-59891575D01*
X162272217Y-59836998D01*
X162265023Y-59767500D01*
X162296546Y-59705145D01*
X162315842Y-59688425D01*
X162338026Y-59672891D01*
X162501401Y-59558495D01*
X162668495Y-59391401D01*
X162804035Y-59197830D01*
X162903903Y-58983663D01*
X162965063Y-58755408D01*
X162985659Y-58520000D01*
X162965063Y-58284592D01*
X162903903Y-58056337D01*
X162804035Y-57842171D01*
X162668495Y-57648599D01*
X162668494Y-57648597D01*
X162501402Y-57481506D01*
X162501396Y-57481501D01*
X162315842Y-57351575D01*
X162272217Y-57296998D01*
X162265023Y-57227500D01*
X162296546Y-57165145D01*
X162315842Y-57148425D01*
X162338026Y-57132891D01*
X162501401Y-57018495D01*
X162668495Y-56851401D01*
X162804035Y-56657830D01*
X162903903Y-56443663D01*
X162965063Y-56215408D01*
X162985659Y-55980000D01*
X162965063Y-55744592D01*
X162903903Y-55516337D01*
X162804035Y-55302171D01*
X162668495Y-55108599D01*
X162668494Y-55108597D01*
X162559890Y-54999994D01*
X167494556Y-54999994D01*
X167494556Y-55000005D01*
X167514310Y-55314004D01*
X167514311Y-55314011D01*
X167573270Y-55623083D01*
X167670497Y-55922316D01*
X167670499Y-55922321D01*
X167804461Y-56207003D01*
X167804464Y-56207009D01*
X167973051Y-56472661D01*
X167973054Y-56472665D01*
X168173606Y-56715090D01*
X168173608Y-56715092D01*
X168173610Y-56715094D01*
X168318756Y-56851395D01*
X168402968Y-56930476D01*
X168402978Y-56930484D01*
X168657504Y-57115408D01*
X168657509Y-57115410D01*
X168657516Y-57115416D01*
X168933234Y-57266994D01*
X168933239Y-57266996D01*
X168933241Y-57266997D01*
X168933242Y-57266998D01*
X169225771Y-57382818D01*
X169225774Y-57382819D01*
X169530523Y-57461065D01*
X169530527Y-57461066D01*
X169596010Y-57469338D01*
X169842670Y-57500499D01*
X169842679Y-57500499D01*
X169842682Y-57500500D01*
X169842684Y-57500500D01*
X170157316Y-57500500D01*
X170157318Y-57500500D01*
X170157321Y-57500499D01*
X170157329Y-57500499D01*
X170343593Y-57476968D01*
X170469473Y-57461066D01*
X170774225Y-57382819D01*
X170774228Y-57382818D01*
X171066757Y-57266998D01*
X171066758Y-57266997D01*
X171066756Y-57266997D01*
X171066766Y-57266994D01*
X171342484Y-57115416D01*
X171597030Y-56930478D01*
X171826390Y-56715094D01*
X172026947Y-56472663D01*
X172195537Y-56207007D01*
X172329503Y-55922315D01*
X172426731Y-55623079D01*
X172485688Y-55314015D01*
X172486433Y-55302171D01*
X172505444Y-55000005D01*
X172505444Y-54999994D01*
X172485689Y-54685995D01*
X172485688Y-54685988D01*
X172485688Y-54685985D01*
X172426731Y-54376921D01*
X172329503Y-54077685D01*
X172195537Y-53792993D01*
X172130176Y-53690000D01*
X172026948Y-53527338D01*
X172026945Y-53527334D01*
X171826393Y-53284909D01*
X171826391Y-53284907D01*
X171664620Y-53132993D01*
X171597030Y-53069522D01*
X171597027Y-53069520D01*
X171597021Y-53069515D01*
X171342495Y-52884591D01*
X171342488Y-52884586D01*
X171342484Y-52884584D01*
X171066766Y-52733006D01*
X171066763Y-52733004D01*
X171066758Y-52733002D01*
X171066757Y-52733001D01*
X170774228Y-52617181D01*
X170774225Y-52617180D01*
X170469476Y-52538934D01*
X170469463Y-52538932D01*
X170157329Y-52499500D01*
X170157318Y-52499500D01*
X169842682Y-52499500D01*
X169842670Y-52499500D01*
X169530536Y-52538932D01*
X169530523Y-52538934D01*
X169225774Y-52617180D01*
X169225771Y-52617181D01*
X168933242Y-52733001D01*
X168933241Y-52733002D01*
X168657516Y-52884584D01*
X168657504Y-52884591D01*
X168402978Y-53069515D01*
X168402968Y-53069523D01*
X168173608Y-53284907D01*
X168173606Y-53284909D01*
X167973054Y-53527334D01*
X167973051Y-53527338D01*
X167804464Y-53792990D01*
X167804461Y-53792996D01*
X167670499Y-54077678D01*
X167670497Y-54077683D01*
X167573270Y-54376916D01*
X167514311Y-54685988D01*
X167514310Y-54685995D01*
X167494556Y-54999994D01*
X162559890Y-54999994D01*
X162501402Y-54941506D01*
X162501401Y-54941505D01*
X162315405Y-54811269D01*
X162271781Y-54756692D01*
X162264588Y-54687193D01*
X162296110Y-54624839D01*
X162315404Y-54608120D01*
X162391371Y-54554925D01*
X161759408Y-53922962D01*
X161822993Y-53905925D01*
X161937007Y-53840099D01*
X162030099Y-53747007D01*
X162095925Y-53632993D01*
X162112962Y-53569408D01*
X162744925Y-54201371D01*
X162803599Y-54117580D01*
X162903429Y-53903492D01*
X162903433Y-53903483D01*
X162964567Y-53675326D01*
X162964569Y-53675315D01*
X162985157Y-53440001D01*
X162985157Y-53439998D01*
X162964569Y-53204684D01*
X162964567Y-53204673D01*
X162903433Y-52976516D01*
X162903429Y-52976507D01*
X162803601Y-52762424D01*
X162744925Y-52678626D01*
X162112962Y-53310590D01*
X162095925Y-53247007D01*
X162030099Y-53132993D01*
X161937007Y-53039901D01*
X161822993Y-52974075D01*
X161759409Y-52957037D01*
X162391372Y-52325073D01*
X162307576Y-52266398D01*
X162093492Y-52166570D01*
X162093483Y-52166566D01*
X161865326Y-52105432D01*
X161865315Y-52105430D01*
X161630002Y-52084843D01*
X161629998Y-52084843D01*
X161394684Y-52105430D01*
X161394673Y-52105432D01*
X161166516Y-52166566D01*
X161166507Y-52166570D01*
X160952423Y-52266399D01*
X160952421Y-52266400D01*
X160868627Y-52325073D01*
X160868626Y-52325073D01*
X161500591Y-52957037D01*
X161437007Y-52974075D01*
X161322993Y-53039901D01*
X161229901Y-53132993D01*
X161164075Y-53247007D01*
X161147037Y-53310590D01*
X160515073Y-52678626D01*
X160515073Y-52678627D01*
X160456400Y-52762421D01*
X160456399Y-52762423D01*
X160356570Y-52976507D01*
X160356566Y-52976516D01*
X160295432Y-53204673D01*
X160295430Y-53204684D01*
X160274843Y-53439998D01*
X160274843Y-53440001D01*
X160295430Y-53675315D01*
X160295432Y-53675326D01*
X160356566Y-53903483D01*
X160356570Y-53903492D01*
X160456398Y-54117576D01*
X160515073Y-54201372D01*
X161147037Y-53569408D01*
X161164075Y-53632993D01*
X161229901Y-53747007D01*
X161322993Y-53840099D01*
X161437007Y-53905925D01*
X161500591Y-53922962D01*
X160868627Y-54554925D01*
X160944595Y-54608119D01*
X160988219Y-54662696D01*
X160995412Y-54732195D01*
X160963890Y-54794549D01*
X160944595Y-54811269D01*
X160758594Y-54941508D01*
X160591505Y-55108597D01*
X160455965Y-55302169D01*
X160455964Y-55302171D01*
X160356098Y-55516335D01*
X160356094Y-55516344D01*
X160294938Y-55744586D01*
X160294936Y-55744596D01*
X160274341Y-55979999D01*
X160274341Y-55980000D01*
X160294936Y-56215403D01*
X160294938Y-56215413D01*
X160356094Y-56443655D01*
X160356096Y-56443659D01*
X160356097Y-56443663D01*
X160369619Y-56472661D01*
X160455965Y-56657830D01*
X160455967Y-56657834D01*
X160591501Y-56851395D01*
X160591506Y-56851402D01*
X160758597Y-57018493D01*
X160758603Y-57018498D01*
X160944158Y-57148425D01*
X160987783Y-57203002D01*
X160994977Y-57272500D01*
X160963454Y-57334855D01*
X160944158Y-57351575D01*
X160758597Y-57481505D01*
X160591505Y-57648597D01*
X160455965Y-57842169D01*
X160455964Y-57842171D01*
X160356098Y-58056335D01*
X160356094Y-58056344D01*
X160294938Y-58284586D01*
X160294936Y-58284596D01*
X160274341Y-58519999D01*
X160274341Y-58520000D01*
X160294936Y-58755403D01*
X160294938Y-58755413D01*
X160356094Y-58983655D01*
X160356096Y-58983659D01*
X160356097Y-58983663D01*
X160380460Y-59035909D01*
X160455965Y-59197830D01*
X160455967Y-59197834D01*
X160591501Y-59391395D01*
X160591506Y-59391402D01*
X160758597Y-59558493D01*
X160758603Y-59558498D01*
X160944158Y-59688425D01*
X160987783Y-59743002D01*
X160994977Y-59812500D01*
X160963454Y-59874855D01*
X160944158Y-59891575D01*
X160758597Y-60021505D01*
X160591505Y-60188597D01*
X160455965Y-60382169D01*
X160455964Y-60382171D01*
X160356098Y-60596335D01*
X160356094Y-60596344D01*
X160294938Y-60824586D01*
X160294936Y-60824596D01*
X160274341Y-61059999D01*
X160274341Y-61060000D01*
X160294936Y-61295403D01*
X160294938Y-61295413D01*
X160356094Y-61523655D01*
X160356096Y-61523659D01*
X160356097Y-61523663D01*
X160452547Y-61730500D01*
X160455965Y-61737830D01*
X160455967Y-61737834D01*
X160545256Y-61865351D01*
X160588194Y-61926673D01*
X160591501Y-61931395D01*
X160591506Y-61931402D01*
X160758597Y-62098493D01*
X160758603Y-62098498D01*
X160944158Y-62228425D01*
X160987783Y-62283002D01*
X160994977Y-62352500D01*
X160963454Y-62414855D01*
X160944158Y-62431575D01*
X160758597Y-62561505D01*
X160591505Y-62728597D01*
X160455965Y-62922169D01*
X160455964Y-62922171D01*
X160356098Y-63136335D01*
X160356094Y-63136344D01*
X160294938Y-63364586D01*
X160294936Y-63364596D01*
X160274341Y-63599999D01*
X160274341Y-63600000D01*
X160294936Y-63835403D01*
X160294938Y-63835413D01*
X160356094Y-64063655D01*
X160356096Y-64063659D01*
X160356097Y-64063663D01*
X160455965Y-64277830D01*
X160583700Y-64460255D01*
X160591501Y-64471395D01*
X160591506Y-64471402D01*
X160758597Y-64638493D01*
X160758603Y-64638498D01*
X160944158Y-64768425D01*
X160987783Y-64823002D01*
X160994977Y-64892500D01*
X160963454Y-64954855D01*
X160944158Y-64971575D01*
X160758597Y-65101505D01*
X160591505Y-65268597D01*
X160455965Y-65462169D01*
X160455964Y-65462171D01*
X160356098Y-65676335D01*
X160356094Y-65676344D01*
X160294938Y-65904586D01*
X160294936Y-65904596D01*
X160274341Y-66139999D01*
X160274341Y-66140000D01*
X160294936Y-66375403D01*
X160294938Y-66375413D01*
X160356094Y-66603655D01*
X160356096Y-66603659D01*
X160356097Y-66603663D01*
X160445349Y-66795063D01*
X160455965Y-66817830D01*
X160455967Y-66817834D01*
X160591501Y-67011395D01*
X160591506Y-67011402D01*
X160758597Y-67178493D01*
X160758603Y-67178498D01*
X160944158Y-67308425D01*
X160987783Y-67363002D01*
X160994977Y-67432500D01*
X160963454Y-67494855D01*
X160944158Y-67511575D01*
X160758597Y-67641505D01*
X160591506Y-67808596D01*
X160473854Y-67976623D01*
X160419277Y-68020248D01*
X160372279Y-68029500D01*
X155275929Y-68029500D01*
X155150261Y-68054497D01*
X155150255Y-68054499D01*
X155031874Y-68103534D01*
X154925326Y-68174726D01*
X154925325Y-68174727D01*
X149421873Y-73678181D01*
X149360550Y-73711666D01*
X149334192Y-73714500D01*
X148652932Y-73714500D01*
X148585893Y-73694815D01*
X148540138Y-73642011D01*
X148530194Y-73572853D01*
X148536749Y-73547169D01*
X148539023Y-73541069D01*
X148544091Y-73527483D01*
X148550500Y-73467873D01*
X148550499Y-72722128D01*
X148544091Y-72662517D01*
X148517631Y-72591575D01*
X148493797Y-72527671D01*
X148493793Y-72527664D01*
X148407547Y-72412455D01*
X148407544Y-72412452D01*
X148292335Y-72326206D01*
X148292328Y-72326202D01*
X148157482Y-72275908D01*
X148157483Y-72275908D01*
X148097883Y-72269501D01*
X148097881Y-72269500D01*
X148097873Y-72269500D01*
X148097865Y-72269500D01*
X147670097Y-72269500D01*
X147603058Y-72249815D01*
X147582416Y-72233181D01*
X147330700Y-71981465D01*
X147297215Y-71920142D01*
X147295163Y-71907686D01*
X147285368Y-71820745D01*
X147225789Y-71650478D01*
X147129816Y-71497738D01*
X147002262Y-71370184D01*
X146849523Y-71274211D01*
X146679254Y-71214631D01*
X146679249Y-71214630D01*
X146500004Y-71194435D01*
X146499996Y-71194435D01*
X146320750Y-71214630D01*
X146320745Y-71214631D01*
X146150476Y-71274211D01*
X145997737Y-71370184D01*
X145870184Y-71497737D01*
X145774211Y-71650476D01*
X145714631Y-71820745D01*
X145714630Y-71820750D01*
X145696481Y-71981836D01*
X145669415Y-72046250D01*
X145611820Y-72085806D01*
X145541983Y-72087943D01*
X145485580Y-72055634D01*
X140264674Y-66834727D01*
X140264673Y-66834726D01*
X140260414Y-66831880D01*
X140158127Y-66763535D01*
X140158125Y-66763534D01*
X140158122Y-66763532D01*
X140117222Y-66746590D01*
X140062819Y-66702748D01*
X140040755Y-66636454D01*
X140044901Y-66599937D01*
X140105063Y-66375408D01*
X140125659Y-66140000D01*
X140125469Y-66137834D01*
X140119016Y-66064069D01*
X140105063Y-65904592D01*
X140043903Y-65676337D01*
X139944035Y-65462171D01*
X139942515Y-65459999D01*
X139808494Y-65268597D01*
X139641402Y-65101506D01*
X139641396Y-65101501D01*
X139455842Y-64971575D01*
X139412217Y-64916998D01*
X139405023Y-64847500D01*
X139436546Y-64785145D01*
X139455842Y-64768425D01*
X139478026Y-64752891D01*
X139641401Y-64638495D01*
X139808495Y-64471401D01*
X139944035Y-64277830D01*
X140043903Y-64063663D01*
X140105063Y-63835408D01*
X140125659Y-63600000D01*
X140125469Y-63597834D01*
X140116712Y-63497737D01*
X140105063Y-63364592D01*
X140049012Y-63155403D01*
X140043905Y-63136344D01*
X140043904Y-63136343D01*
X140043903Y-63136337D01*
X139944035Y-62922171D01*
X139942515Y-62919999D01*
X139808494Y-62728597D01*
X139641402Y-62561506D01*
X139641396Y-62561501D01*
X139455842Y-62431575D01*
X139412217Y-62376998D01*
X139405023Y-62307500D01*
X139436546Y-62245145D01*
X139455842Y-62228425D01*
X139478026Y-62212891D01*
X139641401Y-62098495D01*
X139808495Y-61931401D01*
X139944035Y-61737830D01*
X140043903Y-61523663D01*
X140105063Y-61295408D01*
X140125659Y-61060000D01*
X140105063Y-60824592D01*
X140043903Y-60596337D01*
X139944035Y-60382171D01*
X139808495Y-60188599D01*
X139808494Y-60188597D01*
X139641402Y-60021506D01*
X139641396Y-60021501D01*
X139455842Y-59891575D01*
X139412217Y-59836998D01*
X139405023Y-59767500D01*
X139436546Y-59705145D01*
X139455842Y-59688425D01*
X139478026Y-59672891D01*
X139641401Y-59558495D01*
X139808495Y-59391401D01*
X139944035Y-59197830D01*
X140043903Y-58983663D01*
X140105063Y-58755408D01*
X140125659Y-58520000D01*
X140105063Y-58284592D01*
X140043903Y-58056337D01*
X139944035Y-57842171D01*
X139808495Y-57648599D01*
X139808494Y-57648597D01*
X139641402Y-57481506D01*
X139641396Y-57481501D01*
X139455842Y-57351575D01*
X139412217Y-57296998D01*
X139405023Y-57227500D01*
X139436546Y-57165145D01*
X139455842Y-57148425D01*
X139478026Y-57132891D01*
X139641401Y-57018495D01*
X139808495Y-56851401D01*
X139944035Y-56657830D01*
X140043903Y-56443663D01*
X140105063Y-56215408D01*
X140125659Y-55980000D01*
X140105063Y-55744592D01*
X140043903Y-55516337D01*
X139944035Y-55302171D01*
X139808495Y-55108599D01*
X139686179Y-54986283D01*
X139652696Y-54924963D01*
X139657680Y-54855271D01*
X139699551Y-54799337D01*
X139730529Y-54782422D01*
X139862086Y-54733354D01*
X139862093Y-54733350D01*
X139977187Y-54647190D01*
X139977190Y-54647187D01*
X140063350Y-54532093D01*
X140063354Y-54532086D01*
X140113596Y-54397379D01*
X140113598Y-54397372D01*
X140119999Y-54337844D01*
X140120000Y-54337827D01*
X140120000Y-53690000D01*
X139203012Y-53690000D01*
X139235925Y-53632993D01*
X139270000Y-53505826D01*
X139270000Y-53374174D01*
X139235925Y-53247007D01*
X139203012Y-53190000D01*
X140120000Y-53190000D01*
X140120000Y-52542172D01*
X140119999Y-52542155D01*
X140113598Y-52482627D01*
X140113596Y-52482620D01*
X140063354Y-52347913D01*
X140063350Y-52347906D01*
X139977190Y-52232812D01*
X139977187Y-52232809D01*
X139862093Y-52146649D01*
X139862086Y-52146645D01*
X139727379Y-52096403D01*
X139727372Y-52096401D01*
X139667844Y-52090000D01*
X139020000Y-52090000D01*
X139020000Y-53006988D01*
X138962993Y-52974075D01*
X138835826Y-52940000D01*
X138704174Y-52940000D01*
X138577007Y-52974075D01*
X138520000Y-53006988D01*
X138520000Y-52090000D01*
X137872155Y-52090000D01*
X137812627Y-52096401D01*
X137812620Y-52096403D01*
X137677913Y-52146645D01*
X137677906Y-52146649D01*
X137562812Y-52232809D01*
X137562809Y-52232812D01*
X137476649Y-52347906D01*
X137476645Y-52347913D01*
X137426403Y-52482620D01*
X137426401Y-52482627D01*
X137420000Y-52542155D01*
X137420000Y-53190000D01*
X138336988Y-53190000D01*
X138304075Y-53247007D01*
X138270000Y-53374174D01*
X138270000Y-53505826D01*
X138304075Y-53632993D01*
X138336988Y-53690000D01*
X137420000Y-53690000D01*
X137420000Y-54337844D01*
X137426401Y-54397372D01*
X137426403Y-54397379D01*
X137476645Y-54532086D01*
X137476649Y-54532093D01*
X137562809Y-54647187D01*
X137562812Y-54647190D01*
X137677906Y-54733350D01*
X137677913Y-54733354D01*
X137809470Y-54782421D01*
X137865403Y-54824292D01*
X137889821Y-54889756D01*
X137874970Y-54958029D01*
X137853819Y-54986284D01*
X137731503Y-55108600D01*
X137595965Y-55302169D01*
X137595964Y-55302171D01*
X137496098Y-55516335D01*
X137496094Y-55516344D01*
X137434938Y-55744586D01*
X137434936Y-55744596D01*
X137414341Y-55979999D01*
X137414341Y-55980000D01*
X137434936Y-56215403D01*
X137434938Y-56215413D01*
X137496094Y-56443655D01*
X137496096Y-56443659D01*
X137496097Y-56443663D01*
X137509619Y-56472661D01*
X137595965Y-56657830D01*
X137595967Y-56657834D01*
X137731501Y-56851395D01*
X137731506Y-56851402D01*
X137898597Y-57018493D01*
X137898603Y-57018498D01*
X138084158Y-57148425D01*
X138127783Y-57203002D01*
X138134977Y-57272500D01*
X138103454Y-57334855D01*
X138084158Y-57351575D01*
X137898597Y-57481505D01*
X137731505Y-57648597D01*
X137595965Y-57842169D01*
X137595964Y-57842171D01*
X137496098Y-58056335D01*
X137496094Y-58056344D01*
X137434938Y-58284586D01*
X137434936Y-58284596D01*
X137414341Y-58519999D01*
X137414341Y-58520000D01*
X137434936Y-58755403D01*
X137434938Y-58755413D01*
X137496094Y-58983655D01*
X137496096Y-58983659D01*
X137496097Y-58983663D01*
X137520460Y-59035909D01*
X137595965Y-59197830D01*
X137595967Y-59197834D01*
X137731501Y-59391395D01*
X137731506Y-59391402D01*
X137898597Y-59558493D01*
X137898603Y-59558498D01*
X138084158Y-59688425D01*
X138127783Y-59743002D01*
X138134977Y-59812500D01*
X138103454Y-59874855D01*
X138084158Y-59891575D01*
X137898597Y-60021505D01*
X137731505Y-60188597D01*
X137595965Y-60382169D01*
X137595964Y-60382171D01*
X137496098Y-60596335D01*
X137496094Y-60596344D01*
X137434938Y-60824586D01*
X137434936Y-60824596D01*
X137414341Y-61059999D01*
X137414341Y-61060000D01*
X137434936Y-61295403D01*
X137434938Y-61295413D01*
X137496094Y-61523655D01*
X137496096Y-61523659D01*
X137496097Y-61523663D01*
X137592547Y-61730500D01*
X137595965Y-61737830D01*
X137595967Y-61737834D01*
X137685256Y-61865351D01*
X137728194Y-61926673D01*
X137731501Y-61931395D01*
X137731506Y-61931402D01*
X137898597Y-62098493D01*
X137898603Y-62098498D01*
X138084158Y-62228425D01*
X138127783Y-62283002D01*
X138134977Y-62352500D01*
X138103454Y-62414855D01*
X138084158Y-62431575D01*
X137898597Y-62561505D01*
X137731505Y-62728597D01*
X137595965Y-62922169D01*
X137595964Y-62922171D01*
X137496098Y-63136335D01*
X137496094Y-63136344D01*
X137434938Y-63364586D01*
X137434936Y-63364596D01*
X137414341Y-63599999D01*
X137414341Y-63600000D01*
X137434936Y-63835403D01*
X137434938Y-63835413D01*
X137496094Y-64063655D01*
X137496096Y-64063659D01*
X137496097Y-64063663D01*
X137595965Y-64277830D01*
X137723700Y-64460255D01*
X137731501Y-64471395D01*
X137731506Y-64471402D01*
X137898597Y-64638493D01*
X137898603Y-64638498D01*
X138084158Y-64768425D01*
X138127783Y-64823002D01*
X138134977Y-64892500D01*
X138103454Y-64954855D01*
X138084158Y-64971575D01*
X137898597Y-65101505D01*
X137731505Y-65268597D01*
X137595965Y-65462169D01*
X137595964Y-65462171D01*
X137581474Y-65493246D01*
X137535301Y-65545685D01*
X137468107Y-65564837D01*
X137401226Y-65544621D01*
X137381411Y-65528522D01*
X136836819Y-64983930D01*
X136803334Y-64922607D01*
X136800500Y-64896249D01*
X136800500Y-64585928D01*
X136775502Y-64460261D01*
X136775501Y-64460260D01*
X136775501Y-64460256D01*
X136726465Y-64341873D01*
X136683673Y-64277830D01*
X136656391Y-64236998D01*
X136655279Y-64235333D01*
X136321722Y-63901776D01*
X136288237Y-63840453D01*
X136286182Y-63827973D01*
X136285368Y-63820745D01*
X136225789Y-63650478D01*
X136129816Y-63497738D01*
X136002262Y-63370184D01*
X135993353Y-63364586D01*
X135849523Y-63274211D01*
X135679254Y-63214631D01*
X135679249Y-63214630D01*
X135500004Y-63194435D01*
X135499996Y-63194435D01*
X135320750Y-63214630D01*
X135320742Y-63214632D01*
X135164954Y-63269145D01*
X135095176Y-63272706D01*
X135034548Y-63237977D01*
X135002321Y-63175984D01*
X135000000Y-63152103D01*
X135000000Y-61500000D01*
X128000000Y-61500000D01*
X125500500Y-61500000D01*
X125500500Y-55002706D01*
X125500559Y-54999994D01*
X127494556Y-54999994D01*
X127494556Y-55000005D01*
X127514310Y-55314004D01*
X127514311Y-55314011D01*
X127573270Y-55623083D01*
X127670497Y-55922316D01*
X127670499Y-55922321D01*
X127804461Y-56207003D01*
X127804464Y-56207009D01*
X127973051Y-56472661D01*
X127973054Y-56472665D01*
X128173606Y-56715090D01*
X128173608Y-56715092D01*
X128173610Y-56715094D01*
X128318756Y-56851395D01*
X128402968Y-56930476D01*
X128402978Y-56930484D01*
X128657504Y-57115408D01*
X128657509Y-57115410D01*
X128657516Y-57115416D01*
X128933234Y-57266994D01*
X128933239Y-57266996D01*
X128933241Y-57266997D01*
X128933242Y-57266998D01*
X129225771Y-57382818D01*
X129225774Y-57382819D01*
X129530523Y-57461065D01*
X129530527Y-57461066D01*
X129596010Y-57469338D01*
X129842670Y-57500499D01*
X129842679Y-57500499D01*
X129842682Y-57500500D01*
X129842684Y-57500500D01*
X130157316Y-57500500D01*
X130157318Y-57500500D01*
X130157321Y-57500499D01*
X130157329Y-57500499D01*
X130343593Y-57476968D01*
X130469473Y-57461066D01*
X130774225Y-57382819D01*
X130774228Y-57382818D01*
X131066757Y-57266998D01*
X131066758Y-57266997D01*
X131066756Y-57266997D01*
X131066766Y-57266994D01*
X131342484Y-57115416D01*
X131597030Y-56930478D01*
X131826390Y-56715094D01*
X132026947Y-56472663D01*
X132195537Y-56207007D01*
X132329503Y-55922315D01*
X132426731Y-55623079D01*
X132485688Y-55314015D01*
X132486433Y-55302171D01*
X132505444Y-55000005D01*
X132505444Y-54999994D01*
X132485689Y-54685995D01*
X132485688Y-54685988D01*
X132485688Y-54685985D01*
X132426731Y-54376921D01*
X132329503Y-54077685D01*
X132195537Y-53792993D01*
X132130176Y-53690000D01*
X132026948Y-53527338D01*
X132026945Y-53527334D01*
X131826393Y-53284909D01*
X131826391Y-53284907D01*
X131664620Y-53132993D01*
X131597030Y-53069522D01*
X131597027Y-53069520D01*
X131597021Y-53069515D01*
X131342495Y-52884591D01*
X131342488Y-52884586D01*
X131342484Y-52884584D01*
X131066766Y-52733006D01*
X131066763Y-52733004D01*
X131066758Y-52733002D01*
X131066757Y-52733001D01*
X130774228Y-52617181D01*
X130774225Y-52617180D01*
X130469476Y-52538934D01*
X130469463Y-52538932D01*
X130157329Y-52499500D01*
X130157318Y-52499500D01*
X129842682Y-52499500D01*
X129842670Y-52499500D01*
X129530536Y-52538932D01*
X129530523Y-52538934D01*
X129225774Y-52617180D01*
X129225771Y-52617181D01*
X128933242Y-52733001D01*
X128933241Y-52733002D01*
X128657516Y-52884584D01*
X128657504Y-52884591D01*
X128402978Y-53069515D01*
X128402968Y-53069523D01*
X128173608Y-53284907D01*
X128173606Y-53284909D01*
X127973054Y-53527334D01*
X127973051Y-53527338D01*
X127804464Y-53792990D01*
X127804461Y-53792996D01*
X127670499Y-54077678D01*
X127670497Y-54077683D01*
X127573270Y-54376916D01*
X127514311Y-54685988D01*
X127514310Y-54685995D01*
X127494556Y-54999994D01*
X125500559Y-54999994D01*
X125500618Y-54997297D01*
X125506819Y-54855271D01*
X125517386Y-54613226D01*
X125518326Y-54602495D01*
X125568152Y-54224025D01*
X125570025Y-54213405D01*
X125652649Y-53840709D01*
X125655440Y-53830295D01*
X125770230Y-53466227D01*
X125773917Y-53456095D01*
X125920003Y-53103412D01*
X125924561Y-53093638D01*
X126100822Y-52755045D01*
X126106217Y-52745700D01*
X126311325Y-52423744D01*
X126317515Y-52414905D01*
X126549896Y-52112060D01*
X126556834Y-52103791D01*
X126814726Y-51822352D01*
X126822352Y-51814726D01*
X127103791Y-51556834D01*
X127112060Y-51549896D01*
X127414905Y-51317515D01*
X127423744Y-51311325D01*
X127745700Y-51106217D01*
X127755045Y-51100822D01*
X128093638Y-50924561D01*
X128103412Y-50920003D01*
X128456095Y-50773917D01*
X128466227Y-50770230D01*
X128830295Y-50655440D01*
X128840709Y-50652649D01*
X129213405Y-50570025D01*
X129224025Y-50568152D01*
X129602495Y-50518326D01*
X129613226Y-50517386D01*
X129997297Y-50500617D01*
X130002706Y-50500500D01*
X130065892Y-50500500D01*
X169934108Y-50500500D01*
X169997294Y-50500500D01*
X170002702Y-50500617D01*
G37*
%TD.AperFunction*%
%TD*%
M02*
