%TF.GenerationSoftware,KiCad,Pcbnew,8.0.7-8.0.7-0~ubuntu22.04.1*%
%TF.CreationDate,2025-01-06T16:11:52+01:00*%
%TF.ProjectId,crack_monitoring_minimal,63726163-6b5f-46d6-9f6e-69746f72696e,rev?*%
%TF.SameCoordinates,Original*%
%TF.FileFunction,Soldermask,Top*%
%TF.FilePolarity,Negative*%
%FSLAX46Y46*%
G04 Gerber Fmt 4.6, Leading zero omitted, Abs format (unit mm)*
G04 Created by KiCad (PCBNEW 8.0.7-8.0.7-0~ubuntu22.04.1) date 2025-01-06 16:11:52*
%MOMM*%
%LPD*%
G01*
G04 APERTURE LIST*
G04 Aperture macros list*
%AMRoundRect*
0 Rectangle with rounded corners*
0 $1 Rounding radius*
0 $2 $3 $4 $5 $6 $7 $8 $9 X,Y pos of 4 corners*
0 Add a 4 corners polygon primitive as box body*
4,1,4,$2,$3,$4,$5,$6,$7,$8,$9,$2,$3,0*
0 Add four circle primitives for the rounded corners*
1,1,$1+$1,$2,$3*
1,1,$1+$1,$4,$5*
1,1,$1+$1,$6,$7*
1,1,$1+$1,$8,$9*
0 Add four rect primitives between the rounded corners*
20,1,$1+$1,$2,$3,$4,$5,0*
20,1,$1+$1,$4,$5,$6,$7,0*
20,1,$1+$1,$6,$7,$8,$9,0*
20,1,$1+$1,$8,$9,$2,$3,0*%
G04 Aperture macros list end*
%ADD10C,0.100000*%
%ADD11RoundRect,0.225000X0.250000X-0.225000X0.250000X0.225000X-0.250000X0.225000X-0.250000X-0.225000X0*%
%ADD12RoundRect,0.200000X-0.275000X0.200000X-0.275000X-0.200000X0.275000X-0.200000X0.275000X0.200000X0*%
%ADD13RoundRect,0.200000X-0.200000X-0.800000X0.200000X-0.800000X0.200000X0.800000X-0.200000X0.800000X0*%
%ADD14R,1.700000X1.700000*%
%ADD15O,1.700000X1.700000*%
%ADD16RoundRect,0.200000X-0.450000X0.200000X-0.450000X-0.200000X0.450000X-0.200000X0.450000X0.200000X0*%
%ADD17O,1.300000X0.800000*%
%ADD18RoundRect,0.250000X-0.350000X-0.625000X0.350000X-0.625000X0.350000X0.625000X-0.350000X0.625000X0*%
%ADD19O,1.200000X1.750000*%
%ADD20RoundRect,0.250000X0.625000X-0.350000X0.625000X0.350000X-0.625000X0.350000X-0.625000X-0.350000X0*%
%ADD21O,1.750000X1.200000*%
%ADD22RoundRect,0.100000X0.712500X0.100000X-0.712500X0.100000X-0.712500X-0.100000X0.712500X-0.100000X0*%
%ADD23R,1.000000X1.500000*%
%ADD24RoundRect,0.225000X0.225000X0.250000X-0.225000X0.250000X-0.225000X-0.250000X0.225000X-0.250000X0*%
%ADD25C,1.700000*%
G04 APERTURE END LIST*
D10*
X146750000Y-51500000D02*
X153750000Y-51500000D01*
X153750000Y-55350000D01*
X146750000Y-55350000D01*
X146750000Y-51500000D01*
G36*
X146750000Y-51500000D02*
G01*
X153750000Y-51500000D01*
X153750000Y-55350000D01*
X146750000Y-55350000D01*
X146750000Y-51500000D01*
G37*
D11*
%TO.C,C2*%
X165000000Y-73050000D03*
X165000000Y-71500000D03*
%TD*%
D12*
%TO.C,R1*%
X158500000Y-72675000D03*
X158500000Y-74325000D03*
%TD*%
D13*
%TO.C,SW1*%
X129400000Y-76000000D03*
X133600000Y-76000000D03*
%TD*%
D14*
%TO.C,J1*%
X171000000Y-60380000D03*
D15*
X171000000Y-62920000D03*
X171000000Y-65460000D03*
X171000000Y-68000000D03*
%TD*%
D16*
%TO.C,J5*%
X166000000Y-87250000D03*
D17*
X166000000Y-88500000D03*
%TD*%
D14*
%TO.C,J2*%
X171000000Y-71960000D03*
D15*
X171000000Y-74500000D03*
X171000000Y-77040000D03*
%TD*%
D18*
%TO.C,J3*%
X149500000Y-95450000D03*
D19*
X151500000Y-95450000D03*
%TD*%
D20*
%TO.C,J4*%
X171000000Y-88500000D03*
D21*
X171000000Y-86500000D03*
%TD*%
D11*
%TO.C,C1*%
X155500000Y-74275000D03*
X155500000Y-72725000D03*
%TD*%
D22*
%TO.C,U2*%
X133612500Y-64475000D03*
X133612500Y-63825000D03*
X133612500Y-63175000D03*
X133612500Y-62525000D03*
X129387500Y-62525000D03*
X129387500Y-63175000D03*
X129387500Y-63825000D03*
X129387500Y-64475000D03*
%TD*%
D13*
%TO.C,SW2*%
X129300000Y-88000000D03*
X133500000Y-88000000D03*
%TD*%
D23*
%TO.C,JP1*%
X147800000Y-70500000D03*
X146500000Y-70500000D03*
X145200000Y-70500000D03*
%TD*%
D24*
%TO.C,C4*%
X129500000Y-61000000D03*
X127950000Y-61000000D03*
%TD*%
D14*
%TO.C,U1*%
X138770000Y-53440000D03*
D25*
X138770000Y-55980000D03*
X138770000Y-58520000D03*
X138770000Y-61060000D03*
X138770000Y-63600000D03*
X138770000Y-66140000D03*
X138770000Y-68680000D03*
X138770000Y-71220000D03*
X138770000Y-73760000D03*
X138770000Y-76300000D03*
X138770000Y-78840000D03*
X138770000Y-81380000D03*
X138770000Y-83920000D03*
X138770000Y-86460000D03*
X138770000Y-89000000D03*
X138770000Y-91540000D03*
X138770000Y-94080000D03*
X138770000Y-96620000D03*
X161630000Y-53440000D03*
X161630000Y-55980000D03*
X161630000Y-58520000D03*
X161630000Y-61060000D03*
X161630000Y-63600000D03*
X161630000Y-66140000D03*
X161630000Y-68680000D03*
X161630000Y-71220000D03*
X161630000Y-73760000D03*
X161630000Y-76300000D03*
X161630000Y-78840000D03*
X161630000Y-81380000D03*
X161630000Y-83920000D03*
X161630000Y-86460000D03*
X161630000Y-89000000D03*
X161630000Y-91540000D03*
X161630000Y-94080000D03*
X161630000Y-96620000D03*
%TD*%
M02*
